<svg xmlns="http://www.w3.org/2000/svg" viewBox="0 0 261.11 48.57"><defs><style>.cls-1{fill:#6b6b6b;}</style></defs><title>Asset 15</title><g id="Layer_2" data-name="Layer 2"><g id="BAO"><path class="cls-1" d="M15.57,13.27a1.32,1.32,0,0,1,.45-.2,2.24,2.24,0,0,1,.53,0l.68.07c.48.05,1,.12,1.66.21a19.89,19.89,0,0,1,2.27.49c.89.24,1.95.59,3.17,1s2.68,1.05,4.36,1.83c1.85-1.42,3.58-2.67,5.21-3.74s3.06-2,4.3-2.7,2.26-1.29,3-1.69l1.48-.74a2.54,2.54,0,0,1,.05-.34,1.33,1.33,0,0,1,.13-.4,1.23,1.23,0,0,1,.3-.41,2.18,2.18,0,0,1,.55-.36A7,7,0,0,1,44.54,6c.28-.1.55-.19.81-.26s.5-.13.71-.17a2.87,2.87,0,0,1,.46-.07.58.58,0,0,1,.3.11.78.78,0,0,1,.24.27.65.65,0,0,1,0,.37.69.69,0,0,1-.25.38c-.43.39-.94.9-1.53,1.55s-1.23,1.37-1.9,2.18S42.08,12,41.37,12.92s-1.38,1.83-2,2.74-1.26,1.78-1.83,2.63-1,1.61-1.44,2.29l1.43.89a5.15,5.15,0,0,1,.65.45.31.31,0,0,1,.13.23.91.91,0,0,1,0,.29.28.28,0,0,1-.13.18c-.07,0-.15,0-.25-.16a2.94,2.94,0,0,0-.66-.53L35.81,21a36.47,36.47,0,0,0-2,3.71c-.51,1.17-.93,2.2-1.25,3.09A22.63,22.63,0,0,0,31.93,30a9.26,9.26,0,0,0-.22,1.08c0,.09-.08.12-.21.11a1.09,1.09,0,0,1-.41-.18,1.9,1.9,0,0,1-.42-.46,1.33,1.33,0,0,1-.24-.7,7.77,7.77,0,0,1,1-3.05Q32.59,24.5,35,20.51a12,12,0,0,0-1.13-.68c-.42-.23-.88-.48-1.37-.73L31,18.32c-.53-.27-1.06-.54-1.58-.83-.79.63-1.56,1.25-2.32,1.89s-1.49,1.27-2.23,1.91-1.46,1.27-2.19,1.89S21.2,24.42,20.46,25a88.81,88.81,0,0,1-9.72,6.91,19.69,19.69,0,0,1-6.46,2.75,20.71,20.71,0,0,1-2.49.25,1.78,1.78,0,0,1-1.35-.38c-.46-.5-.56-.86-.3-1.09a4.34,4.34,0,0,1,2-.52,1.44,1.44,0,0,1,.6.05,2.1,2.1,0,0,1,.48.2l.39.25a.67.67,0,0,0,.33.14,5,5,0,0,0,2.44-.46,22.37,22.37,0,0,0,3.5-1.84q2-1.25,4.51-3.1t5.47-4.28c.74-.6,1.45-1.2,2.16-1.79l2.09-1.77c.69-.59,1.37-1.15,2-1.71s1.37-1.09,2.07-1.61c-1.11-.49-2.19-.94-3.25-1.33s-2-.72-2.91-1a15.93,15.93,0,0,0-2.26-.49,2.17,2.17,0,0,0-1.29.1,3.58,3.58,0,0,1-.48.29,1.21,1.21,0,0,1-.42.13,1.76,1.76,0,0,1-.52,0c-.2,0-.47,0-.8-.09a1.87,1.87,0,0,1-1.2-.42.41.41,0,0,1,.06-.59A1.87,1.87,0,0,1,15.57,13.27ZM41.74,9.72a.2.2,0,0,0-.1-.19c-.07,0-.2,0-.39,0s-.58.27-1.17.59-1.38.8-2.34,1.41-2.09,1.38-3.4,2.28-2.76,2-4.37,3.2c.61.32,1.17.61,1.66.89s1,.53,1.38.78l1.17.72,1,.64c1-1.76,2.07-3.46,3.17-5.1s2.18-3.28,3.28-4.92A.82.82,0,0,0,41.74,9.72Zm8.38-5.27c1.17-.29,1.86-.74,2.05-1.34a2.11,2.11,0,0,0-1.51-3A2,2,0,0,0,49.13.2a1.84,1.84,0,0,0-1,1.09c-.17.53,0,.89.66,1.08a.56.56,0,0,0,.69-.18c.19-.26.15-.46-.14-.61S49,1.33,49,1.26c.11-.35.47-.43,1.08-.23.79.26,1.15.73,1.09,1.41S50.59,3.63,49.66,4s-1.47.73-1.6,1.18a2.09,2.09,0,0,0,0,1.24c.08.18.17.25.26.23s.13-.14.09-.36C48.38,5.34,49,4.74,50.12,4.45Z"/><path class="cls-1" d="M43.76,30.86a1,1,0,0,1-.55-.9,3.2,3.2,0,0,1,.27-1.34,10.68,10.68,0,0,1,.8-1.58q.49-.83,1-1.59a3.88,3.88,0,0,0,.64-1.31.68.68,0,0,0-.16-.68.76.76,0,0,0-.57-.07,3.89,3.89,0,0,0-.94.29c-.37.16-.79.38-1.26.64s-1,.59-1.5,1-1.07.78-1.6,1.22-1,.89-1.54,1.36A19.64,19.64,0,0,0,37,29.31a12.15,12.15,0,0,0-1,1.42.38.38,0,0,1-.33.22.49.49,0,0,1-.31-.19,1.07,1.07,0,0,1-.22-.39.65.65,0,0,1,0-.35,2.89,2.89,0,0,1,.16-.36c.09-.19.2-.4.33-.65s.28-.51.45-.79l.46-.81.41-.69c.12-.21.2-.35.26-.44a4.46,4.46,0,0,0,.43-.76,1.1,1.1,0,0,0,.08-.75.93.93,0,0,1,0-.52,1.91,1.91,0,0,1,.21-.49,4,4,0,0,1,.38-.52l.48-.58a2.8,2.8,0,0,1,.27-.3.33.33,0,0,1,.28-.08.64.64,0,0,1,.3.25,3.93,3.93,0,0,1,.38.67.73.73,0,0,1,0,.52,1.86,1.86,0,0,1-.15.38l-.25.39-.42.65-.52.78-.51.78c-.16.25-.3.46-.42.66l-.23.38c0,.07,0,.11,0,.14s.06,0,.11,0q.31-.32,1.23-1.08c.61-.52,1.39-1.12,2.33-1.81.52-.39,1.08-.77,1.66-1.14a15.46,15.46,0,0,1,1.69-.94A7.41,7.41,0,0,1,46,22.35a1.42,1.42,0,0,1,1.05.11,1.26,1.26,0,0,1,.64.87,1.89,1.89,0,0,1-.13,1,4.69,4.69,0,0,1-.56,1l-.66.89-.92,1.2c-.32.42-.61.83-.85,1.22a3.53,3.53,0,0,0-.47,1.06.57.57,0,0,0,.26.68,1,1,0,0,0,.61.14,4,4,0,0,0,.91-.12A10.06,10.06,0,0,0,47,30.1c.39-.14.78-.3,1.18-.49a15.88,15.88,0,0,0,2-1.12,11.73,11.73,0,0,0,1.18-.9.54.54,0,0,0,.18-.23,1.8,1.8,0,0,0,.08-.21l.08-.2a.87.87,0,0,1,.18-.22,2.6,2.6,0,0,1,.62-.4c.14,0,.21,0,.24.2s-.09.37-.33.62a12.13,12.13,0,0,1-1,.89c-.26.2-.62.48-1.1.82a14.43,14.43,0,0,1-2,1.13,12.61,12.61,0,0,1-1.3.53,9.13,9.13,0,0,1-1.3.36,5.85,5.85,0,0,1-1.11.12A1.7,1.7,0,0,1,43.76,30.86Z"/><path class="cls-1" d="M57.57,30.86A1.07,1.07,0,0,1,57,30a3,3,0,0,1,.21-1.26,8.75,8.75,0,0,1,.72-1.49q.46-.78,1-1.56a3.5,3.5,0,0,0,.62-1.31.69.69,0,0,0-.16-.67.61.61,0,0,0-.52-.1,3.49,3.49,0,0,0-.94.29,9.42,9.42,0,0,0-1.24.65,13.73,13.73,0,0,0-1.46,1c-.51.39-1,.83-1.53,1.31s-1,1-1.46,1.43-.86.93-1.22,1.36a11.37,11.37,0,0,0-.8,1.05.38.38,0,0,1-.33.22.45.45,0,0,1-.3-.19,1.47,1.47,0,0,1-.22-.39A.67.67,0,0,1,49.3,30a2.48,2.48,0,0,1,.25-.57l.55-1,.67-1.18c.24-.41.45-.77.65-1.09.09-.14.26-.42.51-.85l.94-1.54q.56-.9,1.2-2c.44-.73.88-1.46,1.33-2.19l1.31-2.16q.65-1,1.14-1.89l.84-1.4.39-.65c.09-.18.18-.34.26-.48s.13-.27.18-.4a1.86,1.86,0,0,0,.08-.41,2.3,2.3,0,0,0,0-.51,1.49,1.49,0,0,1,.06-.59,3.11,3.11,0,0,1,.26-.6q.18-.3.39-.6l.43-.57c.28-.37.53-.5.75-.38a1.82,1.82,0,0,1,.66.82.7.7,0,0,1,0,.51,1.58,1.58,0,0,1-.15.39l-.33.54-.56.88c-.21.34-.42.69-.65,1.05s-.45.71-.64,1c-.38.61-.77,1.27-1.19,2s-.86,1.43-1.31,2.18L56,20.6c-.45.75-.87,1.47-1.28,2.17L53.6,24.71l-.92,1.56-.62,1.06-.23.41c0,.06,0,.09,0,.12s0,0,.09,0l.35-.33.57-.51.89-.73c.35-.29.77-.63,1.28-1s1-.77,1.54-1.15a17.91,17.91,0,0,1,1.57-1,7.29,7.29,0,0,1,1.47-.64,2.24,2.24,0,0,1,1.22-.05c.44.13.68.35.73.68a2.1,2.1,0,0,1-.16,1.09,6.75,6.75,0,0,1-.66,1.23c-.28.43-.53.79-.74,1.1s-.57.79-.87,1.19a13,13,0,0,0-.78,1.13,2.73,2.73,0,0,0-.4.95.54.54,0,0,0,.27.64,1,1,0,0,0,.62.14,4,4,0,0,0,.91-.12,10.06,10.06,0,0,0,1.09-.33A11.64,11.64,0,0,0,62,29.61a15.36,15.36,0,0,0,2-1.12,13,13,0,0,0,1.18-.9.76.76,0,0,0,.18-.23,1.8,1.8,0,0,0,.08-.21c0-.06,0-.13.08-.2a.58.58,0,0,1,.18-.22,2.42,2.42,0,0,1,.62-.4c.13,0,.21,0,.23.2s-.08.37-.32.62a10.94,10.94,0,0,1-1,.89c-.25.2-.62.48-1.1.82a14.82,14.82,0,0,1-2,1.13,13.59,13.59,0,0,1-1.3.53,9.51,9.51,0,0,1-1.3.36,5.85,5.85,0,0,1-1.11.12A1.65,1.65,0,0,1,57.57,30.86Z"/><path class="cls-1" d="M81.77,23.07l.14-.24a1,1,0,0,1,.15-.2,1.13,1.13,0,0,1,.27-.16,2.13,2.13,0,0,1,.46-.14c.38-.09.59-.06.62.09s-.08.41-.33.78a8,8,0,0,1-.64.86,7.81,7.81,0,0,1-.69.71,3.29,3.29,0,0,1-.67.47,1,1,0,0,1-.61.14c-.18,0-.25,0-.21-.1a3,3,0,0,1,.29-.27,4.23,4.23,0,0,0,.51-.52,2.54,2.54,0,0,0,.48-.88c0-.17-.07-.34-.34-.5a1.75,1.75,0,0,0-1.1-.17,5.2,5.2,0,0,0-1.93.69,9.67,9.67,0,0,0-2.3,1.85,8.76,8.76,0,0,0-1.31,1.68A5.42,5.42,0,0,0,74,28.63a2.12,2.12,0,0,0,0,1.12,1.06,1.06,0,0,0,.54.66,2.59,2.59,0,0,0,1.25.23,8.23,8.23,0,0,0,1.66-.23,19.5,19.5,0,0,0,1.91-.59c.67-.25,1.32-.53,2-.83s1.26-.63,1.85-1,1.11-.67,1.57-1a.86.86,0,0,0,.19-.2,2,2,0,0,0,.11-.2l.11-.2a.57.57,0,0,1,.2-.22,1.43,1.43,0,0,1,.63-.37.2.2,0,0,1,.27.2c0,.18-.13.4-.44.66a12.71,12.71,0,0,1-1.13.85c-.45.3-1,.61-1.55.94s-1.2.64-1.85.95-1.3.58-2,.84a15.31,15.31,0,0,1-2,.62,9.37,9.37,0,0,1-1.79.29A3.58,3.58,0,0,1,74.05,31a2.14,2.14,0,0,1-1.17-.93,2.5,2.5,0,0,1-.28-1.48,5,5,0,0,1,.6-1.8,8.61,8.61,0,0,1,1.45-1.89,9.12,9.12,0,0,1,1.45-1.2,7.68,7.68,0,0,1,1.41-.78,6,6,0,0,1,1.33-.42,6.71,6.71,0,0,1,1.22-.12,2.47,2.47,0,0,1,1.09.22A1.49,1.49,0,0,1,81.77,23.07Z"/><path class="cls-1" d="M98,18a14.78,14.78,0,0,1,2.48.32,6.36,6.36,0,0,1,1.61.56,2.18,2.18,0,0,1,.84.76,1.47,1.47,0,0,1,.2.87,1.2,1.2,0,0,1-.35.58,6.89,6.89,0,0,1-.77.74,10.8,10.8,0,0,1-1,.75,7.58,7.58,0,0,1-1,.59,9,9,0,0,1-1.54.65c-.41.13-.73.23-1,.32l-.33.12-.27.09-.21.45a3.72,3.72,0,0,1-.27.48,1.94,1.94,0,0,1-.32.37.59.59,0,0,1-.37.18.48.48,0,0,0-.36.22,4.7,4.7,0,0,0-.38.55l-.3.46-.4.64c-.14.24-.28.48-.4.74a4.71,4.71,0,0,0-.3.73,1.82,1.82,0,0,0-.09.62.49.49,0,0,0,.21.4,2,2,0,0,0,1.37.1,9.54,9.54,0,0,0,2.13-.74,14.09,14.09,0,0,0,2-1.13,9.4,9.4,0,0,0,1.17-.89.64.64,0,0,0,.19-.23,1,1,0,0,0,.08-.22.86.86,0,0,1,.07-.21.75.75,0,0,1,.2-.21,2.19,2.19,0,0,1,.6-.39c.13,0,.21,0,.23.2a.85.85,0,0,1-.32.62,7.91,7.91,0,0,1-1,.88c-.25.2-.61.47-1.09.82a13.93,13.93,0,0,1-2,1.14c-.43.19-.87.37-1.32.53a9.51,9.51,0,0,1-1.3.36,5.85,5.85,0,0,1-1.11.12,1.63,1.63,0,0,1-.78-.15.78.78,0,0,1-.38-.6,2.64,2.64,0,0,1,.1-1,8,8,0,0,1,.54-1.37,16.44,16.44,0,0,1,.95-1.63c0-.05,0-.09,0-.11a.07.07,0,0,0-.1,0l-.26.27-.5.45-.82.67c-.33.26-.75.57-1.24.92l-.72.51c-.28.19-.6.4-.93.6s-.69.41-1,.61a8.42,8.42,0,0,1-1,.51,5.49,5.49,0,0,1-1,.3,1.65,1.65,0,0,1-.8,0,.79.79,0,0,1-.57-.4,1.05,1.05,0,0,1-.1-.67A3.09,3.09,0,0,1,85.2,29a8.09,8.09,0,0,1,.4-.84,7.58,7.58,0,0,1,.44-.72l.34-.48c.1-.12.2-.26.32-.4a5.72,5.72,0,0,0,.32-.48,3.43,3.43,0,0,0,.23-.52,1.37,1.37,0,0,0,0-.57,1.49,1.49,0,0,1,.06-.59,2.6,2.6,0,0,1,.26-.6,5.09,5.09,0,0,1,.39-.6c.15-.19.29-.39.44-.57q.42-.56.75-.39a1.86,1.86,0,0,1,.66.83.65.65,0,0,1,.06.26,2.11,2.11,0,0,1,0,.26,1.42,1.42,0,0,1-.07.22l-.07.16c0,.07-.12.19-.23.38l-.39.65-.47.78-.49.8c-.15.26-.29.5-.43.71s-.24.38-.3.49a4.38,4.38,0,0,0-.7,1.42c-.09.38,0,.64.12.76a.75.75,0,0,0,.41.06,3.44,3.44,0,0,0,.81-.23,9.93,9.93,0,0,0,1.23-.64c.49-.28,1.07-.66,1.75-1.14s1.08-.82,1.57-1.24.92-.83,1.31-1.24a12.45,12.45,0,0,0,1-1.16,7.91,7.91,0,0,0,.7-1,4.07,4.07,0,0,0,.21-.37l.23-.36a.91.91,0,0,1,.24-.24.24.24,0,0,1,.27,0,1.44,1.44,0,0,1,.19.21A1.57,1.57,0,0,1,97,23a1.69,1.69,0,0,1,.14.48,1.47,1.47,0,0,1,0,.55h.14l.14,0a4.14,4.14,0,0,0,1-.27,9,9,0,0,0,1.46-.7,6.22,6.22,0,0,0,1.42-1,3.66,3.66,0,0,0,.7-.85,1,1,0,0,0,.13-.84,1.47,1.47,0,0,0-.44-.61,2.27,2.27,0,0,0-.69-.36,2.07,2.07,0,0,0-.58-.14l-.49-.05-.5,0a2.16,2.16,0,0,0-.43,0,.47.47,0,0,0-.28.07.69.69,0,0,1-.52.18l-.56-.08a.83.83,0,0,1-.44-.21,1.73,1.73,0,0,1-.27-.35,1.49,1.49,0,0,1-.13-.37,1.8,1.8,0,0,1,0-.27c0-.09,0-.15.16-.17a1.56,1.56,0,0,1,.37,0,3,3,0,0,1,.41.09Z"/><path class="cls-1" d="M112.84,18.35a6.36,6.36,0,0,1,1.61.56,2.11,2.11,0,0,1,.84.76,1.56,1.56,0,0,1,.21.87,1.29,1.29,0,0,1-.35.58,8.05,8.05,0,0,1-.78.74c-.31.26-.63.51-1,.75a7.58,7.58,0,0,1-1,.59,9,9,0,0,1-1.54.65c-.4.13-.71.23-.93.32a3.67,3.67,0,0,1-.46.16l-.38.08a7.24,7.24,0,0,1-1,2.16,11.48,11.48,0,0,1-1.76,2,4.07,4.07,0,0,0,1.28.36,4.56,4.56,0,0,0,1.33,0,5,5,0,0,0,1.29-.39,5.09,5.09,0,0,0,1.17-.73.69.69,0,0,0,.16-.21.88.88,0,0,0,.09-.2l.09-.2a.93.93,0,0,1,.2-.21,2.1,2.1,0,0,1,.67-.4c.18-.05.28,0,.3.17s-.13.4-.43.67a11.1,11.1,0,0,1-1.11.87,5.66,5.66,0,0,1-2.51,1,5.19,5.19,0,0,1-2.87-.45c-.35.31-.77.65-1.26,1a7.87,7.87,0,0,1-1.51.91,4.62,4.62,0,0,1-1.54.42,1.58,1.58,0,0,1-1.27-.42,2.09,2.09,0,0,1-.54-1,3.35,3.35,0,0,1,0-1.42,5.9,5.9,0,0,1,.6-1.7,7.55,7.55,0,0,1,1.35-1.8,10.81,10.81,0,0,1,1.32-1.09,6.51,6.51,0,0,1,1.21-.68,4.06,4.06,0,0,1,2.13-1.75,2.71,2.71,0,0,1,1.18-.15,1.82,1.82,0,0,1,1,.39,1.86,1.86,0,0,1,.59,1,3.32,3.32,0,0,1,0,1.57l.29-.06.28-.07a4.38,4.38,0,0,0,1-.27,9.53,9.53,0,0,0,1.47-.7,5.93,5.93,0,0,0,1.41-1,3.66,3.66,0,0,0,.7-.85,1,1,0,0,0,.13-.84,1.39,1.39,0,0,0-.44-.61,2.74,2.74,0,0,0-1.26-.5l-.5-.05-.5,0a2.13,2.13,0,0,0-.43,0,.5.5,0,0,0-.28.07.67.67,0,0,1-.51.18l-.57-.08a.83.83,0,0,1-.44-.21,1.73,1.73,0,0,1-.27-.35,1.49,1.49,0,0,1-.13-.37,1.8,1.8,0,0,1,0-.27c0-.09,0-.15.16-.17a1.55,1.55,0,0,1,.37,0,2.71,2.71,0,0,1,.41.09l.31.07A14.64,14.64,0,0,1,112.84,18.35ZM102.08,30.62a4,4,0,0,0,1.26-.39,7.93,7.93,0,0,0,1.25-.79,12.32,12.32,0,0,0,1-.86,4,4,0,0,1-.81-.72,4.31,4.31,0,0,1-.59-.91,4,4,0,0,1-.34-1,3.93,3.93,0,0,1-.07-1.08,5.67,5.67,0,0,0-1.1.91,6.48,6.48,0,0,0-.83,1.08,8.09,8.09,0,0,0-.59,1.12,5.38,5.38,0,0,0-.34,1,2.81,2.81,0,0,0-.06.84.75.75,0,0,0,.19.5A1.24,1.24,0,0,0,102.08,30.62Zm5.31-4.35a8.55,8.55,0,0,0,.81-2.1,2.49,2.49,0,0,0,0-1.55,1.39,1.39,0,0,0-.79-.82,1.67,1.67,0,0,0-1.22,0,3.07,3.07,0,0,0-1.32,1,4,4,0,0,1,1.55-.19,3.65,3.65,0,0,1,1.13.29c.14.07.19.14.15.23s-.14.13-.32.13a4.47,4.47,0,0,0-1.5.29,6.88,6.88,0,0,0-1.74,1,3.2,3.2,0,0,0,0,1.07,3.6,3.6,0,0,0,.34,1,4.53,4.53,0,0,0,.61.89,3.71,3.71,0,0,0,.82.71A8.66,8.66,0,0,0,107.39,26.27Zm7.9-11.83a1.8,1.8,0,0,0-.43-.44.27.27,0,0,0-.35,0,.54.54,0,0,0-.29.35,5.17,5.17,0,0,1-.72,1.5,4.22,4.22,0,0,1-1,1.09.15.15,0,0,0-.08.15.36.36,0,0,0,.07.22.49.49,0,0,0,.21.16.56.56,0,0,0,.34,0,2.91,2.91,0,0,0,.48-.22q.33-.18.69-.42a6.14,6.14,0,0,0,.72-.54,3.19,3.19,0,0,0,.55-.57,2.9,2.9,0,0,0,.2-.36.37.37,0,0,0,0-.35A2.93,2.93,0,0,0,115.29,14.44Z"/><path class="cls-1" d="M113.1,26.05a6.85,6.85,0,0,0,.4-.65.76.76,0,0,0,0-.63,1,1,0,0,1,0-.52,1.94,1.94,0,0,1,.22-.49,3.88,3.88,0,0,1,.37-.52c.16-.18.32-.37.48-.58a2.8,2.8,0,0,1,.28-.3.33.33,0,0,1,.28-.08.61.61,0,0,1,.31.25,3.93,3.93,0,0,1,.38.67,1.23,1.23,0,0,1,.12.52.88.88,0,0,1-.09.38,4,4,0,0,1-.26.43l-.44.64-.47.69-.39.57c-.06.11-.17.27-.32.49s-.3.46-.46.72-.31.54-.46.83a5.24,5.24,0,0,0-.37.82,2,2,0,0,0-.15.7.51.51,0,0,0,.19.46.94.94,0,0,0,.58.14,4.46,4.46,0,0,0,.88-.13c.32-.09.68-.2,1.07-.35s.78-.31,1.17-.5a14.55,14.55,0,0,0,2-1.12,12.58,12.58,0,0,0,1.17-.9.6.6,0,0,0,.2-.23.86.86,0,0,0,.07-.21,1,1,0,0,1,.08-.2.53.53,0,0,1,.19-.22,2.82,2.82,0,0,1,.61-.4c.13,0,.21,0,.23.2s-.09.37-.33.62a12.13,12.13,0,0,1-1,.89c-.25.2-.62.48-1.1.82a14.61,14.61,0,0,1-2,1.13c-.42.2-.86.37-1.3.53a11.42,11.42,0,0,1-1.26.37,5.81,5.81,0,0,1-1.09.14,1.64,1.64,0,0,1-.76-.14,1.28,1.28,0,0,1-.58-.62,1.47,1.47,0,0,1,0-.94A6.31,6.31,0,0,1,112,28C112.28,27.42,112.65,26.78,113.1,26.05ZM118,18.56c0,.08.11.18.19.33a2.2,2.2,0,0,1,.23.46,1.74,1.74,0,0,1,.13.51,1.14,1.14,0,0,1-.09.52,1.85,1.85,0,0,1-.81.88.67.67,0,0,1-.8-.31,1.8,1.8,0,0,1-.27-.42.62.62,0,0,1,0-.36,1.23,1.23,0,0,1,.17-.41c.09-.16.22-.35.37-.59a1.25,1.25,0,0,0,.19-.32,1.38,1.38,0,0,1,0-.26.31.31,0,0,1,.28-.23A.44.44,0,0,1,118,18.56Z"/><path class="cls-1" d="M136.23,23.07c.05-.09.1-.17.13-.24a.74.74,0,0,1,.16-.2,1.05,1.05,0,0,1,.26-.16,2.13,2.13,0,0,1,.46-.14c.38-.09.59-.06.62.09s-.07.41-.32.78a8,8,0,0,1-.64.86,7.81,7.81,0,0,1-.69.71,3.59,3.59,0,0,1-.67.47,1,1,0,0,1-.61.14c-.19,0-.26,0-.21-.1s.14-.14.28-.27a5,5,0,0,0,.52-.52,2.72,2.72,0,0,0,.48-.88c0-.17-.07-.34-.34-.5a1.79,1.79,0,0,0-1.11-.17,5.16,5.16,0,0,0-1.92.69,9.9,9.9,0,0,0-2.31,1.85,8.68,8.68,0,0,0-1.3,1.68,5.48,5.48,0,0,0-.62,1.47,2.34,2.34,0,0,0,0,1.12,1,1,0,0,0,.55.66,2.55,2.55,0,0,0,1.24.23,8.32,8.32,0,0,0,1.67-.23c.6-.15,1.24-.35,1.91-.59s1.32-.53,2-.83,1.27-.63,1.86-1,1.11-.67,1.57-1a.86.86,0,0,0,.19-.2l.11-.2.1-.2a.71.71,0,0,1,.21-.22,1.43,1.43,0,0,1,.63-.37.2.2,0,0,1,.27.2c0,.18-.14.4-.44.66a13,13,0,0,1-1.14.85c-.44.3-1,.61-1.55.94s-1.19.64-1.84.95-1.31.58-2,.84a15.82,15.82,0,0,1-2,.62,9.46,9.46,0,0,1-1.8.29A3.63,3.63,0,0,1,128.5,31a2.15,2.15,0,0,1-1.16-.93,2.43,2.43,0,0,1-.28-1.48,4.66,4.66,0,0,1,.6-1.8,8.31,8.31,0,0,1,1.45-1.89,9.54,9.54,0,0,1,1.44-1.2,7.68,7.68,0,0,1,1.41-.78,6.24,6.24,0,0,1,1.34-.42,6.71,6.71,0,0,1,1.22-.12,2.47,2.47,0,0,1,1.09.22A1.57,1.57,0,0,1,136.23,23.07Z"/><path class="cls-1" d="M145.54,30.86A1.07,1.07,0,0,1,145,30a3,3,0,0,1,.21-1.26,8.75,8.75,0,0,1,.72-1.49q.47-.78,1-1.56a3.73,3.73,0,0,0,.63-1.31.69.69,0,0,0-.17-.67.61.61,0,0,0-.52-.1,3.6,3.6,0,0,0-.94.29,10.09,10.09,0,0,0-1.24.65,13.73,13.73,0,0,0-1.46,1c-.51.39-1,.83-1.53,1.31s-1,1-1.46,1.43-.86.93-1.22,1.36a9.51,9.51,0,0,0-.79,1.05c-.11.16-.23.23-.34.22a.47.47,0,0,1-.3-.19,1.47,1.47,0,0,1-.22-.39.57.57,0,0,1,0-.35,2.28,2.28,0,0,1,.24-.57l.55-1,.67-1.18c.24-.41.45-.77.65-1.09l.52-.85c.25-.43.56-.94.93-1.54l1.21-2c.43-.73.88-1.46,1.32-2.19l1.32-2.16,1.14-1.89c.33-.57.61-1,.83-1.4s.35-.58.39-.65l.26-.48a2,2,0,0,0,.18-.4,1.86,1.86,0,0,0,.08-.41,3,3,0,0,0,0-.51,1.32,1.32,0,0,1,.05-.59,2.65,2.65,0,0,1,.27-.6,6.64,6.64,0,0,1,.38-.6l.43-.57c.28-.37.53-.5.75-.38a1.82,1.82,0,0,1,.66.82.76.76,0,0,1,.06.51,1.53,1.53,0,0,1-.16.39l-.33.54-.56.88c-.2.34-.42.69-.65,1.05l-.64,1-1.19,2c-.42.71-.86,1.43-1.3,2.18s-.9,1.5-1.34,2.25l-1.28,2.17-1.14,1.94-.92,1.56L140,27.33l-.23.41c0,.06,0,.09,0,.12s0,0,.1,0,.2-.2.34-.33l.57-.51.89-.73c.35-.29.78-.63,1.28-1s1-.77,1.54-1.15,1.06-.72,1.57-1a7.54,7.54,0,0,1,1.47-.64,2.24,2.24,0,0,1,1.22-.05c.44.13.68.35.73.68a2.1,2.1,0,0,1-.16,1.09,6.75,6.75,0,0,1-.66,1.23c-.28.43-.52.79-.74,1.1s-.57.79-.87,1.19a13,13,0,0,0-.78,1.13,2.94,2.94,0,0,0-.4.95.55.55,0,0,0,.28.64,1,1,0,0,0,.61.14,4,4,0,0,0,.91-.12,10.06,10.06,0,0,0,1.09-.33,11.64,11.64,0,0,0,1.17-.49,15.36,15.36,0,0,0,2-1.12,13,13,0,0,0,1.18-.9.54.54,0,0,0,.18-.23,1.8,1.8,0,0,0,.08-.21c0-.06,0-.13.08-.2a.7.7,0,0,1,.18-.22,2.6,2.6,0,0,1,.62-.4c.13,0,.21,0,.24.2s-.09.37-.33.62a10.94,10.94,0,0,1-1,.89c-.25.2-.61.48-1.09.82A15,15,0,0,1,150,30a12.61,12.61,0,0,1-1.3.53,9.51,9.51,0,0,1-1.3.36,5.85,5.85,0,0,1-1.11.12A1.65,1.65,0,0,1,145.54,30.86Z"/><path class="cls-1" d="M152.84,27a4.16,4.16,0,0,1,.3-.4,5.72,5.72,0,0,0,.32-.48,2.66,2.66,0,0,0,.23-.52,1.56,1.56,0,0,0,.05-.57,1.69,1.69,0,0,1,0-.59,3.17,3.17,0,0,1,.27-.6,6.64,6.64,0,0,1,.38-.6l.43-.57c.28-.37.54-.5.75-.39a1.86,1.86,0,0,1,.66.83.66.66,0,0,1,.06.51,1.35,1.35,0,0,1-.16.39c0,.07-.12.19-.22.38s-.23.4-.38.65l-.47.78-.5.8c-.15.26-.3.5-.43.71s-.23.38-.31.49a4.53,4.53,0,0,0-.69,1.42c-.09.38-.05.64.11.76a.83.83,0,0,0,.43.06,3.38,3.38,0,0,0,.8-.23,10.69,10.69,0,0,0,1.23-.64c.48-.28,1.07-.66,1.74-1.14s1.08-.82,1.57-1.24.93-.83,1.32-1.24a14.37,14.37,0,0,0,1-1.16,7.91,7.91,0,0,0,.7-1c.07-.11.13-.23.21-.37a2.46,2.46,0,0,1,.22-.36.78.78,0,0,1,.24-.24.23.23,0,0,1,.26,0,1.61,1.61,0,0,1,.23.23,1.52,1.52,0,0,1,.23.44,1.75,1.75,0,0,1,.12.57,1.36,1.36,0,0,1-.13.64c-.07.13-.14.29-.22.46a2.49,2.49,0,0,1-.27.51,2.36,2.36,0,0,1-.33.42.65.65,0,0,1-.4.19.48.48,0,0,0-.36.22,4.74,4.74,0,0,0-.37.55l-.31.46-.4.64c-.14.24-.27.48-.4.74a6,6,0,0,0-.3.73,1.82,1.82,0,0,0-.09.62.5.5,0,0,0,.22.4,1.94,1.94,0,0,0,1.37.1,9.31,9.31,0,0,0,2.12-.74,13.54,13.54,0,0,0,2-1.13,12,12,0,0,0,1.19-.89.68.68,0,0,0,.17-.23,1,1,0,0,0,.09-.22,1.8,1.8,0,0,1,.08-.21.77.77,0,0,1,.18-.21,2.19,2.19,0,0,1,.61-.39c.14,0,.22,0,.24.2a.91.91,0,0,1-.31.63,5.4,5.4,0,0,1-1,.87l-1.1.81a13.64,13.64,0,0,1-2,1.15c-.42.19-.85.37-1.31.53a9,9,0,0,1-1.29.36,5.86,5.86,0,0,1-1.12.12,1.62,1.62,0,0,1-.77-.15.78.78,0,0,1-.38-.6,2.47,2.47,0,0,1,.1-1,8,8,0,0,1,.54-1.37,16.44,16.44,0,0,1,.95-1.63c0-.05,0-.09,0-.11s-.07,0-.12,0l-.26.27-.5.45c-.21.18-.48.41-.82.67s-.74.57-1.24.92l-.72.51c-.28.19-.59.4-.92.6s-.68.41-1,.61a10,10,0,0,1-1.05.51,5.49,5.49,0,0,1-1,.3,1.69,1.69,0,0,1-.81,0,.79.79,0,0,1-.56-.4,1.12,1.12,0,0,1-.1-.67,3,3,0,0,1,.22-.82,8.16,8.16,0,0,1,.41-.84,7.55,7.55,0,0,1,.45-.72ZM162,19.48a.35.35,0,0,1,0,.34c-.06.13-.13.25-.19.36a3.64,3.64,0,0,1-.55.58,7.79,7.79,0,0,1-.71.54c-.24.16-.48.3-.7.42a2,2,0,0,1-.49.2.52.52,0,0,1-.33,0,.53.53,0,0,1-.22-.15.36.36,0,0,1-.07-.22.18.18,0,0,1,.08-.16,4.2,4.2,0,0,0,1.06-1.08,5,5,0,0,0,.73-1.49.57.57,0,0,1,.28-.37.26.26,0,0,1,.34,0,2.7,2.7,0,0,1,.44.45A3.51,3.51,0,0,1,162,19.48Z"/><path class="cls-1" d="M173.92,30.86a1,1,0,0,1-.55-.9,3.55,3.55,0,0,1,.27-1.34,11.75,11.75,0,0,1,.8-1.58q.5-.83,1-1.59a3.69,3.69,0,0,0,.64-1.31.68.68,0,0,0-.16-.68.76.76,0,0,0-.57-.07,4,4,0,0,0-.94.29,13.64,13.64,0,0,0-1.25.64q-.7.41-1.5,1c-.54.37-1.08.78-1.61,1.22a20,20,0,0,0-1.53,1.36,17.83,17.83,0,0,0-1.34,1.45,11,11,0,0,0-1,1.42c-.11.16-.22.23-.34.22a.52.52,0,0,1-.31-.19,1.22,1.22,0,0,1-.21-.39.67.67,0,0,1-.05-.35c0-.05.07-.17.16-.36s.21-.4.34-.65.27-.51.44-.79.32-.56.47-.81.28-.49.4-.69l.26-.44a4.52,4.52,0,0,0,.44-.76,1.16,1.16,0,0,0,.07-.75.93.93,0,0,1,0-.52,1.94,1.94,0,0,1,.22-.49,3.15,3.15,0,0,1,.37-.52c.16-.18.31-.37.48-.58a2.8,2.8,0,0,1,.28-.3.3.3,0,0,1,.27-.08.64.64,0,0,1,.3.25,3.35,3.35,0,0,1,.38.67.73.73,0,0,1,.06.52,1.8,1.8,0,0,1-.16.38l-.25.39-.42.65-.52.78-.51.78-.42.66-.23.38c0,.07,0,.11,0,.14s.06,0,.11,0q.31-.32,1.23-1.08c.61-.52,1.39-1.12,2.33-1.81.53-.39,1.08-.77,1.67-1.14a13.81,13.81,0,0,1,1.69-.94,7.34,7.34,0,0,1,1.48-.52,1.41,1.41,0,0,1,1.05.11,1.31,1.31,0,0,1,.65.87,2.11,2.11,0,0,1-.13,1,5.22,5.22,0,0,1-.57,1l-.66.89-.92,1.2c-.32.42-.61.83-.85,1.22a3.47,3.47,0,0,0-.46,1.06.55.55,0,0,0,.25.68,1,1,0,0,0,.61.14,4,4,0,0,0,.91-.12,9.43,9.43,0,0,0,1.09-.33c.39-.14.78-.3,1.18-.49a15.88,15.88,0,0,0,2-1.12,11.73,11.73,0,0,0,1.18-.9.54.54,0,0,0,.18-.23.9.9,0,0,0,.08-.21c0-.06,0-.13.09-.2a.58.58,0,0,1,.18-.22,2.41,2.41,0,0,1,.61-.4c.14,0,.22,0,.24.2s-.09.37-.33.62a12.13,12.13,0,0,1-1,.89c-.25.2-.62.48-1.1.82a14.43,14.43,0,0,1-2,1.13,11.76,11.76,0,0,1-1.3.53,9,9,0,0,1-1.29.36,6,6,0,0,1-1.12.12A1.7,1.7,0,0,1,173.92,30.86Z"/><path class="cls-1" d="M189.11,27c0-.11.06-.18,0-.21s-.09,0-.15.06c-.3.28-.66.6-1.09,1s-.88.71-1.37,1.06-1,.68-1.5,1a9.82,9.82,0,0,1-1.48.75,4.94,4.94,0,0,1-1.31.35,1.3,1.3,0,0,1-1-.21,1.44,1.44,0,0,1-.56-.82,2.28,2.28,0,0,1,0-1.07,4.42,4.42,0,0,1,.47-1.22,8.82,8.82,0,0,1,.83-1.26,11.31,11.31,0,0,1,2.24-2.14A11,11,0,0,1,187,22.84a8.36,8.36,0,0,1,2.55-.51,5.06,5.06,0,0,1,2.11.36A2.85,2.85,0,0,1,193,23.84a.69.69,0,0,1,.15.61.55.55,0,0,1-.34.36.31.31,0,0,1-.41-.1,3.07,3.07,0,0,1-.3-.58,1.89,1.89,0,0,0-.84-.95,2.48,2.48,0,0,0-1.45-.29,6.14,6.14,0,0,0-2,.53A11.34,11.34,0,0,0,185.3,25a14.11,14.11,0,0,0-1.7,1.56,10.94,10.94,0,0,0-1.26,1.6,4.52,4.52,0,0,0-.61,1.37.83.83,0,0,0,.19.87.93.93,0,0,0,.75.11,4.78,4.78,0,0,0,1.12-.38,12,12,0,0,0,1.33-.73q.7-.45,1.38-.93c.45-.32.87-.65,1.25-1s.72-.63,1-.89.69-.73.93-1a8.77,8.77,0,0,0,.55-.72,2.51,2.51,0,0,0,.29-.47,1.92,1.92,0,0,0,.11-.28.78.78,0,0,1,.15-.25.25.25,0,0,1,.18-.05c.07,0,.15.08.25.2a2.33,2.33,0,0,1,.38,1,2.07,2.07,0,0,1-.09,1.06,3.31,3.31,0,0,1-.13.36c-.07.14-.13.28-.21.41a1.78,1.78,0,0,1-.25.33.3.3,0,0,1-.28.11c-.05,0-.15.1-.3.34s-.33.58-.56,1-.5.94-.8,1.53-.63,1.24-1,1.93a26.58,26.58,0,0,0,2.61-.95,19.9,19.9,0,0,0,2-1,15.62,15.62,0,0,0,1.44-.86l.9-.65a.53.53,0,0,0,.21-.29c0-.12.09-.25.13-.38a3.37,3.37,0,0,1,.13-.38.93.93,0,0,1,.2-.3l.38-.3a1.26,1.26,0,0,1,.32-.19.28.28,0,0,1,.24,0,.48.48,0,0,1,.15.29.81.81,0,0,1-.1.36,4.27,4.27,0,0,1-.33.51,5.08,5.08,0,0,1-.51.56,6.2,6.2,0,0,1-.62.53l-.87.61c-.38.26-.88.56-1.48.89s-1.32.66-2.15,1a30.14,30.14,0,0,1-2.91,1c-.58,1.1-1.22,2.28-1.91,3.52s-1.42,2.49-2.19,3.74a28.52,28.52,0,0,1-2.08,2.86,23,23,0,0,1-2.38,2.52,17.76,17.76,0,0,1-2.54,1.95,9.66,9.66,0,0,1-2.51,1.19,5.37,5.37,0,0,1-2.36.21,3.89,3.89,0,0,1-2-1,3.37,3.37,0,0,1-1.11-2.11,5.28,5.28,0,0,1,.36-2.55,9.84,9.84,0,0,1,1.56-2.64A14.1,14.1,0,0,1,173,37.84,25.81,25.81,0,0,1,175.8,36a23.06,23.06,0,0,1,2.92-1.37,31.63,31.63,0,0,1,3.43-1.09c1.25-.34,2.69-.7,4.33-1.08.59-1.15,1.1-2.18,1.52-3.09S188.79,27.66,189.11,27Zm-6.73,12.38c.79-1.22,1.5-2.36,2.14-3.45s1.21-2.1,1.7-3.06c-1.48.35-2.81.69-4,1s-2.3.71-3.31,1.11a22.87,22.87,0,0,0-2.86,1.35,25.27,25.27,0,0,0-2.67,1.74,10.46,10.46,0,0,0-1.4,1.28,12.69,12.69,0,0,0-1.18,1.52,10,10,0,0,0-.86,1.6,5.79,5.79,0,0,0-.44,1.55,3.66,3.66,0,0,0,.05,1.37,1.93,1.93,0,0,0,.65,1,2.94,2.94,0,0,0,1.75.75,5,5,0,0,0,2.07-.32,9.88,9.88,0,0,0,2.23-1.15A19.28,19.28,0,0,0,178.5,44a22.91,22.91,0,0,0,2.09-2.19A25.63,25.63,0,0,0,182.38,39.42Z"/><path class="cls-1" d="M216.74,30.86a1.19,1.19,0,0,1-.63-.75,2,2,0,0,1,.13-1.08,7.34,7.34,0,0,1,.71-1.45l1.13-1.89a4.68,4.68,0,0,0,.62-1.33.65.65,0,0,0-.14-.65.8.8,0,0,0-.58-.13,3.09,3.09,0,0,0-.87.28,7.6,7.6,0,0,0-1.1.66,15.85,15.85,0,0,0-1.26,1c-.44.39-.89.81-1.36,1.25s-.92.88-1.36,1.33-.84.91-1.22,1.36a9.29,9.29,0,0,0-.93,1.28c-.12.19-.24.28-.37.27a.53.53,0,0,1-.32-.2,1.08,1.08,0,0,1-.22-.41.54.54,0,0,1,0-.37c.06-.16.17-.39.31-.67s.3-.6.48-.94.37-.71.56-1.1.37-.74.53-1.09a8,8,0,0,0,.61-1.75c.05-.38,0-.63-.15-.76s-.62-.11-1.29.19a12.69,12.69,0,0,0-2.56,1.73c-.4.31-.83.67-1.3,1.08s-.93.83-1.38,1.28-.88.91-1.27,1.37a10.84,10.84,0,0,0-1,1.37.36.36,0,0,1-.33.22.56.56,0,0,1-.34-.19,1.53,1.53,0,0,1-.25-.39.6.6,0,0,1-.06-.35,1.71,1.71,0,0,1,.15-.34c.1-.18.21-.38.35-.61l.44-.74.46-.75.39-.64.26-.41c.08-.13.14-.25.2-.35a2.22,2.22,0,0,0,.13-.31,1.36,1.36,0,0,0,0-.36,3.29,3.29,0,0,0,0-.49,1.31,1.31,0,0,1,0-.59,2.65,2.65,0,0,1,.27-.6,5.09,5.09,0,0,1,.39-.6l.43-.57c.29-.37.54-.5.76-.39a1.79,1.79,0,0,1,.65.83.66.66,0,0,1,.06.51,1.77,1.77,0,0,1-.15.39,4.46,4.46,0,0,0-.24.4c-.12.19-.25.42-.41.69s-.33.53-.5.82l-.5.82c-.16.25-.3.46-.41.65l-.22.36c0,.06,0,.09,0,.12s.05,0,.08,0c.24-.19.62-.5,1.13-.94l2-1.62c.49-.38,1-.77,1.49-1.15a15.08,15.08,0,0,1,1.47-1,6.36,6.36,0,0,1,1.35-.65,1.94,1.94,0,0,1,1.16-.06.79.79,0,0,1,.58.49,1.54,1.54,0,0,1,.07.84,4.6,4.6,0,0,1-.3,1,9.77,9.77,0,0,1-.49,1.09c-.18.36-.36.69-.55,1l-.44.73c0,.09-.07.16,0,.2s.06,0,.12,0a5.32,5.32,0,0,1,.41-.4l.59-.53c.23-.21.5-.45.81-.71l1.07-.95c.37-.33.8-.69,1.29-1.06a14.68,14.68,0,0,1,1.48-1,7.93,7.93,0,0,1,1.45-.66A2.12,2.12,0,0,1,220,22.4c.43.13.68.34.74.64a1.84,1.84,0,0,1-.13,1,6.36,6.36,0,0,1-.65,1.22c-.28.43-.55.83-.82,1.21L218,28.09a11.17,11.17,0,0,0-.71,1.13,1.73,1.73,0,0,0-.25.74.5.5,0,0,0,.28.45,1,1,0,0,0,.62.14,4,4,0,0,0,.91-.12A10.06,10.06,0,0,0,220,30.1a11.64,11.64,0,0,0,1.17-.49,14.55,14.55,0,0,0,2-1.12,11.73,11.73,0,0,0,1.18-.9.67.67,0,0,0,.19-.23,1.8,1.8,0,0,0,.08-.21l.08-.2a.57.57,0,0,1,.2-.22c.52-.45.8-.52.83-.2,0,.16-.09.37-.33.62a10.62,10.62,0,0,1-1,.89c-.25.2-.62.48-1.1.82a14.82,14.82,0,0,1-2,1.13,13.59,13.59,0,0,1-1.3.53,9.51,9.51,0,0,1-1.3.36,5.86,5.86,0,0,1-1.12.12A1.63,1.63,0,0,1,216.74,30.86Z"/><path class="cls-1" d="M224.9,26.05a6.85,6.85,0,0,0,.4-.65.8.8,0,0,0,0-.63.93.93,0,0,1,0-.52,1.94,1.94,0,0,1,.22-.49,3.15,3.15,0,0,1,.37-.52c.16-.18.31-.37.48-.58a2.8,2.8,0,0,1,.28-.3.32.32,0,0,1,.28-.08.65.65,0,0,1,.31.25,3.41,3.41,0,0,1,.37.67,1.11,1.11,0,0,1,.13.52.88.88,0,0,1-.09.38,4.64,4.64,0,0,1-.27.43l-.43.64-.48.69-.38.57-.32.49c-.15.22-.3.46-.46.72s-.31.54-.47.83a8.11,8.11,0,0,0-.37.82,2.17,2.17,0,0,0-.14.7.49.49,0,0,0,.19.46.94.94,0,0,0,.58.14,4.37,4.37,0,0,0,.87-.13,11.12,11.12,0,0,0,1.08-.35c.39-.15.78-.31,1.17-.5a14.55,14.55,0,0,0,2-1.12,12.58,12.58,0,0,0,1.17-.9.6.6,0,0,0,.2-.23,1.72,1.72,0,0,0,.07-.21c0-.06,0-.13.07-.2a.67.67,0,0,1,.2-.22,2.6,2.6,0,0,1,.61-.4c.13,0,.2,0,.23.2s-.09.37-.33.62a12.13,12.13,0,0,1-1,.89c-.26.2-.62.48-1.1.82a15.91,15.91,0,0,1-2,1.13c-.43.2-.86.37-1.3.53a11,11,0,0,1-1.27.37,5.72,5.72,0,0,1-1.08.14,1.61,1.61,0,0,1-.76-.14,1.23,1.23,0,0,1-.58-.62,1.53,1.53,0,0,1,0-.94,7,7,0,0,1,.52-1.38A21,21,0,0,1,224.9,26.05Zm2.51-7.72A3,3,0,0,1,228,18a2.67,2.67,0,0,1,.58-.2.28.28,0,0,1,.32.14.54.54,0,0,1,.09.43,3.92,3.92,0,0,0-.08.84,7.89,7.89,0,0,0,.05.84,4.8,4.8,0,0,0,.18.79,2.85,2.85,0,0,0,.28.66.19.19,0,0,1,0,.18.36.36,0,0,1-.16.14.42.42,0,0,1-.25.05.46.46,0,0,1-.3-.14,2.41,2.41,0,0,1-.35-.41q-.22-.31-.45-.69c-.14-.26-.27-.52-.39-.8a3.11,3.11,0,0,1-.22-.75,1.79,1.79,0,0,1,0-.41A.36.36,0,0,1,227.41,18.33Z"/><path class="cls-1" d="M238.36,30.86a1,1,0,0,1-.55-.9,3.55,3.55,0,0,1,.27-1.34,11.75,11.75,0,0,1,.8-1.58c.33-.55.68-1.08,1-1.59a3.81,3.81,0,0,0,.63-1.31.68.68,0,0,0-.16-.68.74.74,0,0,0-.56-.07,4,4,0,0,0-.95.29,13.64,13.64,0,0,0-1.25.64q-.7.41-1.5,1c-.54.37-1.07.78-1.61,1.22A20,20,0,0,0,233,27.86a17.83,17.83,0,0,0-1.34,1.45,12,12,0,0,0-1,1.42c-.11.16-.22.23-.34.22a.52.52,0,0,1-.31-.19,1.22,1.22,0,0,1-.21-.39.57.57,0,0,1,0-.35,2.3,2.3,0,0,1,.15-.36c.09-.19.21-.4.34-.65l.44-.79c.16-.29.32-.56.47-.81l.4-.69.26-.44a4.52,4.52,0,0,0,.44-.76,1.1,1.1,0,0,0,.07-.75,1,1,0,0,1,0-.52,1.94,1.94,0,0,1,.22-.49,3.88,3.88,0,0,1,.37-.52c.16-.18.32-.37.48-.58a2.8,2.8,0,0,1,.28-.3.32.32,0,0,1,.27-.08.64.64,0,0,1,.3.25,3.35,3.35,0,0,1,.38.67.68.68,0,0,1,.06.52,1.39,1.39,0,0,1-.16.38l-.24.39-.43.65-.52.78-.51.78-.41.66c-.12.19-.2.32-.23.38s0,.11,0,.14.06,0,.11,0q.31-.32,1.23-1.08c.62-.52,1.39-1.12,2.33-1.81.53-.39,1.08-.77,1.67-1.14a13.81,13.81,0,0,1,1.69-.94,7.34,7.34,0,0,1,1.48-.52,1.41,1.41,0,0,1,1,.11,1.31,1.31,0,0,1,.65.87,2,2,0,0,1-.13,1,5.22,5.22,0,0,1-.57,1l-.66.89-.91,1.2a13.19,13.19,0,0,0-.86,1.22,3.47,3.47,0,0,0-.46,1.06.56.56,0,0,0,.25.68,1,1,0,0,0,.62.14,4.07,4.07,0,0,0,.91-.12,10.78,10.78,0,0,0,1.09-.33c.38-.14.77-.3,1.17-.49a15.19,15.19,0,0,0,2-1.12,11.73,11.73,0,0,0,1.18-.9.54.54,0,0,0,.18-.23,1.89,1.89,0,0,0,.09-.21,1,1,0,0,1,.08-.2.58.58,0,0,1,.18-.22,2.6,2.6,0,0,1,.61-.4c.14,0,.22,0,.24.2s-.09.37-.33.62a12.13,12.13,0,0,1-1,.89c-.25.2-.62.48-1.1.82a14.82,14.82,0,0,1-2,1.13,12.79,12.79,0,0,1-1.31.53,9,9,0,0,1-1.29.36,5.86,5.86,0,0,1-1.12.12A1.7,1.7,0,0,1,238.36,30.86Z"/><path class="cls-1" d="M252.17,30.86a1,1,0,0,1-.57-.86,2.85,2.85,0,0,1,.2-1.26,8.75,8.75,0,0,1,.72-1.49c.31-.52.65-1,1-1.56a3.66,3.66,0,0,0,.62-1.31.69.69,0,0,0-.17-.67.6.6,0,0,0-.52-.1,3.55,3.55,0,0,0-.93.29,9.48,9.48,0,0,0-1.25.65,13.73,13.73,0,0,0-1.46,1c-.5.39-1,.83-1.53,1.31s-1,1-1.46,1.43-.86.93-1.22,1.36a9.51,9.51,0,0,0-.79,1.05c-.11.16-.22.23-.34.22a.5.5,0,0,1-.3-.19,1.22,1.22,0,0,1-.21-.39.52.52,0,0,1-.05-.35,2.28,2.28,0,0,1,.24-.57c.16-.28.34-.62.55-1l.67-1.18c.24-.41.45-.77.65-1.09l.52-.85c.25-.43.57-.94.93-1.54l1.21-2c.43-.73.88-1.46,1.33-2.19s.88-1.46,1.31-2.16l1.14-1.89c.33-.57.61-1,.83-1.4a7.56,7.56,0,0,0,.39-.65l.26-.48a2,2,0,0,0,.18-.4,1.42,1.42,0,0,0,.08-.41,3,3,0,0,0,0-.51,1.69,1.69,0,0,1,.05-.59,3.17,3.17,0,0,1,.27-.6,6.64,6.64,0,0,1,.38-.6l.43-.57c.28-.37.53-.5.75-.38a1.82,1.82,0,0,1,.66.82.66.66,0,0,1,.06.51,1.23,1.23,0,0,1-.16.39q-.08.15-.33.54c-.16.25-.35.55-.55.88l-.66,1.05-.64,1-1.19,2L252,18.35c-.45.75-.9,1.5-1.34,2.25l-1.28,2.17-1.14,1.94c-.35.6-.65,1.12-.92,1.56l-.62,1.06-.23.41c0,.06,0,.09,0,.12s0,0,.1,0,.2-.2.34-.33l.58-.51c.24-.2.53-.45.88-.73s.78-.63,1.28-1,1-.77,1.54-1.15a18,18,0,0,1,1.58-1,7.23,7.23,0,0,1,1.46-.64,2.24,2.24,0,0,1,1.22-.05c.44.13.69.35.73.68a2.1,2.1,0,0,1-.16,1.09,6.75,6.75,0,0,1-.66,1.23c-.27.43-.52.79-.74,1.1s-.56.79-.87,1.19a13,13,0,0,0-.78,1.13,2.94,2.94,0,0,0-.4.95.55.55,0,0,0,.28.64,1,1,0,0,0,.61.14,4,4,0,0,0,.91-.12,10.06,10.06,0,0,0,1.09-.33c.39-.14.78-.3,1.18-.49a15.88,15.88,0,0,0,2-1.12,11.73,11.73,0,0,0,1.18-.9.54.54,0,0,0,.18-.23,1.8,1.8,0,0,0,.08-.21c0-.06.05-.13.08-.2a.87.87,0,0,1,.18-.22,2.6,2.6,0,0,1,.62-.4c.14,0,.22,0,.24.2s-.09.37-.33.62a12.13,12.13,0,0,1-1,.89c-.26.2-.62.48-1.1.82a14.43,14.43,0,0,1-2,1.13,12.61,12.61,0,0,1-1.3.53,9.4,9.4,0,0,1-1.29.36A6,6,0,0,1,253,31,1.7,1.7,0,0,1,252.17,30.86Z"/></g></g></svg>