<svg xmlns="http://www.w3.org/2000/svg" viewBox="0 0 428.31 41.02"><defs><style>.cls-1{fill:#6b6b6b;}</style></defs><title>Asset 11</title><g id="Layer_2" data-name="Layer 2"><g id="BAO"><path class="cls-1" d="M27.4,16.37a4.83,4.83,0,0,1,.77,2.21,6.69,6.69,0,0,1-.44,2.88A9.53,9.53,0,0,1,26.32,24a14.48,14.48,0,0,1-2.14,2.23,18.38,18.38,0,0,1-2.66,1.88,24.3,24.3,0,0,1-3,1.5,26.39,26.39,0,0,1-3.1,1.06,19,19,0,0,1-3,.58,14.5,14.5,0,0,1-2.69.07,7.34,7.34,0,0,1-2.2-.5,3.7,3.7,0,0,1-1.91-1.46,2.63,2.63,0,0,1-.25-1.89A5.47,5.47,0,0,1,6.5,25.34,14.44,14.44,0,0,1,8.59,23.2a23.83,23.83,0,0,1,2.76-2,26.31,26.31,0,0,1,3.1-1.64,54.2,54.2,0,0,1,5.64-2.14,38.88,38.88,0,0,1,5.07-1.25,7.77,7.77,0,0,0-2.07-1.5,14,14,0,0,0-2.57-1,16.57,16.57,0,0,0-2.71-.57A15,15,0,0,0,15.37,13a1.3,1.3,0,0,1-.84-.13.3.3,0,0,1-.09-.37,1.18,1.18,0,0,1,.33-.45l.44-.37a1.77,1.77,0,0,1,.54-.19c.23-.05.51-.09.83-.13l1.06-.11c.39,0,.81-.08,1.26-.14a23.61,23.61,0,0,0,2.49-.52A25.18,25.18,0,0,0,24,9.73a23.16,23.16,0,0,0,2.47-1.15,13.67,13.67,0,0,0,2.14-1.41,8,8,0,0,0,1.57-1.62A4.28,4.28,0,0,0,31,3.76a2.28,2.28,0,0,0,0-.9A1.82,1.82,0,0,0,30.44,2a3.7,3.7,0,0,0-1.08-.73A8,8,0,0,0,27.57.74,19,19,0,0,0,25,.45c-1-.06-2.22,0-3.6,0s-2.64.18-3.92.35-2.51.38-3.67.61-2.25.49-3.26.76-1.9.54-2.68.8-1.43.52-1.95.75A5.57,5.57,0,0,0,4.8,4.3a3.94,3.94,0,0,0-.59.62,4.41,4.41,0,0,1-.36.49,2.18,2.18,0,0,1-.52.46,5.67,5.67,0,0,1-1.07.48c-.49.18-.9.33-1.24.44a1.93,1.93,0,0,1-.75.14C.09,6.91,0,6.8,0,6.6a3.15,3.15,0,0,1,.24-1,1.78,1.78,0,0,1,.49-.75,2.89,2.89,0,0,1,.72-.47c.17-.08.52-.24,1-.45s1.17-.48,2-.77,1.79-.6,2.92-.94,2.4-.64,3.81-.94,3-.55,4.66-.78S19.37.14,21.32.05a43.1,43.1,0,0,1,5.61.08,13.09,13.09,0,0,1,3.51.75,3.26,3.26,0,0,1,1.74,1.33,2.85,2.85,0,0,1,.31,1.84,5.23,5.23,0,0,1-1.13,2.46A10.55,10.55,0,0,1,28.7,8.86a19.89,19.89,0,0,1-4.08,2,28.05,28.05,0,0,1-5.41,1.3c-.11,0-.17.05-.17.09s.06.07.17.09c.57.07,1.22.18,1.94.34a13.81,13.81,0,0,1,2.16.68,11.15,11.15,0,0,1,2.08,1.09,7.31,7.31,0,0,1,1.7,1.52l.79-.13.79-.07.71,0,.55,0c.53,0,.95.07,1.25.11a.74.74,0,0,1,.58.28q.12.18-.12.3a1.74,1.74,0,0,1-.74.12.67.67,0,0,1-.27,0l-.18-.1a.86.86,0,0,0-.19-.11,1.41,1.41,0,0,0-.3-.08l-.51,0c-.2,0-.42,0-.65,0l-.71.07C27.85,16.29,27.62,16.33,27.4,16.37ZM21.77,1.49A1.34,1.34,0,0,1,22,2.3a2.21,2.21,0,0,1-.47,1.11,4.8,4.8,0,0,1-.54.67,5.46,5.46,0,0,1-.64.56,4.39,4.39,0,0,1-.61.39,1.19,1.19,0,0,1-.52.15,2.33,2.33,0,0,0-1.3.55,11.82,11.82,0,0,0-1.68,1.5c-.6.65-1.26,1.4-2,2.26s-1.41,1.81-2.15,2.81a34.14,34.14,0,0,0-2,3.09c-.64,1.09-1.22,2.17-1.75,3.24s-1,2.09-1.44,3.08-.78,1.87-1.07,2.63c-.09.21-.21.31-.38.29A.76.76,0,0,1,5,24.34a1.47,1.47,0,0,1-.35-.64,1.17,1.17,0,0,1,0-.8c.29-.69.67-1.46,1.13-2.31s1-1.74,1.55-2.68S8.6,16,9.28,15s1.4-2,2.15-3,1.62-2.1,2.47-3.13,1.66-2,2.47-2.88,1.57-1.71,2.3-2.45,1.39-1.34,2-1.82l.29-.21a1.71,1.71,0,0,1,.29-.16.74.74,0,0,1,.29,0A.4.4,0,0,1,21.77,1.49ZM14.63,20a26,26,0,0,0-3,1.67A22.86,22.86,0,0,0,9,23.56a12.5,12.5,0,0,0-1.86,2,5.09,5.09,0,0,0-1,1.89,2.33,2.33,0,0,0,.2,1.65A3.07,3.07,0,0,0,8,30.32a5.47,5.47,0,0,0,2,.41,11.32,11.32,0,0,0,2.47-.19,18.11,18.11,0,0,0,2.72-.73A23.44,23.44,0,0,0,18,28.63a26.5,26.5,0,0,0,2.68-1.54,19.14,19.14,0,0,0,2.38-1.82,14.29,14.29,0,0,0,1.89-2,8.36,8.36,0,0,0,1.21-2.16,4.24,4.24,0,0,0-.68-4.47,36.75,36.75,0,0,0-5.24,1.21A44,44,0,0,0,14.63,20Z"/><path class="cls-1" d="M37.16,24.15a1.27,1.27,0,0,1-.51-.49,1.17,1.17,0,0,1-.11-.71,3.85,3.85,0,0,1,.28-1c.16-.4.38-.87.66-1.42,0-.07,0-.13,0-.16s-.1,0-.16,0c-.26.27-.58.58-1,.92s-.8.69-1.24,1a13.08,13.08,0,0,1-1.38,1,8.89,8.89,0,0,1-1.4.72,4.37,4.37,0,0,1-1.28.32,1.58,1.58,0,0,1-1-.26,1.33,1.33,0,0,1-.54-.78,2.1,2.1,0,0,1,0-1,4.46,4.46,0,0,1,.44-1.17,8.6,8.6,0,0,1,.76-1.2,10.44,10.44,0,0,1,1-1.12,11.55,11.55,0,0,1,1.11-.94,10.84,10.84,0,0,1,2.64-1.39A8.12,8.12,0,0,1,37.92,16a4.49,4.49,0,0,1,2.06.39,2.6,2.6,0,0,1,1.31,1.26.64.64,0,0,1,0,.42.44.44,0,0,1-.29.34.27.27,0,0,1-.39-.09,2.54,2.54,0,0,1-.28-.55,1.79,1.79,0,0,0-.8-.9,2.45,2.45,0,0,0-1.4-.29,6.2,6.2,0,0,0-1.91.51,11.17,11.17,0,0,0-2.36,1.46A12.37,12.37,0,0,0,32.26,20a10.44,10.44,0,0,0-1.19,1.52,4.56,4.56,0,0,0-.59,1.31.78.78,0,0,0,.18.82.91.91,0,0,0,.73.17,3.7,3.7,0,0,0,1-.31,9,9,0,0,0,1.21-.64c.43-.27.85-.56,1.26-.86s.81-.63,1.18-1a12.7,12.7,0,0,0,1-.93,12.06,12.06,0,0,0,.87-1c.22-.29.39-.53.52-.73a4.78,4.78,0,0,0,.33-.6.89.89,0,0,1,.23-.29.54.54,0,0,1,.24-.09.33.33,0,0,1,.26.16,3,3,0,0,1,.42.83,1.42,1.42,0,0,1,0,.91c0,.1-.07.23-.13.38s-.12.3-.19.44a1.66,1.66,0,0,1-.26.36.49.49,0,0,1-.31.16.5.5,0,0,0-.34.21,3.15,3.15,0,0,0-.38.54,7.38,7.38,0,0,0-.35.69,4.76,4.76,0,0,0-.25.72,2.08,2.08,0,0,0-.1.6.37.37,0,0,0,.14.34,1,1,0,0,0,.59.13,4.48,4.48,0,0,0,.87-.13,7.45,7.45,0,0,0,1-.32c.37-.14.75-.3,1.12-.48a15.83,15.83,0,0,0,1.89-1.05A10.6,10.6,0,0,0,44.37,21a.65.65,0,0,0,.17-.22c0-.07.06-.14.08-.2a.84.84,0,0,1,.08-.2.56.56,0,0,1,.18-.21c.5-.43.77-.49.8-.19s-.09.35-.32.57-.55.51-.93.84a11.6,11.6,0,0,1-1.06.79,15.31,15.31,0,0,1-2,1.07,11.31,11.31,0,0,1-1.23.51,9.67,9.67,0,0,1-1.23.35,5.36,5.36,0,0,1-1.05.13A1.56,1.56,0,0,1,37.16,24.15Zm-6,2.22a1.21,1.21,0,0,1,.47.18,1.42,1.42,0,0,1,.32.33,1,1,0,0,1,.15.4.9.9,0,0,1,0,.4,1.75,1.75,0,0,1-.68.95.86.86,0,0,1-.93-.08,1.05,1.05,0,0,1-.39-.32.29.29,0,0,1,0-.29,1.48,1.48,0,0,1,.23-.38,2.91,2.91,0,0,0,.36-.55.4.4,0,0,0,0-.24.75.75,0,0,1,0-.22.21.21,0,0,1,.12-.16A.56.56,0,0,1,31.18,26.37Z"/><path class="cls-1" d="M51,24.15a1,1,0,0,1-.52-.85A3,3,0,0,1,50.76,22a9.63,9.63,0,0,1,.76-1.5c.31-.53.64-1,1-1.53a3.51,3.51,0,0,0,.61-1.24A.68.68,0,0,0,53,17.1a.8.8,0,0,0-.54-.07,3.9,3.9,0,0,0-.9.28,12.44,12.44,0,0,0-1.2.61c-.44.26-.92.56-1.43.92s-1,.74-1.53,1.15-1,.85-1.46,1.31a17.77,17.77,0,0,0-1.27,1.37,12.76,12.76,0,0,0-1,1.35c-.1.16-.21.23-.32.21a.4.4,0,0,1-.29-.18,1.07,1.07,0,0,1-.21-.36.73.73,0,0,1,0-.34,2,2,0,0,1,.15-.34l.32-.62.42-.76.45-.77.38-.66.25-.41a4.16,4.16,0,0,0,.42-.73,1,1,0,0,0,.07-.71.86.86,0,0,1,0-.5,2.07,2.07,0,0,1,.2-.47,6,6,0,0,1,.36-.49l.46-.55a2.62,2.62,0,0,1,.26-.29.29.29,0,0,1,.26-.07.62.62,0,0,1,.29.23,4.55,4.55,0,0,1,.36.64.65.65,0,0,1,.05.49,1,1,0,0,1-.15.37l-.23.37c-.11.18-.25.39-.41.62s-.32.49-.49.75l-.48.74-.4.62c-.12.19-.19.31-.22.37s0,.11,0,.13.06,0,.11,0c.2-.19.59-.54,1.18-1s1.32-1.06,2.21-1.72c.5-.37,1-.74,1.59-1.09a14.66,14.66,0,0,1,1.61-.89,6.81,6.81,0,0,1,1.41-.49,1.29,1.29,0,0,1,1,.1,1.22,1.22,0,0,1,.62.83,1.8,1.8,0,0,1-.12,1,4.47,4.47,0,0,1-.54,1l-.63.85-.87,1.14a12,12,0,0,0-.82,1.16,3.69,3.69,0,0,0-.44,1,.55.55,0,0,0,.24.66,1,1,0,0,0,.59.13,4.2,4.2,0,0,0,.86-.12,7.05,7.05,0,0,0,1-.31A10.67,10.67,0,0,0,55.21,23a13.4,13.4,0,0,0,1.89-1.07A11.89,11.89,0,0,0,58.23,21a.65.65,0,0,0,.17-.22c0-.07.06-.14.08-.2a1.59,1.59,0,0,1,.07-.2.67.67,0,0,1,.18-.21,2.06,2.06,0,0,1,.58-.37c.13,0,.21,0,.23.18s-.08.36-.31.6a11.17,11.17,0,0,1-.94.84q-.36.3-1,.78a12.25,12.25,0,0,1-1.94,1.08,11.49,11.49,0,0,1-1.24.51,9.55,9.55,0,0,1-1.23.34,5.37,5.37,0,0,1-1.06.12A1.7,1.7,0,0,1,51,24.15Z"/><path class="cls-1" d="M73,24.15a1,1,0,0,1-.52-.85A3.18,3.18,0,0,1,72.77,22a9.63,9.63,0,0,1,.76-1.5c.32-.53.64-1,1-1.53a3.91,3.91,0,0,0,.61-1.24A.65.65,0,0,0,75,17.1a.78.78,0,0,0-.54-.07,4.22,4.22,0,0,0-.9.28,12.38,12.38,0,0,0-1.19.61c-.44.26-.92.56-1.43.92s-1,.74-1.53,1.15-1,.85-1.46,1.31a18,18,0,0,0-1.28,1.37,14.14,14.14,0,0,0-1,1.35c-.1.16-.21.23-.32.21a.44.44,0,0,1-.3-.18,1,1,0,0,1-.2-.36.62.62,0,0,1,0-.34,2,2,0,0,1,.15-.34c.09-.18.19-.38.32-.62s.26-.49.42-.76.3-.53.45-.77l.38-.66.25-.41a4.83,4.83,0,0,0,.41-.73,1,1,0,0,0,.07-.71.85.85,0,0,1,0-.5,2.07,2.07,0,0,1,.2-.47,3.37,3.37,0,0,1,.36-.49l.45-.55a2.62,2.62,0,0,1,.27-.29.29.29,0,0,1,.26-.07.6.6,0,0,1,.28.23,3.15,3.15,0,0,1,.36.64.61.61,0,0,1,.06.49,1.54,1.54,0,0,1-.15.37l-.23.37c-.12.18-.25.39-.41.62l-.49.75c-.17.26-.34.5-.49.74l-.4.62-.21.37c0,.06,0,.11,0,.13s.06,0,.11,0,.59-.54,1.17-1,1.32-1.06,2.22-1.72c.5-.37,1-.74,1.59-1.09a13.8,13.8,0,0,1,1.61-.89,6.43,6.43,0,0,1,1.41-.49,1.29,1.29,0,0,1,1,.1,1.25,1.25,0,0,1,.62.83,1.92,1.92,0,0,1-.13,1,4.47,4.47,0,0,1-.54,1c-.23.31-.43.6-.62.85l-.88,1.14a13.77,13.77,0,0,0-.81,1.16,3.16,3.16,0,0,0-.44,1,.55.55,0,0,0,.24.66,1,1,0,0,0,.58.13,4.2,4.2,0,0,0,.87-.12,7.43,7.43,0,0,0,1-.31A11.65,11.65,0,0,0,77.23,23a13.4,13.4,0,0,0,1.89-1.07A11.47,11.47,0,0,0,80.24,21a.55.55,0,0,0,.17-.22,1,1,0,0,0,.08-.2,1.67,1.67,0,0,1,.08-.2.63.63,0,0,1,.17-.21,2.07,2.07,0,0,1,.59-.37c.13,0,.2,0,.22.18s-.08.36-.31.6a9.78,9.78,0,0,1-.94.84c-.24.2-.58.46-1,.78a12.73,12.73,0,0,1-1.94,1.08,12.39,12.39,0,0,1-1.24.51,9.68,9.68,0,0,1-1.24.34,5.29,5.29,0,0,1-1.06.12A1.65,1.65,0,0,1,73,24.15Z"/><path class="cls-1" d="M86.2,24.15a1,1,0,0,1-.55-.81,2.9,2.9,0,0,1,.19-1.21,9.15,9.15,0,0,1,.69-1.42c.3-.5.61-1,1-1.48A3.41,3.41,0,0,0,88.07,18a.67.67,0,0,0-.16-.64.57.57,0,0,0-.5-.1,3.66,3.66,0,0,0-.89.28,9.81,9.81,0,0,0-1.18.62,12.84,12.84,0,0,0-1.39,1c-.48.37-1,.79-1.46,1.25s-.95.91-1.39,1.36-.82.89-1.16,1.29a11.6,11.6,0,0,0-.76,1c-.1.16-.21.23-.32.21a.4.4,0,0,1-.29-.18,1.25,1.25,0,0,1-.2-.36.64.64,0,0,1-.05-.34,2.54,2.54,0,0,1,.23-.54l.53-.95c.2-.36.42-.73.64-1.13s.43-.73.62-1l.49-.82.89-1.47,1.15-1.89,1.26-2.08c.43-.71.85-1.39,1.25-2.06s.77-1.26,1.09-1.8.58-1,.8-1.33.33-.55.36-.62.18-.33.25-.46a1.78,1.78,0,0,0,.17-.38,1.36,1.36,0,0,0,.08-.39,2.75,2.75,0,0,0,0-.49,1.35,1.35,0,0,1,0-.56,2.83,2.83,0,0,1,.25-.57,6.12,6.12,0,0,1,.37-.57c.13-.19.27-.37.41-.55.27-.35.51-.47.71-.36a1.74,1.74,0,0,1,.63.79.62.62,0,0,1,0,.48,1.46,1.46,0,0,1-.14.38c-.06.09-.16.26-.32.5l-.53.85L89,7.3c-.22.35-.43.67-.61,1l-1.14,1.89L86,12.23l-1.27,2.15L83.5,16.44l-1.09,1.85-.87,1.49c-.25.42-.45.76-.59,1a4.08,4.08,0,0,0-.22.39c0,.05,0,.09,0,.11s0,0,.09,0l.33-.31.54-.48.85-.71,1.22-1c.47-.36,1-.72,1.47-1.09s1-.68,1.5-1a6.34,6.34,0,0,1,1.39-.61,2.06,2.06,0,0,1,1.17-.05c.41.12.65.34.69.64a2,2,0,0,1-.15,1A5.91,5.91,0,0,1,89.17,19c-.26.4-.5.75-.71,1s-.54.76-.83,1.14-.54.75-.74,1.08a2.9,2.9,0,0,0-.38.91.53.53,0,0,0,.26.61,1,1,0,0,0,.59.13,4.39,4.39,0,0,0,.87-.12,7.43,7.43,0,0,0,1-.31A10.53,10.53,0,0,0,90.38,23a13.4,13.4,0,0,0,1.89-1.07A11.89,11.89,0,0,0,93.4,21a.65.65,0,0,0,.17-.22l.08-.2a1.67,1.67,0,0,1,.08-.2.52.52,0,0,1,.17-.21,2.06,2.06,0,0,1,.58-.37c.13,0,.21,0,.23.18s-.08.36-.31.6a9.78,9.78,0,0,1-.94.84q-.36.3-1,.78a12.08,12.08,0,0,1-1.93,1.08,11.66,11.66,0,0,1-1.25.51,9.55,9.55,0,0,1-1.23.34,5.29,5.29,0,0,1-1.06.12A1.62,1.62,0,0,1,86.2,24.15Z"/><path class="cls-1" d="M106.16,12.23a5.59,5.59,0,0,1,1.54.54,2,2,0,0,1,.8.72,1.48,1.48,0,0,1,.2.83,1.4,1.4,0,0,1-.34.55,7.31,7.31,0,0,1-.74.71c-.29.24-.6.48-.93.71a7.58,7.58,0,0,1-.92.56,9.71,9.71,0,0,1-1.47.63c-.38.11-.68.21-.89.29a2.12,2.12,0,0,1-.43.16l-.36.08a6.8,6.8,0,0,1-1,2A11.21,11.21,0,0,1,100,22a4.24,4.24,0,0,0,1.22.33,4.5,4.5,0,0,0,1.27,0,5,5,0,0,0,1.22-.37,5.4,5.4,0,0,0,1.12-.7A1.27,1.27,0,0,0,105,21c0-.07.06-.13.08-.19l.09-.19a.63.63,0,0,1,.18-.2A1.84,1.84,0,0,1,106,20c.16-.05.26,0,.28.16s-.13.38-.41.63a10.92,10.92,0,0,1-1.06.84,5.4,5.4,0,0,1-2.39,1,5,5,0,0,1-2.74-.43c-.33.3-.73.62-1.19,1A7.47,7.47,0,0,1,97,24a4.35,4.35,0,0,1-1.46.41A1.48,1.48,0,0,1,94.32,24a1.94,1.94,0,0,1-.52-.94,3.41,3.41,0,0,1,0-1.36,6,6,0,0,1,.57-1.62,7.64,7.64,0,0,1,1.29-1.72,11.88,11.88,0,0,1,1.26-1A6.4,6.4,0,0,1,98,16.7a3.71,3.71,0,0,1,.91-1,3.77,3.77,0,0,1,1.12-.62,2.63,2.63,0,0,1,1.13-.14,1.68,1.68,0,0,1,.93.38,1.82,1.82,0,0,1,.57.92,3.27,3.27,0,0,1,0,1.49l.28-.05a1.38,1.38,0,0,0,.27-.08,4.24,4.24,0,0,0,1-.25,8.3,8.3,0,0,0,1.4-.67,5.83,5.83,0,0,0,1.35-.95,3.12,3.12,0,0,0,.66-.81,1,1,0,0,0,.13-.8,1.36,1.36,0,0,0-.43-.58,2.22,2.22,0,0,0-.64-.35,2.37,2.37,0,0,0-.56-.13l-.47,0-.47-.05a3,3,0,0,0-.42,0,.43.43,0,0,0-.26.07.71.71,0,0,1-.5.17l-.53-.08a.83.83,0,0,1-.42-.2,1.62,1.62,0,0,1-.26-.34,1.21,1.21,0,0,1-.12-.35,1.61,1.61,0,0,1,0-.25.15.15,0,0,1,.15-.16,1.08,1.08,0,0,1,.36,0l.39.09.28.07A13.55,13.55,0,0,1,106.16,12.23ZM95.91,23.92a3.6,3.6,0,0,0,1.2-.37,7.9,7.9,0,0,0,1.19-.75c.38-.3.7-.57,1-.82a3.89,3.89,0,0,1-.78-.68,4.45,4.45,0,0,1-.56-.87,4.19,4.19,0,0,1-.33-1,4.55,4.55,0,0,1-.07-1,5.79,5.79,0,0,0-1,.87,6.89,6.89,0,0,0-.79,1,7.35,7.35,0,0,0-.56,1.07,4.71,4.71,0,0,0-.33,1,2.9,2.9,0,0,0-.06.8.71.71,0,0,0,.19.47A1.16,1.16,0,0,0,95.91,23.92ZM101,19.78a8.2,8.2,0,0,0,.77-2,2.4,2.4,0,0,0,0-1.47,1.36,1.36,0,0,0-.76-.78,1.69,1.69,0,0,0-1.17,0,3,3,0,0,0-1.25,1,3.56,3.56,0,0,1,2.55.09c.14.07.19.14.15.22s-.14.13-.31.13a4.33,4.33,0,0,0-1.43.27,6.59,6.59,0,0,0-1.66.95,3.49,3.49,0,0,0,0,1,3.37,3.37,0,0,0,.33,1,4.12,4.12,0,0,0,.58.85,3.84,3.84,0,0,0,.78.67A8.31,8.31,0,0,0,101,19.78ZM108.5,8.5a2,2,0,0,0-.41-.41.28.28,0,0,0-.34,0,.55.55,0,0,0-.27.34,5.1,5.1,0,0,1-.69,1.43,4,4,0,0,1-1,1,.16.16,0,0,0-.08.15.35.35,0,0,0,.07.2.53.53,0,0,0,.2.16.58.58,0,0,0,.32,0,2.66,2.66,0,0,0,.47-.21,7.22,7.22,0,0,0,.65-.4,5.58,5.58,0,0,0,.69-.51,2.9,2.9,0,0,0,.52-.55,1.69,1.69,0,0,0,.19-.33.38.38,0,0,0,0-.34A3.21,3.21,0,0,0,108.5,8.5Z"/><path class="cls-1" d="M124.62,8.76c-.06,0-.08,0-.08,0s0,.08.14.15a.49.49,0,0,1,.23.22.85.85,0,0,1,0,.26.53.53,0,0,1-.06.24c0,.08-.13.06-.25-.05a.84.84,0,0,0-.26-.21,3.64,3.64,0,0,0-.39-.23l-.43-.2a1.8,1.8,0,0,0-.36-.13,1,1,0,0,1-.51-.32,3.9,3.9,0,0,1-.4-.51c0-.1,0-.15.11-.15.29,0,.61,0,1,.1l1.17.15,1.3.14c.45,0,.89.07,1.33.08a2.38,2.38,0,0,0,.39,0H128l.42-.74c.09-.16.17-.31.23-.44a1.53,1.53,0,0,0,.14-.39,2.76,2.76,0,0,0,.06-.4,3,3,0,0,0,0-.49,1.36,1.36,0,0,1,.06-.56,2.83,2.83,0,0,1,.25-.57,6.12,6.12,0,0,1,.37-.57l.42-.55q.4-.53.72-.36a1.74,1.74,0,0,1,.62.79.54.54,0,0,1,.06.25,1,1,0,0,1,0,.24,1.05,1.05,0,0,1-.06.21l-.07.16-.32.5c-.15.25-.32.53-.52.84l-.6,1-.58,1-.06.1c.54,0,1.06,0,1.55-.06A7.62,7.62,0,0,0,132,8.09c.21-.08.25,0,.12.31s-.08.24-.15.27a.46.46,0,0,1-.16.06c-.41.06-.86.11-1.37.15s-1.08.07-1.71.07c-.83,1.42-1.74,2.89-2.72,4.39s-1.94,3-2.87,4.64c-.59,1-1.05,1.83-1.4,2.52a15.15,15.15,0,0,0-.76,1.72,3.19,3.19,0,0,0-.21,1,.54.54,0,0,0,.24.47,1.19,1.19,0,0,0,.61.11,4.3,4.3,0,0,0,.87-.11,10.9,10.9,0,0,0,1-.31,10.72,10.72,0,0,0,1.13-.46,13.4,13.4,0,0,0,1.89-1.07,10,10,0,0,0,1.11-.85.62.62,0,0,0,.19-.22c0-.07,0-.14.08-.2a1.59,1.59,0,0,1,.07-.2.56.56,0,0,1,.18-.21,2.21,2.21,0,0,1,.57-.37c.13,0,.2,0,.22.18a.84.84,0,0,1-.3.6,10.83,10.83,0,0,1-.93.84q-.36.3-1.05.78a12.25,12.25,0,0,1-1.94,1.08,9.73,9.73,0,0,1-1.24.5,9.55,9.55,0,0,1-1.23.34,6.25,6.25,0,0,1-1.07.12,1.56,1.56,0,0,1-.74-.13,1.2,1.2,0,0,1-.6-.64,1.81,1.81,0,0,1-.06-.94,5,5,0,0,1,.36-1.15,13.94,13.94,0,0,1,.65-1.27s0,0,0,0a.06.06,0,0,0-.07,0c-.3.3-.65.64-1,1s-.83.73-1.27,1.09-.91.69-1.37,1a8.17,8.17,0,0,1-1.34.73,3.36,3.36,0,0,1-1.18.3,1.15,1.15,0,0,1-.9-.32,1.8,1.8,0,0,1-.58-1.32,3.82,3.82,0,0,1,.33-1.64,7,7,0,0,1,1-1.7,9.52,9.52,0,0,1,1.44-1.53,8.48,8.48,0,0,1,1.64-1.11,6.5,6.5,0,0,1,1.47-.57,3.8,3.8,0,0,1,1.27-.11,3.84,3.84,0,0,1,1,.21,2.62,2.62,0,0,1,.74.43,1.65,1.65,0,0,1,.42.54c.42-.69.84-1.37,1.25-2l1.27-2,1.31-2c.45-.69.91-1.42,1.38-2.2h-.22q-.6,0-1-.06l-.75-.06-.57-.05ZM114.18,23.6a.85.85,0,0,0,.78.17,4.07,4.07,0,0,0,1.1-.43,10.24,10.24,0,0,0,1.26-.79c.44-.32.86-.65,1.26-1s.76-.65,1.08-1l.77-.74c.16-.17.32-.36.5-.57s.35-.43.51-.65l.44-.63a4.37,4.37,0,0,0,.3-.5,1.38,1.38,0,0,0-.65-.58,2.19,2.19,0,0,0-1.16-.17,5.09,5.09,0,0,0-1.62.5,8.13,8.13,0,0,0-2,1.38,12,12,0,0,0-1.36,1.4,11,11,0,0,0-1,1.44,4,4,0,0,0-.47,1.26A.91.91,0,0,0,114.18,23.6Z"/><path class="cls-1" d="M135,16.51a.93.93,0,0,1,.15.76,2,2,0,0,1-.41.82,4.78,4.78,0,0,1-.85.82,8.29,8.29,0,0,1-1.17.72,6.22,6.22,0,0,1-1.23.5,8.94,8.94,0,0,1-1.23.28,6.8,6.8,0,0,1-1.06.07,2.86,2.86,0,0,1-.76-.11,5.1,5.1,0,0,0-.52,1,3.66,3.66,0,0,0-.25.94,1.93,1.93,0,0,0,0,.77.81.81,0,0,0,.39.48,2.79,2.79,0,0,0,1.26.34,7.56,7.56,0,0,0,1.6-.11,11.94,11.94,0,0,0,1.79-.44,17.76,17.76,0,0,0,3.54-1.63,11.6,11.6,0,0,0,1.46-1,.69.69,0,0,0,.2-.23,2.44,2.44,0,0,0,.1-.24,1.75,1.75,0,0,1,.11-.24.7.7,0,0,1,.2-.23,1.52,1.52,0,0,1,.61-.35c.15,0,.23,0,.25.19a.47.47,0,0,1-.1.31,2.64,2.64,0,0,1-.33.39,5.56,5.56,0,0,1-.49.44,7.54,7.54,0,0,1-.61.47c-.44.31-.93.61-1.47.92s-1.11.59-1.72.86a18,18,0,0,1-1.84.73,12,12,0,0,1-1.83.47,7.59,7.59,0,0,1-1.69.1,3.55,3.55,0,0,1-1.43-.36,1.87,1.87,0,0,1-.92-1,2.61,2.61,0,0,1-.09-1.48,5.19,5.19,0,0,1,.73-1.72A7.59,7.59,0,0,1,129,18a8.41,8.41,0,0,1,2-1.31,7.42,7.42,0,0,1,1.82-.6,3.71,3.71,0,0,1,1.41,0A1.17,1.17,0,0,1,135,16.51Zm-2.53,2.87a5.81,5.81,0,0,0,.8-.53,5,5,0,0,0,.71-.65,2.81,2.81,0,0,0,.45-.67.59.59,0,0,0,0-.55.67.67,0,0,0-.54-.3,2.26,2.26,0,0,0-1,.16,7.41,7.41,0,0,0-1.38.67,11.45,11.45,0,0,0-1.68,1.26c-.26.23-.49.45-.68.64a5.5,5.5,0,0,0-.51.61,3.07,3.07,0,0,0,.75.09,6.72,6.72,0,0,0,1-.06,7.16,7.16,0,0,0,1-.24A5.56,5.56,0,0,0,132.49,19.38Zm.64-7.72a2,2,0,0,0-1.06.39A6.7,6.7,0,0,0,131,13a11.75,11.75,0,0,0-1,1.09,7.76,7.76,0,0,0-.6.88.81.81,0,0,0-.1.43.42.42,0,0,0,.14.29.39.39,0,0,0,.29.08.86.86,0,0,0,.42-.19,4.87,4.87,0,0,0,.47-.41l.52-.55c.18-.19.35-.39.51-.58l.46-.51a1.12,1.12,0,0,1,1.81,0l.45.47.6.64q.32.33.57.63l.36.4a.45.45,0,0,0,.34.19.51.51,0,0,0,.32-.1.53.53,0,0,0,.19-.29.57.57,0,0,0,0-.38,8.48,8.48,0,0,0-.56-.91,10,10,0,0,0-.9-1.12,7.31,7.31,0,0,0-1.07-1A1.9,1.9,0,0,0,133.13,11.66Zm3.14-2.87a.34.34,0,0,1,0,.34,2.41,2.41,0,0,1-.19.33,2.9,2.9,0,0,1-.52.55,7.63,7.63,0,0,1-.69.51,6.12,6.12,0,0,1-.66.4,2.34,2.34,0,0,1-.46.21.58.58,0,0,1-.32,0,.46.46,0,0,1-.2-.16.35.35,0,0,1-.07-.2.15.15,0,0,1,.08-.15,4.16,4.16,0,0,0,1-1,4.81,4.81,0,0,0,.68-1.43.6.6,0,0,1,.28-.34.27.27,0,0,1,.33,0,1.78,1.78,0,0,1,.42.41A2.61,2.61,0,0,1,136.27,8.79Z"/><path class="cls-1" d="M144.62,24.15a1,1,0,0,1-.53-.85,3.21,3.21,0,0,1,.26-1.28,9.63,9.63,0,0,1,.76-1.5c.32-.53.64-1,1-1.53a3.91,3.91,0,0,0,.61-1.24.65.65,0,0,0-.16-.65A.8.8,0,0,0,146,17a4.22,4.22,0,0,0-.9.28,12.38,12.38,0,0,0-1.19.61c-.45.26-.92.56-1.43.92s-1,.74-1.53,1.15-1,.85-1.47,1.31-.88.91-1.27,1.37a14.14,14.14,0,0,0-1,1.35c-.11.16-.21.23-.32.21a.44.44,0,0,1-.3-.18.91.91,0,0,1-.2-.36.62.62,0,0,1,0-.34,2,2,0,0,1,.15-.34c.08-.18.19-.38.32-.62s.26-.49.42-.76l.44-.77.39-.66c.11-.19.19-.33.25-.41a4.83,4.83,0,0,0,.41-.73,1,1,0,0,0,.07-.71,1,1,0,0,1,0-.5,2.13,2.13,0,0,1,.21-.47,3.37,3.37,0,0,1,.36-.49l.45-.55a1.92,1.92,0,0,1,.27-.29.27.27,0,0,1,.25-.07.57.57,0,0,1,.29.23,3.15,3.15,0,0,1,.36.64.66.66,0,0,1,.06.49,1.54,1.54,0,0,1-.15.37l-.24.37-.4.62-.49.75c-.18.26-.34.5-.49.74l-.4.62-.22.37c0,.06,0,.11,0,.13s.06,0,.11,0c.2-.19.59-.54,1.17-1s1.32-1.06,2.22-1.72c.5-.37,1-.74,1.58-1.09a15.64,15.64,0,0,1,1.61-.89,6.68,6.68,0,0,1,1.42-.49,1.3,1.3,0,0,1,1,.1,1.25,1.25,0,0,1,.62.83,1.92,1.92,0,0,1-.13,1,4.47,4.47,0,0,1-.54,1l-.62.85c-.28.35-.57.73-.88,1.14a13.77,13.77,0,0,0-.81,1.16,3.46,3.46,0,0,0-.45,1,.57.57,0,0,0,.25.66,1,1,0,0,0,.58.13,4.2,4.2,0,0,0,.87-.12,7.43,7.43,0,0,0,1-.31A10.53,10.53,0,0,0,148.8,23a14.15,14.15,0,0,0,1.9-1.07,11.47,11.47,0,0,0,1.12-.85.65.65,0,0,0,.17-.22c0-.07.06-.14.08-.2a1.67,1.67,0,0,1,.08-.2.63.63,0,0,1,.17-.21,2.07,2.07,0,0,1,.59-.37c.13,0,.2,0,.22.18s-.08.36-.31.6a9.78,9.78,0,0,1-.94.84c-.24.2-.59.46-1,.78a12.73,12.73,0,0,1-1.94,1.08,12.39,12.39,0,0,1-1.24.51,10.15,10.15,0,0,1-1.24.34,5.29,5.29,0,0,1-1.06.12A1.62,1.62,0,0,1,144.62,24.15Z"/><path class="cls-1" d="M167.68,16.73c0-.09.1-.16.13-.23a.9.9,0,0,1,.15-.19,1,1,0,0,1,.25-.15,2.56,2.56,0,0,1,.44-.14c.36-.08.56,0,.59.09s-.07.39-.31.74a7.27,7.27,0,0,1-.61.82,6,6,0,0,1-.66.67,2.84,2.84,0,0,1-.64.46,1,1,0,0,1-.57.13q-.27,0-.21-.09a1.92,1.92,0,0,1,.28-.26,5.93,5.93,0,0,0,.49-.5,2.23,2.23,0,0,0,.45-.84c0-.16-.06-.32-.32-.47a1.75,1.75,0,0,0-1-.17,5.07,5.07,0,0,0-1.84.67,9.4,9.4,0,0,0-2.2,1.75,8.72,8.72,0,0,0-1.24,1.61,5.17,5.17,0,0,0-.58,1.39,1.93,1.93,0,0,0,0,1.07,1,1,0,0,0,.51.64,2.61,2.61,0,0,0,1.19.22,7.52,7.52,0,0,0,1.59-.23,18.46,18.46,0,0,0,1.82-.56c.63-.24,1.26-.5,1.87-.79s1.2-.6,1.77-.92a16.37,16.37,0,0,0,1.5-.94.79.79,0,0,0,.18-.19c0-.06.07-.12.1-.19l.1-.19a.72.72,0,0,1,.19-.21,1.4,1.4,0,0,1,.61-.35c.15,0,.23,0,.25.19s-.13.38-.42.63a11.63,11.63,0,0,1-1.08.81c-.42.28-.92.58-1.47.89s-1.15.61-1.76.9-1.25.57-1.89.81a17.52,17.52,0,0,1-1.88.59,9.21,9.21,0,0,1-1.71.28,3.31,3.31,0,0,1-1.38-.18,2,2,0,0,1-1.11-.89A2.24,2.24,0,0,1,159,22a4.53,4.53,0,0,1,.57-1.71,7.57,7.57,0,0,1,1.38-1.81,9.29,9.29,0,0,1,1.37-1.15,9.1,9.1,0,0,1,1.35-.74,6,6,0,0,1,1.27-.4,7,7,0,0,1,1.16-.11,2.38,2.38,0,0,1,1,.21A1.34,1.34,0,0,1,167.68,16.73Z"/><path class="cls-1" d="M176.55,24.15a1,1,0,0,1-.54-.81,2.9,2.9,0,0,1,.19-1.21,8.33,8.33,0,0,1,.69-1.42c.3-.5.61-1,1-1.48a3.41,3.41,0,0,0,.59-1.25.67.67,0,0,0-.16-.64.57.57,0,0,0-.5-.1,3.66,3.66,0,0,0-.89.28,9.81,9.81,0,0,0-1.18.62,14,14,0,0,0-1.4,1c-.47.37-1,.79-1.45,1.25s-.95.91-1.39,1.36-.82.89-1.16,1.29a11.6,11.6,0,0,0-.76,1c-.1.16-.21.23-.32.21a.4.4,0,0,1-.29-.18,1.25,1.25,0,0,1-.2-.36.64.64,0,0,1,0-.34,2.54,2.54,0,0,1,.23-.54c.15-.27.32-.59.53-.95l.64-1.13c.22-.39.43-.73.62-1l.49-.82.89-1.47,1.15-1.89,1.26-2.08c.43-.71.85-1.39,1.25-2.06s.77-1.26,1.09-1.8.58-1,.8-1.33.33-.55.36-.62.18-.33.25-.46a2.48,2.48,0,0,0,.17-.38,1.36,1.36,0,0,0,.08-.39,2.75,2.75,0,0,0,0-.49,1.35,1.35,0,0,1,.05-.56,2.83,2.83,0,0,1,.25-.57,6.12,6.12,0,0,1,.37-.57c.13-.19.27-.37.4-.55.28-.35.51-.47.72-.36a1.74,1.74,0,0,1,.63.79.62.62,0,0,1,0,.48,1.15,1.15,0,0,1-.15.38c-.05.09-.15.26-.31.5L180,6.3c-.2.32-.41.65-.62,1s-.43.67-.61,1c-.36.59-.74,1.21-1.14,1.89l-1.24,2.07-1.27,2.15-1.22,2.06-1.09,1.85-.87,1.49-.6,1q-.21.38-.21.39c0,.05-.05.09,0,.11s0,0,.1,0l.33-.31.54-.48.85-.71,1.22-1c.46-.36.95-.72,1.46-1.09s1-.68,1.5-1a6.62,6.62,0,0,1,1.4-.61,2.06,2.06,0,0,1,1.17-.05c.41.12.65.34.69.64a2,2,0,0,1-.15,1,5.91,5.91,0,0,1-.63,1.18c-.26.4-.5.75-.71,1s-.54.76-.83,1.14-.54.75-.74,1.08a2.9,2.9,0,0,0-.38.91.52.52,0,0,0,.26.61,1,1,0,0,0,.59.13,4.39,4.39,0,0,0,.87-.12,7.43,7.43,0,0,0,1-.31,11.5,11.5,0,0,0,1.11-.47,13.4,13.4,0,0,0,1.89-1.07,11.89,11.89,0,0,0,1.13-.85.65.65,0,0,0,.17-.22c0-.07.06-.14.08-.2a.84.84,0,0,1,.08-.2.52.52,0,0,1,.17-.21,2.06,2.06,0,0,1,.58-.37c.13,0,.21,0,.23.18s-.08.36-.31.6a9.78,9.78,0,0,1-.94.84q-.36.3-1,.78a12.55,12.55,0,0,1-1.93,1.08,11.66,11.66,0,0,1-1.25.51,9.55,9.55,0,0,1-1.23.34,5.37,5.37,0,0,1-1.06.12A1.7,1.7,0,0,1,176.55,24.15Z"/><path class="cls-1" d="M183.54,20.46l.29-.38a3.52,3.52,0,0,0,.3-.45,2.18,2.18,0,0,0,.22-.5,1.42,1.42,0,0,0,.05-.54,1.58,1.58,0,0,1,0-.57,3.42,3.42,0,0,1,.25-.57,6.12,6.12,0,0,1,.37-.57c.14-.18.27-.37.41-.54.27-.36.51-.48.72-.37a1.69,1.69,0,0,1,.64.79.62.62,0,0,1,0,.48,1.86,1.86,0,0,1-.15.38,2.13,2.13,0,0,0-.21.36l-.36.61c-.14.24-.3.49-.46.75l-.47.76c-.15.25-.28.48-.41.68a4.66,4.66,0,0,1-.3.46,4.26,4.26,0,0,0-.65,1.35c-.09.37-.05.62.11.73a.73.73,0,0,0,.4.06,3,3,0,0,0,.76-.22,8.41,8.41,0,0,0,1.17-.61c.47-.27,1-.63,1.67-1.09s1-.78,1.49-1.18.88-.79,1.26-1.18a11.65,11.65,0,0,0,1-1.11,7.49,7.49,0,0,0,.67-1l.19-.35q.1-.19.21-.36a.82.82,0,0,1,.24-.22.21.21,0,0,1,.25,0,1.53,1.53,0,0,1,.21.22,1.65,1.65,0,0,1,.23.42,1.85,1.85,0,0,1,.1.54,1.33,1.33,0,0,1-.12.61c-.06.13-.13.27-.2.44a3.67,3.67,0,0,1-.26.48,2.24,2.24,0,0,1-.32.4.61.61,0,0,1-.38.18.46.46,0,0,0-.34.21,4.39,4.39,0,0,0-.36.53l-.29.43-.38.62a8,8,0,0,0-.38.71,4.87,4.87,0,0,0-.29.69,1.85,1.85,0,0,0-.08.59.47.47,0,0,0,.2.38,1.79,1.79,0,0,0,1.31.09,8.56,8.56,0,0,0,2-.7,13.4,13.4,0,0,0,1.89-1.07A11.89,11.89,0,0,0,197,21a.65.65,0,0,0,.17-.22l.08-.21a1.59,1.59,0,0,1,.07-.2.63.63,0,0,1,.18-.2,2.46,2.46,0,0,1,.58-.38c.13,0,.21,0,.23.19s-.09.36-.31.6a11.17,11.17,0,0,1-.94.84c-.24.19-.59.45-1,.77A13,13,0,0,1,194,23.29a11.49,11.49,0,0,1-1.24.51,9.55,9.55,0,0,1-1.23.34,5.39,5.39,0,0,1-1.07.12,1.68,1.68,0,0,1-.74-.14.76.76,0,0,1-.36-.58,2.41,2.41,0,0,1,.1-1,6.91,6.91,0,0,1,.51-1.3,14,14,0,0,1,.91-1.55c0-.06,0-.09,0-.11a.09.09,0,0,0-.11,0l-.25.26-.48.43c-.2.18-.46.39-.78.64s-.71.54-1.18.87l-.69.49c-.27.19-.56.38-.88.58s-.65.39-1,.58a10.2,10.2,0,0,1-1,.48,4.91,4.91,0,0,1-.93.29,1.6,1.6,0,0,1-.76,0,.8.8,0,0,1-.55-.38,1.12,1.12,0,0,1-.1-.64,2.39,2.39,0,0,1,.21-.78,5.91,5.91,0,0,1,.39-.8c.15-.26.29-.48.43-.69Z"/><path class="cls-1" d="M203.6,24.15a1,1,0,0,1-.52-.85,3,3,0,0,1,.26-1.28,9.53,9.53,0,0,1,.75-1.5c.32-.53.65-1,1-1.53a3.7,3.7,0,0,0,.61-1.24.65.65,0,0,0-.16-.65A.78.78,0,0,0,205,17a4,4,0,0,0-.89.28,11.38,11.38,0,0,0-1.2.61c-.44.26-.92.56-1.43.92s-1,.74-1.53,1.15-1,.85-1.46,1.31a17.77,17.77,0,0,0-1.27,1.37,12.76,12.76,0,0,0-1,1.35c-.1.16-.21.23-.32.21a.44.44,0,0,1-.3-.18,1.25,1.25,0,0,1-.2-.36.62.62,0,0,1,0-.34,2,2,0,0,1,.15-.34l.32-.62.42-.76.45-.77.38-.66.25-.41a3.55,3.55,0,0,0,.41-.73,1,1,0,0,0,.07-.71,1,1,0,0,1,0-.5,2.07,2.07,0,0,1,.2-.47,6,6,0,0,1,.36-.49c.15-.17.3-.36.45-.55s.19-.21.27-.29a.29.29,0,0,1,.26-.07.62.62,0,0,1,.29.23,4.55,4.55,0,0,1,.36.64.65.65,0,0,1,.05.49,1.54,1.54,0,0,1-.15.37l-.23.37c-.12.18-.25.39-.41.62s-.32.49-.49.75l-.48.74c-.16.23-.29.44-.4.62s-.19.31-.22.37,0,.11,0,.13.06,0,.11,0,.59-.54,1.17-1,1.33-1.06,2.22-1.72c.5-.37,1-.74,1.59-1.09a14.66,14.66,0,0,1,1.61-.89,6.43,6.43,0,0,1,1.41-.49,1.29,1.29,0,0,1,1,.1,1.22,1.22,0,0,1,.62.83,1.81,1.81,0,0,1-.13,1,4.87,4.87,0,0,1-.53,1l-.63.85-.87,1.14a12,12,0,0,0-.82,1.16,3.4,3.4,0,0,0-.44,1,.55.55,0,0,0,.24.66,1,1,0,0,0,.59.13,4.2,4.2,0,0,0,.86-.12,7.05,7.05,0,0,0,1-.31,11.65,11.65,0,0,0,1.12-.47,13.4,13.4,0,0,0,1.89-1.07A10.33,10.33,0,0,0,210.8,21a.58.58,0,0,0,.18-.22c0-.07.05-.14.07-.2l.08-.2a.63.63,0,0,1,.17-.21,2.07,2.07,0,0,1,.59-.37c.13,0,.21,0,.23.18s-.09.36-.32.6a9.49,9.49,0,0,1-.93.84q-.36.3-1.05.78a12.25,12.25,0,0,1-1.94,1.08,11.49,11.49,0,0,1-1.24.51,9.55,9.55,0,0,1-1.23.34,5.39,5.39,0,0,1-1.07.12A1.68,1.68,0,0,1,203.6,24.15Z"/><path class="cls-1" d="M218.07,20.51c.05-.11.06-.17,0-.2s-.08,0-.14.06c-.29.27-.63.57-1,.91s-.84.68-1.3,1-.94.65-1.43.94a9.42,9.42,0,0,1-1.41.72,4.52,4.52,0,0,1-1.25.34,1.32,1.32,0,0,1-.93-.2,1.34,1.34,0,0,1-.54-.79,2.19,2.19,0,0,1,0-1,4.74,4.74,0,0,1,.46-1.16,8,8,0,0,1,.79-1.2,10.44,10.44,0,0,1,1-1.11,9.6,9.6,0,0,1,1.13-.93A10.48,10.48,0,0,1,216,16.51a8.52,8.52,0,0,1,2.43-.49,4.72,4.72,0,0,1,2,.35,2.74,2.74,0,0,1,1.31,1.09.67.67,0,0,1,.14.59.5.5,0,0,1-.32.33.28.28,0,0,1-.39-.09,3,3,0,0,1-.29-.55,1.77,1.77,0,0,0-.79-.9,2.45,2.45,0,0,0-1.39-.29,6.33,6.33,0,0,0-1.92.51,11.17,11.17,0,0,0-2.36,1.46A12.94,12.94,0,0,0,212.82,20a10.44,10.44,0,0,0-1.19,1.52,4.07,4.07,0,0,0-.59,1.31.76.76,0,0,0,.19.82.87.87,0,0,0,.71.11,4.8,4.8,0,0,0,1.07-.36,12.72,12.72,0,0,0,1.26-.7c.45-.28.89-.57,1.32-.88s.82-.62,1.19-.93.68-.6.93-.85a13,13,0,0,0,.88-1c.23-.27.4-.5.54-.69a3.27,3.27,0,0,0,.27-.45c0-.12.09-.21.11-.27a.53.53,0,0,1,.14-.23.18.18,0,0,1,.17-.05.44.44,0,0,1,.23.19,2,2,0,0,1,.36.91,1.88,1.88,0,0,1-.07,1c0,.09-.08.21-.14.34a2.35,2.35,0,0,1-.19.39,2.22,2.22,0,0,1-.24.32c-.09.09-.18.13-.26.1s-.15.1-.29.33-.32.55-.54,1-.47.89-.76,1.45-.6,1.18-.94,1.84c.92-.29,1.75-.59,2.48-.9s1.37-.62,1.92-.92a12.35,12.35,0,0,0,1.36-.83c.37-.25.65-.46.86-.61a.52.52,0,0,0,.2-.28,2.53,2.53,0,0,0,.12-.36,3,3,0,0,1,.13-.36.63.63,0,0,1,.19-.28l.36-.29a1.15,1.15,0,0,1,.31-.18.28.28,0,0,1,.22,0c.07,0,.11.13.14.28a.66.66,0,0,1-.09.34,3.22,3.22,0,0,1-.31.49c-.14.17-.3.35-.49.54a4.72,4.72,0,0,1-.59.5L223,23a14.57,14.57,0,0,1-1.41.84,19.11,19.11,0,0,1-2.05,1,25.82,25.82,0,0,1-2.77,1c-.56,1.05-1.16,2.17-1.82,3.35s-1.35,2.38-2.09,3.57a25.55,25.55,0,0,1-2,2.73,22.65,22.65,0,0,1-2.27,2.4,18.13,18.13,0,0,1-2.41,1.86,9.59,9.59,0,0,1-2.4,1.13,5.13,5.13,0,0,1-2.24.2,3.67,3.67,0,0,1-2-1,3.17,3.17,0,0,1-1.06-2,5,5,0,0,1,.34-2.43,9.48,9.48,0,0,1,1.49-2.52,13.47,13.47,0,0,1,2.37-2.27A24.83,24.83,0,0,1,205.39,29a21.49,21.49,0,0,1,2.78-1.3,33.22,33.22,0,0,1,3.27-1c1.19-.32,2.57-.66,4.13-1,.56-1.1,1-2.08,1.45-2.95S217.77,21.1,218.07,20.51ZM211.66,32.3c.75-1.15,1.43-2.25,2-3.28s1.15-2,1.62-2.92q-2.12.49-3.81,1c-1.14.32-2.19.67-3.16,1.05a20.7,20.7,0,0,0-2.72,1.29,23.44,23.44,0,0,0-2.54,1.66,9.54,9.54,0,0,0-1.34,1.22,11.49,11.49,0,0,0-1.12,1.45,9.88,9.88,0,0,0-.83,1.52,6.53,6.53,0,0,0-.42,1.48,3.49,3.49,0,0,0,.06,1.3,1.83,1.83,0,0,0,.61,1,2.86,2.86,0,0,0,1.68.72,5,5,0,0,0,2-.3,10,10,0,0,0,2.12-1.1,18.31,18.31,0,0,0,2.14-1.7,21.84,21.84,0,0,0,2-2.08A23.88,23.88,0,0,0,211.66,32.3Z"/><path class="cls-1" d="M231.48,17.77a4,4,0,0,1-.16-.81,2,2,0,0,1,0-.56.28.28,0,0,1,.29-.25c.66,0,1.08.2,1.25.61a4.9,4.9,0,0,1,.28,1.58,12.26,12.26,0,0,1-.07,1.82,11.64,11.64,0,0,1-.29,1.69,7.31,7.31,0,0,1-.37,1.2c-.06.21,0,.26.25.15a10.44,10.44,0,0,0,1.55-1.11,13.46,13.46,0,0,0,1.43-1.39,12.23,12.23,0,0,0,1.13-1.41,3.83,3.83,0,0,0,.59-1.19,1,1,0,0,0,0-.53,2.27,2.27,0,0,1-.1-.53,2.94,2.94,0,0,1,0-.5,4.07,4.07,0,0,1,.1-.7,1.52,1.52,0,0,1,.22-.56.23.23,0,0,1,.37,0,2.7,2.7,0,0,1,.33.36,1,1,0,0,1,.2.39,1.66,1.66,0,0,1,0,.56,4.83,4.83,0,0,1-.2.83,6.65,6.65,0,0,1-.82,1.79,11.48,11.48,0,0,1-1.4,1.74,16,16,0,0,1-1.91,1.67,27.86,27.86,0,0,1-2.37,1.58.54.54,0,0,1-.37.11.46.46,0,0,1-.27-.15,1.27,1.27,0,0,1-.18-.27,1.5,1.5,0,0,1-.1-.3.41.41,0,0,1,0-.29c0-.08.08-.18.15-.32a7.1,7.1,0,0,0,.4-1,11,11,0,0,0,.31-1.19,10,10,0,0,0,.19-1.09,3,3,0,0,0,0-.77.54.54,0,0,0-.1-.29,1,1,0,0,0-.14-.17,1.15,1.15,0,0,1-.15-.2A1.36,1.36,0,0,1,231.48,17.77Z"/><path class="cls-1" d="M238.71,20.46l.29-.38a3.52,3.52,0,0,0,.3-.45,2.18,2.18,0,0,0,.22-.5,1.25,1.25,0,0,0,0-.54,1.39,1.39,0,0,1,.06-.57,2.75,2.75,0,0,1,.25-.57,6,6,0,0,1,.36-.57c.14-.18.27-.37.41-.54.27-.36.51-.48.73-.37a1.74,1.74,0,0,1,.63.79.58.58,0,0,1,0,.48,1.86,1.86,0,0,1-.15.38l-.21.36-.36.61-.45.75c-.17.26-.32.51-.47.76s-.29.48-.42.68-.22.36-.29.46a4.11,4.11,0,0,0-.66,1.35c-.08.37,0,.62.11.73a.73.73,0,0,0,.4.06,3,3,0,0,0,.76-.22,8.41,8.41,0,0,0,1.17-.61c.47-.27,1-.63,1.67-1.09s1-.78,1.49-1.18.88-.79,1.26-1.18a13.47,13.47,0,0,0,1-1.11,8.44,8.44,0,0,0,.66-1c.06-.11.13-.22.19-.35a3.13,3.13,0,0,1,.22-.36.79.79,0,0,1,.23-.22.21.21,0,0,1,.25,0,1.53,1.53,0,0,1,.21.22,1.65,1.65,0,0,1,.23.42,1.85,1.85,0,0,1,.11.54,1.22,1.22,0,0,1-.13.61c-.06.13-.13.27-.2.44a2.77,2.77,0,0,1-.26.48,2.24,2.24,0,0,1-.32.4.59.59,0,0,1-.37.18.48.48,0,0,0-.35.21,6,6,0,0,0-.36.53l-.29.43-.38.62a8,8,0,0,0-.38.71,3.85,3.85,0,0,0-.28.69,1.63,1.63,0,0,0-.09.59.47.47,0,0,0,.2.38,1.79,1.79,0,0,0,1.31.09,8.56,8.56,0,0,0,2-.7A13.4,13.4,0,0,0,251,21.86a11.89,11.89,0,0,0,1.13-.85.65.65,0,0,0,.17-.22,1.8,1.8,0,0,0,.08-.21.84.84,0,0,1,.08-.2.58.58,0,0,1,.17-.2,2.46,2.46,0,0,1,.58-.38c.13,0,.21,0,.23.19s-.08.36-.31.6a9.78,9.78,0,0,1-.94.84c-.24.19-.59.45-1.05.77a13.36,13.36,0,0,1-1.93,1.09,11.66,11.66,0,0,1-1.25.51,9.55,9.55,0,0,1-1.23.34,5.37,5.37,0,0,1-1.06.12,1.7,1.7,0,0,1-.75-.14.82.82,0,0,1-.36-.58,2.41,2.41,0,0,1,.1-1,6.91,6.91,0,0,1,.51-1.3,15.8,15.8,0,0,1,.91-1.55c0-.06,0-.09,0-.11a.09.09,0,0,0-.11,0,2.66,2.66,0,0,1-.25.26c-.11.11-.27.25-.48.43s-.46.39-.78.64-.71.54-1.18.87c-.18.14-.41.3-.68.49l-.89.58c-.31.2-.65.39-1,.58a10.2,10.2,0,0,1-1,.48,4.7,4.7,0,0,1-.93.29,1.61,1.61,0,0,1-.76,0,.8.8,0,0,1-.55-.38,1.12,1.12,0,0,1-.1-.64,3,3,0,0,1,.21-.78c.12-.28.25-.54.39-.8s.29-.48.43-.69Z"/><path class="cls-1" d="M252.7,19.57c.15-.24.28-.44.37-.62a.77.77,0,0,0,0-.6.85.85,0,0,1,0-.5,2.07,2.07,0,0,1,.2-.47,3.37,3.37,0,0,1,.36-.49l.45-.55a2.62,2.62,0,0,1,.27-.29.29.29,0,0,1,.26-.07.55.55,0,0,1,.3.23,4.55,4.55,0,0,1,.36.64,1.14,1.14,0,0,1,.12.49.8.8,0,0,1-.09.37,3,3,0,0,1-.25.41l-.41.61-.46.65c-.15.22-.27.4-.36.55l-.31.47c-.14.21-.29.44-.44.69s-.3.51-.44.79a5.23,5.23,0,0,0-.35.78,1.91,1.91,0,0,0-.14.66.48.48,0,0,0,.18.44.86.86,0,0,0,.55.13,4,4,0,0,0,.84-.12,9.9,9.9,0,0,0,1-.33c.37-.14.74-.3,1.12-.48a13.24,13.24,0,0,0,1.88-1.07,11.47,11.47,0,0,0,1.12-.85.58.58,0,0,0,.18-.22,1,1,0,0,0,.08-.2.53.53,0,0,1,.07-.2.56.56,0,0,1,.18-.21,2.21,2.21,0,0,1,.58-.37c.13,0,.2,0,.22.18s-.08.36-.31.6a9.78,9.78,0,0,1-.94.84q-.36.3-1.05.78A12.87,12.87,0,0,1,256,23.32c-.41.19-.82.36-1.24.51a9.3,9.3,0,0,1-1.2.35,5.18,5.18,0,0,1-1,.13,1.5,1.5,0,0,1-.72-.13,1.27,1.27,0,0,1-.56-.59,1.45,1.45,0,0,1,0-.89,5.93,5.93,0,0,1,.49-1.32A20.56,20.56,0,0,1,252.7,19.57Zm4.67-7.14.18.31a2.26,2.26,0,0,1,.22.44,1.41,1.41,0,0,1,.12.49.83.83,0,0,1-.09.49A1.72,1.72,0,0,1,257,15a.64.64,0,0,1-.77-.29,1.77,1.77,0,0,1-.25-.4.57.57,0,0,1,0-.34,1.15,1.15,0,0,1,.16-.4l.35-.56a.8.8,0,0,0,.18-.31l.06-.24a.28.28,0,0,1,.25-.22A.41.41,0,0,1,257.37,12.43Z"/><path class="cls-1" d="M266.8,17.77a4.7,4.7,0,0,1-.15-.81,2,2,0,0,1,0-.56.27.27,0,0,1,.29-.25c.66,0,1.07.2,1.25.61a4.9,4.9,0,0,1,.28,1.58,12.26,12.26,0,0,1-.07,1.82,13.18,13.18,0,0,1-.29,1.69,7.31,7.31,0,0,1-.37,1.2c-.06.21,0,.26.25.15a10.38,10.38,0,0,0,1.54-1.11A13.58,13.58,0,0,0,271,20.7a13.41,13.41,0,0,0,1.13-1.41,3.83,3.83,0,0,0,.59-1.19,1,1,0,0,0,0-.53,2.27,2.27,0,0,1-.1-.53,2.94,2.94,0,0,1,0-.5,3.28,3.28,0,0,1,.1-.7,1.52,1.52,0,0,1,.22-.56c.09-.14.21-.16.37,0a3.6,3.6,0,0,1,.33.36,1,1,0,0,1,.2.39,1.66,1.66,0,0,1,0,.56,6,6,0,0,1-.2.83,6.65,6.65,0,0,1-.82,1.79,11.48,11.48,0,0,1-1.4,1.74,16,16,0,0,1-1.91,1.67c-.73.54-1.52,1.07-2.37,1.58a.56.56,0,0,1-.38.11.46.46,0,0,1-.26-.15,1.27,1.27,0,0,1-.18-.27,1.5,1.5,0,0,1-.1-.3.41.41,0,0,1,0-.29c0-.08.08-.18.14-.32a6.09,6.09,0,0,0,.41-1,11,11,0,0,0,.31-1.19,10,10,0,0,0,.19-1.09,3,3,0,0,0,0-.77.78.78,0,0,0-.1-.29,2.09,2.09,0,0,0-.14-.17,1.15,1.15,0,0,1-.15-.2A1.32,1.32,0,0,1,266.8,17.77Z"/><path class="cls-1" d="M287,12.23a5.39,5.39,0,0,1,1.53.54,1.94,1.94,0,0,1,.81.72,1.39,1.39,0,0,1,.19.83,1.24,1.24,0,0,1-.33.55,7.31,7.31,0,0,1-.74.71c-.3.24-.6.48-.93.71a7.58,7.58,0,0,1-.92.56,9.71,9.71,0,0,1-1.47.63c-.38.11-.68.21-.89.29a2.12,2.12,0,0,1-.43.16l-.36.08a6.8,6.8,0,0,1-1,2A11.21,11.21,0,0,1,280.82,22a4.24,4.24,0,0,0,1.22.33,4.42,4.42,0,0,0,1.26,0,5,5,0,0,0,1.23-.37,5.67,5.67,0,0,0,1.12-.7.8.8,0,0,0,.15-.2c0-.07.06-.13.09-.19l.09-.19a.63.63,0,0,1,.18-.2,1.9,1.9,0,0,1,.64-.38c.17-.05.26,0,.29.16s-.13.38-.41.63a10.92,10.92,0,0,1-1.06.84,5.4,5.4,0,0,1-2.39,1,5,5,0,0,1-2.74-.43c-.33.3-.73.62-1.19,1a7.47,7.47,0,0,1-1.45.86,4.41,4.41,0,0,1-1.46.41,1.48,1.48,0,0,1-1.21-.41,1.94,1.94,0,0,1-.52-.94,3.41,3.41,0,0,1,0-1.36,6,6,0,0,1,.57-1.62,7.64,7.64,0,0,1,1.29-1.72,11.88,11.88,0,0,1,1.26-1,6.4,6.4,0,0,1,1.15-.64,3.71,3.71,0,0,1,.91-1,3.77,3.77,0,0,1,1.12-.62,2.58,2.58,0,0,1,1.12-.14,1.68,1.68,0,0,1,.94.38,1.74,1.74,0,0,1,.56.92,3.12,3.12,0,0,1,0,1.49l.28-.05a1.38,1.38,0,0,0,.27-.08,4.37,4.37,0,0,0,1-.25,8.68,8.68,0,0,0,1.4-.67,5.83,5.83,0,0,0,1.35-.95,3.12,3.12,0,0,0,.66-.81,1,1,0,0,0,.13-.8,1.36,1.36,0,0,0-.43-.58,2.22,2.22,0,0,0-.64-.35A2.37,2.37,0,0,0,287,13l-.47,0-.47-.05a3,3,0,0,0-.42,0,.43.43,0,0,0-.26.07.72.72,0,0,1-.5.17l-.54-.08a.83.83,0,0,1-.41-.2,1.62,1.62,0,0,1-.26-.34,1.21,1.21,0,0,1-.12-.35,1.61,1.61,0,0,1,0-.25.15.15,0,0,1,.15-.16,1,1,0,0,1,.35,0l.4.09.28.07A13.55,13.55,0,0,1,287,12.23ZM276.77,23.92a3.6,3.6,0,0,0,1.2-.37,7.9,7.9,0,0,0,1.19-.75c.38-.3.7-.57,1-.82a3.89,3.89,0,0,1-.78-.68,4.45,4.45,0,0,1-.56-.87,4.19,4.19,0,0,1-.33-1,4.55,4.55,0,0,1-.07-1,5.79,5.79,0,0,0-1,.87,6.89,6.89,0,0,0-.79,1,8.59,8.59,0,0,0-.57,1.07,5.31,5.31,0,0,0-.32,1,2.9,2.9,0,0,0-.06.8.66.66,0,0,0,.19.47A1.16,1.16,0,0,0,276.77,23.92Zm5.06-4.14a8.2,8.2,0,0,0,.77-2,2.32,2.32,0,0,0-.05-1.47,1.32,1.32,0,0,0-.75-.78,1.69,1.69,0,0,0-1.17,0,3,3,0,0,0-1.25,1,3.56,3.56,0,0,1,2.55.09c.13.07.18.14.15.22s-.14.13-.31.13a4.33,4.33,0,0,0-1.43.27,6.59,6.59,0,0,0-1.66.95,3.49,3.49,0,0,0,0,1,3.37,3.37,0,0,0,.33,1,4.12,4.12,0,0,0,.58.85,3.84,3.84,0,0,0,.78.67A8.31,8.31,0,0,0,281.83,19.78ZM289.36,8.5a2,2,0,0,0-.41-.41.28.28,0,0,0-.34,0,.55.55,0,0,0-.27.34,5.1,5.1,0,0,1-.69,1.43,4,4,0,0,1-1,1,.16.16,0,0,0-.08.15.35.35,0,0,0,.07.2.53.53,0,0,0,.2.16.58.58,0,0,0,.32,0,2.66,2.66,0,0,0,.47-.21,7.22,7.22,0,0,0,.65-.4,6.45,6.45,0,0,0,.69-.51,2.9,2.9,0,0,0,.52-.55,2.41,2.41,0,0,0,.19-.33.38.38,0,0,0,0-.34A3.21,3.21,0,0,0,289.36,8.5Z"/><path class="cls-1" d="M287.27,19.57c.16-.24.28-.44.38-.62a.77.77,0,0,0,0-.6,1,1,0,0,1,0-.5,2.13,2.13,0,0,1,.21-.47,3.37,3.37,0,0,1,.36-.49l.45-.55a1.92,1.92,0,0,1,.27-.29.29.29,0,0,1,.26-.07.63.63,0,0,1,.3.23,4.55,4.55,0,0,1,.36.64,1,1,0,0,1,.11.49.7.7,0,0,1-.08.37,4.55,4.55,0,0,1-.25.41c-.13.18-.26.39-.42.61l-.45.65-.37.55-.3.47c-.14.21-.29.44-.44.69s-.3.51-.44.79a4.38,4.38,0,0,0-.35.78,2.21,2.21,0,0,0-.15.66.53.53,0,0,0,.18.44.9.9,0,0,0,.56.13,4,4,0,0,0,.83-.12,9.3,9.3,0,0,0,1-.33c.37-.14.74-.3,1.12-.48a13.83,13.83,0,0,0,1.88-1.07,12.88,12.88,0,0,0,1.12-.85.58.58,0,0,0,.18-.22,1,1,0,0,0,.07-.2,1.59,1.59,0,0,1,.07-.2.6.6,0,0,1,.19-.21,2.06,2.06,0,0,1,.58-.37c.12,0,.2,0,.22.18s-.09.36-.31.6a11.17,11.17,0,0,1-.94.84q-.36.3-1.05.78a12.87,12.87,0,0,1-1.92,1.08c-.41.19-.82.36-1.24.51a9.42,9.42,0,0,1-1.21.35,5.08,5.08,0,0,1-1,.13,1.47,1.47,0,0,1-.72-.13,1.27,1.27,0,0,1-.56-.59,1.45,1.45,0,0,1,0-.89,5.93,5.93,0,0,1,.49-1.32C286.49,20.87,286.84,20.27,287.27,19.57ZM292,12.43l.18.31a2.26,2.26,0,0,1,.22.44,2.07,2.07,0,0,1,.12.49.92.92,0,0,1-.09.49,1.72,1.72,0,0,1-.76.84.64.64,0,0,1-.77-.29,2.38,2.38,0,0,1-.26-.4.65.65,0,0,1,0-.34,1.45,1.45,0,0,1,.17-.4l.35-.56a1.25,1.25,0,0,0,.18-.31s0-.12.05-.24a.3.3,0,0,1,.26-.22A.42.42,0,0,1,292,12.43Z"/><path class="cls-1" d="M309.3,16.73l.14-.23a.53.53,0,0,1,.15-.19.82.82,0,0,1,.25-.15,2.71,2.71,0,0,1,.43-.14q.56-.12.6.09c0,.14-.08.39-.32.74a7.2,7.2,0,0,1-.6.82,6,6,0,0,1-.66.67,3.08,3.08,0,0,1-.64.46,1,1,0,0,1-.58.13c-.18,0-.24,0-.2-.09a1.7,1.7,0,0,1,.27-.26,4.71,4.71,0,0,0,.49-.5,2.39,2.39,0,0,0,.46-.84c0-.16-.07-.32-.32-.47a1.79,1.79,0,0,0-1.06-.17,5,5,0,0,0-1.83.67,9.2,9.2,0,0,0-2.2,1.75,8.3,8.3,0,0,0-1.24,1.61,5.23,5.23,0,0,0-.59,1.39,2.14,2.14,0,0,0,0,1.07,1.05,1.05,0,0,0,.52.64,2.59,2.59,0,0,0,1.18.22,7.52,7.52,0,0,0,1.59-.23,17,17,0,0,0,1.82-.56c.64-.24,1.26-.5,1.88-.79s1.2-.6,1.76-.92a16.37,16.37,0,0,0,1.5-.94.79.79,0,0,0,.18-.19,1.14,1.14,0,0,0,.1-.19c0-.06.07-.12.1-.19a.77.77,0,0,1,.2-.21,1.38,1.38,0,0,1,.6-.35.19.19,0,0,1,.26.19q0,.25-.42.63A11.63,11.63,0,0,1,312,21c-.43.28-.92.58-1.48.89s-1.14.61-1.76.9a19.89,19.89,0,0,1-1.89.81,17.37,17.37,0,0,1-1.87.59,9.49,9.49,0,0,1-1.71.28A3.26,3.26,0,0,1,302,24.3a2,2,0,0,1-1.11-.89,2.32,2.32,0,0,1-.27-1.4,4.53,4.53,0,0,1,.57-1.71,8.13,8.13,0,0,1,1.38-1.81,9.34,9.34,0,0,1,1.38-1.15,9,9,0,0,1,1.34-.74,6.07,6.07,0,0,1,1.28-.4,6.87,6.87,0,0,1,1.16-.11,2.41,2.41,0,0,1,1,.21A1.29,1.29,0,0,1,309.3,16.73Z"/><path class="cls-1" d="M318.18,24.15a1,1,0,0,1-.55-.81,2.92,2.92,0,0,1,.2-1.21,8.33,8.33,0,0,1,.69-1.42c.29-.5.61-1,.94-1.48a3.41,3.41,0,0,0,.59-1.25.67.67,0,0,0-.15-.64.57.57,0,0,0-.5-.1,3.53,3.53,0,0,0-.89.28,9.87,9.87,0,0,0-1.19.62,13.9,13.9,0,0,0-1.39,1c-.48.37-1,.79-1.45,1.25s-1,.91-1.39,1.36-.83.89-1.17,1.29a11.6,11.6,0,0,0-.76,1c-.1.16-.21.23-.32.21a.42.42,0,0,1-.29-.18,1.25,1.25,0,0,1-.2-.36.64.64,0,0,1-.05-.34,2.83,2.83,0,0,1,.24-.54l.52-.95c.21-.36.42-.73.64-1.13s.43-.73.62-1l.49-.82c.25-.4.54-.89.89-1.47l1.15-1.89,1.27-2.08c.42-.71.84-1.39,1.25-2.06s.77-1.26,1.08-1.8l.8-1.33c.21-.35.34-.55.37-.62s.17-.33.25-.46a2.48,2.48,0,0,0,.17-.38,1.8,1.8,0,0,0,.08-.39,2.86,2.86,0,0,0,0-.49,1.36,1.36,0,0,1,.06-.56,2.36,2.36,0,0,1,.25-.57q.16-.29.36-.57l.41-.55q.4-.53.72-.36a1.74,1.74,0,0,1,.62.79.58.58,0,0,1,.06.48,1.86,1.86,0,0,1-.15.38l-.31.5c-.16.25-.34.53-.53.85l-.63,1-.61,1c-.35.59-.73,1.21-1.13,1.89L318,12.23l-1.28,2.15c-.42.71-.82,1.4-1.22,2.06l-1.08,1.85-.88,1.49-.59,1a4.08,4.08,0,0,0-.22.39c0,.05,0,.09,0,.11s0,0,.09,0l.33-.31.55-.48.84-.71,1.22-1c.47-.36,1-.72,1.47-1.09s1-.68,1.5-1a6.62,6.62,0,0,1,1.4-.61,2,2,0,0,1,1.16-.05c.42.12.65.34.7.64a2.11,2.11,0,0,1-.16,1,6.4,6.4,0,0,1-.62,1.18l-.71,1c-.27.38-.54.76-.83,1.14s-.54.75-.74,1.08a2.73,2.73,0,0,0-.39.91.54.54,0,0,0,.27.61,1,1,0,0,0,.58.13,4.2,4.2,0,0,0,.87-.12,7.43,7.43,0,0,0,1-.31,11.65,11.65,0,0,0,1.12-.47,13.4,13.4,0,0,0,1.89-1.07,11.47,11.47,0,0,0,1.12-.85.55.55,0,0,0,.17-.22,1,1,0,0,0,.08-.2,1.67,1.67,0,0,1,.08-.2.63.63,0,0,1,.17-.21,2.07,2.07,0,0,1,.59-.37c.13,0,.2,0,.23.18s-.09.36-.32.6a10.83,10.83,0,0,1-.93.84q-.36.3-1.05.78a12.73,12.73,0,0,1-1.94,1.08,12.39,12.39,0,0,1-1.24.51,9.25,9.25,0,0,1-1.24.34,5.29,5.29,0,0,1-1.06.12A1.65,1.65,0,0,1,318.18,24.15Z"/><path class="cls-1" d="M325.13,20.46l.29-.38a5.09,5.09,0,0,0,.31-.45,3.63,3.63,0,0,0,.22-.5,1.41,1.41,0,0,0,0-.54,1.39,1.39,0,0,1,.06-.57,2.75,2.75,0,0,1,.25-.57q.17-.28.36-.57c.14-.18.27-.37.41-.54.27-.36.51-.48.72-.37a1.67,1.67,0,0,1,.62.79.58.58,0,0,1,.06.48,1.86,1.86,0,0,1-.15.38l-.21.36-.36.61-.45.75-.47.76c-.15.25-.29.48-.42.68s-.22.36-.29.46a4.11,4.11,0,0,0-.66,1.35c-.08.37,0,.62.11.73a.75.75,0,0,0,.41.06,2.9,2.9,0,0,0,.75-.22,9,9,0,0,0,1.18-.61c.46-.27,1-.63,1.66-1.09s1-.78,1.49-1.18a16.26,16.26,0,0,0,1.26-1.18,11.83,11.83,0,0,0,1-1.11,8.44,8.44,0,0,0,.66-1l.2-.35a2.12,2.12,0,0,1,.21-.36.79.79,0,0,1,.23-.22.21.21,0,0,1,.25,0,1.53,1.53,0,0,1,.21.22,1.39,1.39,0,0,1,.23.42,1.85,1.85,0,0,1,.11.54,1.22,1.22,0,0,1-.13.61c-.06.13-.13.27-.2.44a2.77,2.77,0,0,1-.26.48,1.87,1.87,0,0,1-.32.4.59.59,0,0,1-.37.18.48.48,0,0,0-.35.21,6,6,0,0,0-.36.53c-.07.1-.17.25-.28.43l-.39.62c-.13.23-.26.46-.38.71a4.76,4.76,0,0,0-.28.69,1.63,1.63,0,0,0-.09.59.45.45,0,0,0,.21.38,1.77,1.77,0,0,0,1.3.09,8.56,8.56,0,0,0,2-.7,13.4,13.4,0,0,0,1.89-1.07,11.89,11.89,0,0,0,1.13-.85.65.65,0,0,0,.17-.22,1.8,1.8,0,0,0,.08-.21,1.67,1.67,0,0,1,.08-.2.72.72,0,0,1,.17-.2,2.28,2.28,0,0,1,.59-.38c.13,0,.2,0,.22.19a.88.88,0,0,1-.3.61,5.23,5.23,0,0,1-.95.83l-1.05.77a12.83,12.83,0,0,1-1.93,1.09,12.39,12.39,0,0,1-1.24.51,10.15,10.15,0,0,1-1.24.34,5.29,5.29,0,0,1-1.06.12,1.62,1.62,0,0,1-.74-.14.76.76,0,0,1-.36-.58,2.38,2.38,0,0,1,.09-1,7,7,0,0,1,.52-1.3,15.58,15.58,0,0,1,.9-1.55c0-.06,0-.09,0-.11a.09.09,0,0,0-.11,0,2.66,2.66,0,0,1-.25.26l-.47.43-.78.64c-.32.25-.72.54-1.18.87l-.69.49c-.27.19-.57.38-.88.58s-.65.39-1,.58-.68.35-1,.48a5,5,0,0,1-.94.29,1.69,1.69,0,0,1-.78,0,.74.74,0,0,1-.53-.38,1.21,1.21,0,0,1-.1-.64,3,3,0,0,1,.21-.78c.12-.28.25-.54.39-.8s.29-.48.43-.69Zm8.71-7.16a.35.35,0,0,1,0,.33,2.89,2.89,0,0,1-.19.35,2.79,2.79,0,0,1-.51.54,8.17,8.17,0,0,1-.68.52,7.35,7.35,0,0,1-.67.4,1.81,1.81,0,0,1-.47.19.58.58,0,0,1-.32,0,.62.62,0,0,1-.2-.15.33.33,0,0,1-.07-.21.16.16,0,0,1,.08-.15,4.31,4.31,0,0,0,1-1,4.84,4.84,0,0,0,.69-1.43.57.57,0,0,1,.27-.35.27.27,0,0,1,.33,0,2.14,2.14,0,0,1,.41.43A3.6,3.6,0,0,1,333.84,13.3Z"/><path class="cls-1" d="M345.23,24.15a1,1,0,0,1-.53-.85A3.21,3.21,0,0,1,345,22a9.63,9.63,0,0,1,.76-1.5c.32-.53.64-1,1-1.53a3.63,3.63,0,0,0,.6-1.24.65.65,0,0,0-.15-.65.8.8,0,0,0-.54-.07,3.9,3.9,0,0,0-.9.28,12.38,12.38,0,0,0-1.19.61c-.45.26-.92.56-1.43.92s-1,.74-1.54,1.15-1,.85-1.46,1.31-.88.91-1.27,1.37a14.14,14.14,0,0,0-1,1.35c-.11.16-.21.23-.32.21a.44.44,0,0,1-.3-.18.91.91,0,0,1-.2-.36.62.62,0,0,1,0-.34,2,2,0,0,1,.15-.34c.08-.18.19-.38.32-.62s.26-.49.42-.76l.44-.77.39-.66c.11-.19.19-.33.25-.41a4.83,4.83,0,0,0,.41-.73,1,1,0,0,0,.07-.71,1,1,0,0,1,0-.5,2.13,2.13,0,0,1,.21-.47,3.37,3.37,0,0,1,.36-.49l.45-.55a1.92,1.92,0,0,1,.27-.29A.27.27,0,0,1,341,16a.57.57,0,0,1,.29.23,3.15,3.15,0,0,1,.36.64.71.71,0,0,1,.06.49,1.54,1.54,0,0,1-.15.37l-.24.37-.4.62-.49.75c-.18.26-.34.5-.49.74l-.4.62-.22.37c0,.06,0,.11,0,.13s.05,0,.11,0,.59-.54,1.17-1,1.32-1.06,2.22-1.72c.5-.37,1-.74,1.58-1.09a15.64,15.64,0,0,1,1.61-.89,6.68,6.68,0,0,1,1.42-.49,1.3,1.3,0,0,1,1,.1A1.21,1.21,0,0,1,349,17a1.8,1.8,0,0,1-.12,1,4.47,4.47,0,0,1-.54,1l-.62.85c-.28.35-.57.73-.88,1.14a13.77,13.77,0,0,0-.81,1.16,3.46,3.46,0,0,0-.45,1,.56.56,0,0,0,.24.66,1,1,0,0,0,.59.13,4.29,4.29,0,0,0,.87-.12,7.43,7.43,0,0,0,1-.31,10.53,10.53,0,0,0,1.11-.47,13.4,13.4,0,0,0,1.89-1.07,10.7,10.7,0,0,0,1.13-.85.65.65,0,0,0,.17-.22c0-.07.06-.14.08-.2a1.67,1.67,0,0,1,.08-.2.63.63,0,0,1,.17-.21,2.07,2.07,0,0,1,.59-.37c.13,0,.2,0,.22.18s-.08.36-.31.6a9.78,9.78,0,0,1-.94.84c-.24.2-.59.46-1,.78a12.73,12.73,0,0,1-1.94,1.08,12.39,12.39,0,0,1-1.24.51,10.15,10.15,0,0,1-1.24.34,5.29,5.29,0,0,1-1.06.12A1.62,1.62,0,0,1,345.23,24.15Z"/><path class="cls-1" d="M359.7,20.51c.05-.11.06-.17,0-.2s-.09,0-.15.06c-.28.27-.62.57-1,.91s-.84.68-1.31,1-.94.65-1.43.94a9.42,9.42,0,0,1-1.41.72,4.43,4.43,0,0,1-1.25.34,1.32,1.32,0,0,1-.93-.2,1.39,1.39,0,0,1-.54-.79,2.2,2.2,0,0,1,0-1,4.32,4.32,0,0,1,.45-1.16,8,8,0,0,1,.79-1.2,10.54,10.54,0,0,1,1-1.11,9.52,9.52,0,0,1,1.12-.93,10.53,10.53,0,0,1,2.6-1.37,8.39,8.39,0,0,1,2.43-.49,4.78,4.78,0,0,1,2,.35,2.74,2.74,0,0,1,1.31,1.09.75.75,0,0,1,.14.59.5.5,0,0,1-.33.33.27.27,0,0,1-.38-.09,2.52,2.52,0,0,1-.29-.55,1.79,1.79,0,0,0-.8-.9,2.43,2.43,0,0,0-1.39-.29,6.27,6.27,0,0,0-1.91.51,11,11,0,0,0-2.37,1.46A12.84,12.84,0,0,0,354.45,20a11.32,11.32,0,0,0-1.2,1.52,4.3,4.3,0,0,0-.59,1.31.76.76,0,0,0,.19.82.87.87,0,0,0,.71.11,4.64,4.64,0,0,0,1.07-.36,12.8,12.8,0,0,0,1.27-.7c.45-.28.88-.57,1.31-.88s.83-.62,1.2-.93.68-.6.93-.85.65-.69.88-1,.4-.5.53-.69A3.27,3.27,0,0,0,361,18a1.9,1.9,0,0,0,.11-.27.53.53,0,0,1,.14-.23.2.2,0,0,1,.18-.05.44.44,0,0,1,.23.19,2,2,0,0,1,.36.91,1.88,1.88,0,0,1-.08,1,3.19,3.19,0,0,1-.13.34,2.38,2.38,0,0,1-.2.39,1.34,1.34,0,0,1-.24.32c-.09.09-.17.13-.26.1s-.15.1-.29.33-.32.55-.54,1-.47.89-.75,1.45-.6,1.18-.95,1.84q1.39-.43,2.49-.9c.72-.32,1.36-.62,1.91-.92a12.58,12.58,0,0,0,1.37-.83l.86-.61a.58.58,0,0,0,.2-.28l.12-.36a3,3,0,0,1,.12-.36.65.65,0,0,1,.2-.28,4.57,4.57,0,0,1,.36-.29,1,1,0,0,1,.3-.18.3.3,0,0,1,.23,0,.43.43,0,0,1,.14.28.6.6,0,0,1-.1.34,2.59,2.59,0,0,1-.31.49,5.5,5.5,0,0,1-.48.54,5.68,5.68,0,0,1-.6.5c-.18.14-.46.33-.82.58s-.84.53-1.41.84a20.08,20.08,0,0,1-2.05,1,26,26,0,0,1-2.78,1c-.55,1.05-1.15,2.17-1.81,3.35s-1.36,2.38-2.09,3.57a28.66,28.66,0,0,1-2,2.73,22.65,22.65,0,0,1-2.27,2.4,18.2,18.2,0,0,1-2.42,1.86,9.59,9.59,0,0,1-2.4,1.13,5.13,5.13,0,0,1-2.24.2,3.68,3.68,0,0,1-1.94-1,3.18,3.18,0,0,1-1.07-2,5,5,0,0,1,.35-2.43A9.22,9.22,0,0,1,342,33.07a13.13,13.13,0,0,1,2.37-2.27A23.88,23.88,0,0,1,347,29a20.89,20.89,0,0,1,2.78-1.3,32.16,32.16,0,0,1,3.26-1c1.2-.32,2.57-.66,4.14-1,.56-1.1,1-2.08,1.44-2.95S359.39,21.1,359.7,20.51ZM353.29,32.3c.75-1.15,1.43-2.25,2-3.28s1.15-2,1.62-2.92c-1.41.33-2.68.66-3.82,1s-2.18.67-3.15,1.05a21.47,21.47,0,0,0-2.73,1.29,23.44,23.44,0,0,0-2.54,1.66,9.47,9.47,0,0,0-1.33,1.22,11.59,11.59,0,0,0-1.13,1.45,9.81,9.81,0,0,0-.82,1.52,5.64,5.64,0,0,0-.42,1.48,3.5,3.5,0,0,0,.05,1.3,1.85,1.85,0,0,0,.62,1,2.83,2.83,0,0,0,1.67.72,5,5,0,0,0,2-.3,9.85,9.85,0,0,0,2.13-1.1,18.31,18.31,0,0,0,2.14-1.7,23.15,23.15,0,0,0,2-2.08A23.88,23.88,0,0,0,353.29,32.3Z"/><path class="cls-1" d="M386,24.15a1.11,1.11,0,0,1-.59-.71,2,2,0,0,1,.12-1,7.58,7.58,0,0,1,.68-1.39l1.07-1.79a4.39,4.39,0,0,0,.59-1.27.61.61,0,0,0-.13-.62.68.68,0,0,0-.55-.12,2.69,2.69,0,0,0-.83.26,7.85,7.85,0,0,0-1.05.63c-.38.27-.78.58-1.2.94l-1.29,1.19c-.45.42-.88.84-1.3,1.28s-.81.86-1.16,1.28a10,10,0,0,0-.89,1.22c-.11.19-.23.28-.35.26a.45.45,0,0,1-.31-.19,1,1,0,0,1-.2-.39.55.55,0,0,1,0-.35c.06-.15.16-.37.3-.64s.29-.57.46-.9.35-.67.53-1l.51-1a7.91,7.91,0,0,0,.58-1.67c0-.36,0-.6-.14-.72s-.6-.11-1.23.18a12.11,12.11,0,0,0-2.45,1.64l-1.23,1c-.45.38-.89.79-1.32,1.21s-.84.87-1.21,1.32a10.41,10.41,0,0,0-.94,1.29c-.09.16-.2.23-.32.21a.46.46,0,0,1-.32-.18,1.31,1.31,0,0,1-.23-.36.52.52,0,0,1-.07-.34,1.73,1.73,0,0,1,.15-.33c.09-.16.2-.36.33-.57l.42-.71.44-.72.37-.61.25-.39.18-.32a1.3,1.3,0,0,0,.13-.3,1.23,1.23,0,0,0,0-.35,2.85,2.85,0,0,0,0-.46,1.38,1.38,0,0,1,0-.57,3.42,3.42,0,0,1,.25-.57,6.27,6.27,0,0,1,.38-.57l.41-.54c.27-.36.51-.48.72-.37a1.74,1.74,0,0,1,.63.79.62.62,0,0,1,0,.48,1.86,1.86,0,0,1-.15.38l-.22.37-.39.66c-.16.25-.31.51-.48.79l-.48.77-.39.63-.21.34c0,.05,0,.09,0,.11s0,0,.07,0c.23-.17.59-.47,1.08-.89s1.11-.93,1.86-1.54l1.42-1.11a16.77,16.77,0,0,1,1.4-1,5.8,5.8,0,0,1,1.29-.62,1.79,1.79,0,0,1,1.11-.06.77.77,0,0,1,.55.46,1.63,1.63,0,0,1,.07.81,4.66,4.66,0,0,1-.28,1c-.14.36-.3.7-.47,1s-.35.66-.53.95l-.42.7c-.05.08-.07.15-.05.19s.06,0,.11,0l.39-.38.57-.51.77-.68q.45-.37,1-.9c.36-.32.77-.66,1.23-1a13.4,13.4,0,0,1,1.41-.95,7.26,7.26,0,0,1,1.39-.62,2,2,0,0,1,1.16-.07c.42.12.66.33.71.61a1.74,1.74,0,0,1-.12,1,6,6,0,0,1-.62,1.16c-.27.42-.53.8-.78,1.15l-1.05,1.53c-.29.42-.51.78-.67,1.07a1.55,1.55,0,0,0-.23.71.48.48,0,0,0,.26.43,1,1,0,0,0,.59.13,4.2,4.2,0,0,0,.86-.12,7.05,7.05,0,0,0,1-.31,10.67,10.67,0,0,0,1.12-.47,13.4,13.4,0,0,0,1.89-1.07,11.89,11.89,0,0,0,1.13-.85.65.65,0,0,0,.17-.22l.08-.2a1.59,1.59,0,0,1,.07-.2.72.72,0,0,1,.19-.21c.5-.43.77-.49.8-.19s-.08.36-.31.6a11.17,11.17,0,0,1-.94.84q-.36.3-1.05.78a12.25,12.25,0,0,1-1.94,1.08,11.49,11.49,0,0,1-1.24.51,9.55,9.55,0,0,1-1.23.34,5.37,5.37,0,0,1-1.06.12A1.7,1.7,0,0,1,386,24.15Z"/><path class="cls-1" d="M393.8,19.57a6.18,6.18,0,0,0,.38-.62.77.77,0,0,0,0-.6.85.85,0,0,1,0-.5,1.7,1.7,0,0,1,.2-.47,3.37,3.37,0,0,1,.36-.49l.45-.55a1.92,1.92,0,0,1,.27-.29.29.29,0,0,1,.26-.07.59.59,0,0,1,.3.23,4.55,4.55,0,0,1,.36.64,1.14,1.14,0,0,1,.12.49.8.8,0,0,1-.09.37,4.55,4.55,0,0,1-.25.41c-.13.18-.26.39-.41.61l-.46.65c-.15.22-.27.4-.36.55l-.31.47c-.14.21-.29.44-.44.69s-.3.51-.44.79a4.38,4.38,0,0,0-.35.78,1.91,1.91,0,0,0-.14.66.48.48,0,0,0,.18.44.86.86,0,0,0,.55.13,4.12,4.12,0,0,0,.84-.12,9.9,9.9,0,0,0,1-.33c.37-.14.74-.3,1.12-.48a13.24,13.24,0,0,0,1.88-1.07A11.47,11.47,0,0,0,400,21a.58.58,0,0,0,.18-.22.6.6,0,0,0,.07-.2,1.59,1.59,0,0,1,.07-.2.72.72,0,0,1,.19-.21,2.21,2.21,0,0,1,.58-.37c.13,0,.2,0,.22.18s-.08.36-.31.6a11.17,11.17,0,0,1-.94.84q-.36.3-1.05.78a12.87,12.87,0,0,1-1.92,1.08c-.41.19-.82.36-1.24.51a9.3,9.3,0,0,1-1.2.35,5.26,5.26,0,0,1-1,.13,1.5,1.5,0,0,1-.72-.13,1.27,1.27,0,0,1-.56-.59,1.45,1.45,0,0,1,0-.89,5.93,5.93,0,0,1,.49-1.32C393,20.87,393.37,20.27,393.8,19.57Zm2.4-7.36a2.85,2.85,0,0,1,.53-.32,2.46,2.46,0,0,1,.56-.19.25.25,0,0,1,.3.13.5.5,0,0,1,.09.41,4.26,4.26,0,0,0-.08.8,5.29,5.29,0,0,0,.06.8,4.14,4.14,0,0,0,.16.75,2.86,2.86,0,0,0,.27.64.15.15,0,0,1,0,.16.34.34,0,0,1-.15.14.47.47,0,0,1-.24.05.54.54,0,0,1-.29-.13,3.66,3.66,0,0,1-.33-.4,7.59,7.59,0,0,1-.42-.66,6.73,6.73,0,0,1-.38-.76,2.86,2.86,0,0,1-.21-.72,1.59,1.59,0,0,1,0-.39A.34.34,0,0,1,396.2,12.21Z"/><path class="cls-1" d="M406.63,24.15a1,1,0,0,1-.52-.85,3,3,0,0,1,.26-1.28,8.83,8.83,0,0,1,.76-1.5c.31-.53.64-1,1-1.53a3.51,3.51,0,0,0,.61-1.24.65.65,0,0,0-.16-.65A.76.76,0,0,0,408,17a3.9,3.9,0,0,0-.9.28,11.38,11.38,0,0,0-1.2.61c-.44.26-.92.56-1.43.92s-1,.74-1.53,1.15-1,.85-1.46,1.31a17.77,17.77,0,0,0-1.27,1.37,12.76,12.76,0,0,0-1,1.35c-.1.16-.21.23-.32.21a.4.4,0,0,1-.29-.18,1.07,1.07,0,0,1-.21-.36.73.73,0,0,1,0-.34,2,2,0,0,1,.15-.34l.32-.62.42-.76.45-.77.38-.66.25-.41a4.16,4.16,0,0,0,.42-.73,1,1,0,0,0,.07-.71.86.86,0,0,1,0-.5,2.07,2.07,0,0,1,.2-.47,6,6,0,0,1,.36-.49l.46-.55a2.62,2.62,0,0,1,.26-.29.29.29,0,0,1,.26-.07.62.62,0,0,1,.29.23,4.55,4.55,0,0,1,.36.64.65.65,0,0,1,.05.49,1,1,0,0,1-.15.37l-.23.37c-.12.18-.25.39-.41.62s-.32.49-.49.75l-.48.74-.4.62c-.12.19-.19.31-.22.37s0,.11,0,.13.06,0,.11,0c.2-.19.59-.54,1.18-1s1.32-1.06,2.21-1.72c.5-.37,1-.74,1.59-1.09a14.66,14.66,0,0,1,1.61-.89,6.81,6.81,0,0,1,1.41-.49,1.29,1.29,0,0,1,1,.1,1.22,1.22,0,0,1,.62.83,1.8,1.8,0,0,1-.12,1,4.47,4.47,0,0,1-.54,1l-.63.85-.87,1.14a12,12,0,0,0-.82,1.16,3.4,3.4,0,0,0-.44,1,.55.55,0,0,0,.24.66,1,1,0,0,0,.59.13,4.2,4.2,0,0,0,.86-.12,7.05,7.05,0,0,0,1-.31,10.67,10.67,0,0,0,1.12-.47,13.4,13.4,0,0,0,1.89-1.07,11.89,11.89,0,0,0,1.13-.85.65.65,0,0,0,.17-.22c0-.07.05-.14.08-.2a1.59,1.59,0,0,1,.07-.2.67.67,0,0,1,.18-.21,2.06,2.06,0,0,1,.58-.37c.13,0,.21,0,.23.18s-.09.36-.31.6a11.17,11.17,0,0,1-.94.84q-.36.3-1,.78a12.25,12.25,0,0,1-1.94,1.08,11.49,11.49,0,0,1-1.24.51,9.55,9.55,0,0,1-1.23.34,5.37,5.37,0,0,1-1.06.12A1.7,1.7,0,0,1,406.63,24.15Z"/><path class="cls-1" d="M419.79,24.15a1,1,0,0,1-.55-.81,2.92,2.92,0,0,1,.2-1.21,8.33,8.33,0,0,1,.69-1.42c.29-.5.61-1,.94-1.48a3.41,3.41,0,0,0,.59-1.25.67.67,0,0,0-.15-.64.57.57,0,0,0-.5-.1,3.53,3.53,0,0,0-.89.28,9.87,9.87,0,0,0-1.19.62,13.9,13.9,0,0,0-1.39,1c-.48.37-1,.79-1.45,1.25s-1,.91-1.39,1.36-.83.89-1.17,1.29a11.6,11.6,0,0,0-.76,1c-.1.16-.21.23-.32.21a.42.42,0,0,1-.29-.18,1.25,1.25,0,0,1-.2-.36.64.64,0,0,1,0-.34,2.83,2.83,0,0,1,.24-.54l.52-.95c.21-.36.42-.73.64-1.13s.43-.73.62-1l.49-.82c.25-.4.54-.89.89-1.47l1.15-1.89,1.27-2.08c.42-.71.84-1.39,1.25-2.06l1.08-1.8.8-1.33c.21-.35.34-.55.37-.62s.17-.33.25-.46a2.48,2.48,0,0,0,.17-.38,1.8,1.8,0,0,0,.08-.39,2.86,2.86,0,0,0,0-.49,1.36,1.36,0,0,1,.06-.56,2.36,2.36,0,0,1,.25-.57q.17-.29.36-.57l.41-.55q.4-.53.72-.36a1.74,1.74,0,0,1,.62.79.62.62,0,0,1,.06.48A1.86,1.86,0,0,1,424,5l-.31.5c-.16.25-.34.53-.53.85l-.63,1-.61,1c-.35.59-.73,1.21-1.13,1.89l-1.24,2.07c-.43.72-.86,1.43-1.28,2.15l-1.22,2.06L416,18.29l-.88,1.49c-.25.42-.45.76-.59,1a4.08,4.08,0,0,0-.22.39c0,.05,0,.09,0,.11s0,0,.09,0l.33-.31.55-.48.84-.71,1.22-1c.47-.36,1-.72,1.47-1.09s1-.68,1.5-1a6.4,6.4,0,0,1,1.4-.61,2,2,0,0,1,1.16-.05c.42.12.65.34.7.64a2.11,2.11,0,0,1-.16,1,6.4,6.4,0,0,1-.62,1.18c-.27.4-.51.75-.72,1s-.53.76-.82,1.14-.54.75-.75,1.08a2.9,2.9,0,0,0-.38.91.54.54,0,0,0,.27.61,1,1,0,0,0,.58.13,4.2,4.2,0,0,0,.87-.12,7.43,7.43,0,0,0,1-.31A11.65,11.65,0,0,0,424,23a13.4,13.4,0,0,0,1.89-1.07A11.47,11.47,0,0,0,427,21a.55.55,0,0,0,.17-.22,1,1,0,0,0,.08-.2,1.67,1.67,0,0,1,.08-.2.63.63,0,0,1,.17-.21,2.07,2.07,0,0,1,.59-.37c.13,0,.2,0,.22.18s-.08.36-.31.6a9.78,9.78,0,0,1-.94.84c-.24.2-.58.46-1,.78a12.73,12.73,0,0,1-1.94,1.08,12.39,12.39,0,0,1-1.24.51,9.68,9.68,0,0,1-1.24.34,5.29,5.29,0,0,1-1.06.12A1.65,1.65,0,0,1,419.79,24.15Z"/></g></g></svg>