<svg xmlns="http://www.w3.org/2000/svg" viewBox="0 0 94.38 45.77"><defs><style>.cls-1{fill:#6b6b6b;}</style></defs><title>Asset 15</title><g id="Layer_2" data-name="Layer 2"><g id="_3" data-name="3"><path class="cls-1" d="M79.17,43.64l0,0a.27.27,0,0,0-.06-.1.79.79,0,0,0-.41-.2c-.35-.2-.73-.36-1.1-.53L75.79,42c-1.15-.53-2.28-1.08-3.46-1.52a46.69,46.69,0,0,0-7.06-1.94A62.09,62.09,0,0,0,58,37.42a40,40,0,0,0-7.42-.06c-1.27.13-2.54.34-3.8.59l1.09-.36c2.22-.73,4.49-1.4,6.64-2.33s4.26-2.09,6.35-3.19c1.07-.56,2.13-1.14,3.16-1.78a16.51,16.51,0,0,0,2.61-2.11l1-.91a11.33,11.33,0,0,0,1.23,1.62,9.45,9.45,0,0,0,5.1,2.61,17.91,17.91,0,0,0,3,.42c1,0,2.12,0,3.17,0s2.21-.15,3.31-.29A21.3,21.3,0,0,0,86.52,31a12.06,12.06,0,0,0,5.37-3.54,10.21,10.21,0,0,0,1.69-2.57A9.49,9.49,0,0,0,94.31,22a5.73,5.73,0,0,0,0-1.49,2.16,2.16,0,0,0-.66-1.25,5.37,5.37,0,0,0-1.28-.82,4,4,0,0,1-1.17-.77c-.51-.57-.21-1.58-.13-2.28a5.11,5.11,0,0,0-.25-2.9,2,2,0,0,0-1-1,6.28,6.28,0,0,0-3.1-4.13,7.21,7.21,0,0,0-2.7-.95,6.92,6.92,0,0,0-1.44,0c-.2,0-.4.07-.6.1a1.33,1.33,0,0,1-.28,0h-.07l0,0-.08-.1-.21-.29c-.15-.24-.31-.48-.47-.71a3.24,3.24,0,0,0-1.13-1,2.88,2.88,0,0,0-1.52-.29.35.35,0,0,0,0-.36A7.78,7.78,0,0,0,77.21,1.8,5.23,5.23,0,0,0,75.71.62,5.82,5.82,0,0,0,72.25.06a7.09,7.09,0,0,0-3.41,1.79,5.31,5.31,0,0,0-1.7,2.63A6.34,6.34,0,0,0,67,6.1c0,.72,0,1.43,0,2.15-.05,1.32.26,2.69-.22,4a12.81,12.81,0,0,1-.88,1.63A16,16,0,0,0,65,15.69a11.9,11.9,0,0,0-1,3.93A15.62,15.62,0,0,0,64,21.55a19.35,19.35,0,0,0,.2,2,8.05,8.05,0,0,0,.27,1,2.12,2.12,0,0,0,.47.92,3.65,3.65,0,0,0,.81.53c.3.17.61.34.92.49a1.33,1.33,0,0,0,.24.11s0,0,0,.06,0,0,0,.05c-.77.64-1.46,1.36-2.24,2a18.41,18.41,0,0,1-2.87,1.84c-2,1.13-4.12,2.21-6.22,3.24a30.73,30.73,0,0,1-3.23,1.38c-1.1.39-2.22.75-3.34,1.12-2.21.74-4.43,1.47-6.67,2.14A63.91,63.91,0,0,1,35.72,40c-2.25.4-4.52.69-6.79.93l-1.81.17q2.73-1,5.35-2.28a48.16,48.16,0,0,0,8-4.78,64.76,64.76,0,0,0,7-6.07,77.23,77.23,0,0,0,6.1-6.8,42.17,42.17,0,0,0,2.68-3.68,29.61,29.61,0,0,0,2-3.75c0-.05,0-.11.08-.17a3.17,3.17,0,0,0,.4-.56.43.43,0,0,0-.11-.57.45.45,0,0,0-.58,0,1.87,1.87,0,0,0-.5.67c-.32.36-.7.66-1,1-.59.56-1.18,1.11-1.79,1.65-1.18,1.06-2.4,2.09-3.64,3.1a36,36,0,0,1-3.82,2.8,38.88,38.88,0,0,1-4.36,2.23c-1.48.69-2.9,1.49-4.32,2.28s-2.72,1.51-4,2.32a36.39,36.39,0,0,0-3.79,2.61,23.43,23.43,0,0,0-3.29,3.24c-1,1.16-1.8,2.44-2.82,3.56a8,8,0,0,0-1.31,1.77c-.16.32-.29.65-.46,1l-.08.14-.05.06-.27.31-.18.25a55.91,55.91,0,0,1-6.47-.16A123.82,123.82,0,0,1,2.27,39L.56,38.7c-.56-.11-.8.74-.24.85,4.58.91,9.17,1.86,13.82,2.42a61.41,61.41,0,0,0,13.21,0A84.79,84.79,0,0,0,39.1,40.2a.39.39,0,0,0,.33,0,2.47,2.47,0,0,1,.9-.09h.91a9.5,9.5,0,0,1,1.84.19,14,14,0,0,1,3.64,1.31,35.67,35.67,0,0,0,3.73,1.54c1.26.44,2.55.8,3.85,1.12a48.54,48.54,0,0,0,7.76,1.39,29.37,29.37,0,0,0,4,0c1.39-.07,2.78-.18,4.16-.33l2.08-.25c.67-.09,1.34-.21,2-.27s1.36-.1,2-.14,1.28,0,1.91-.08a1.89,1.89,0,0,0,.83-.3C79.27,44.18,79.42,43.84,79.17,43.64Zm6.94-13.42a22.51,22.51,0,0,1-3,.54,36.5,36.5,0,0,1-6.18.27,16.76,16.76,0,0,1-2.83-.39,11.76,11.76,0,0,1-2.52-.81,6.94,6.94,0,0,1-2.18-1.62c-.2-.22-.39-.45-.57-.68l.56.06a18.84,18.84,0,0,0,2.4,1,18.27,18.27,0,0,0,2.63.62,28,28,0,0,0,5.08.61,26.39,26.39,0,0,0,2.8-.22,17,17,0,0,0,2.66-.36,18.14,18.14,0,0,0,2.45-.93c.81-.34,1.64-.63,2.43-1a11.18,11.18,0,0,0,1.27-.79L92,26a11.75,11.75,0,0,1-3.14,3A9.44,9.44,0,0,1,86.11,30.22Zm7.36-9.62a4.92,4.92,0,0,1,0,1.38,8.56,8.56,0,0,1-.7,2.68c-.07.14-.14.28-.22.42a4.74,4.74,0,0,1-.61.42l-.92.57c-.36.23-.7.49-1.07.7a21.62,21.62,0,0,1-2.32,1c-.79.34-1.57.7-2.39,1a11.77,11.77,0,0,1-2.5.42c-.91.07-1.82.18-2.73.25a21.44,21.44,0,0,1-4.92-.48,21,21,0,0,1-2.83-.61c-.5-.16-1-.35-1.47-.55.67.06,1.35.09,2,.09a27.81,27.81,0,0,0,5.39-.43,31.82,31.82,0,0,0,5.22-1.61c.86-.33,1.71-.67,2.56-1a21.26,21.26,0,0,0,2.66-1.21,19.14,19.14,0,0,0,2.62-1.73c.4-.32.81-.65,1.18-1a3.2,3.2,0,0,0,.5-.54c.09-.1.17-.21.26-.32A1.31,1.31,0,0,1,93.47,20.6Zm-3-2.49c.57.79,1.59,1.05,2.36,1.58h0c-.17.19-.31.4-.48.58a13.17,13.17,0,0,1-1,.93,13,13,0,0,1-1.11.85c-.38.25-.76.49-1.15.72a17.42,17.42,0,0,1-2.54,1.31l-2.59,1a36.27,36.27,0,0,1-5.1,1.69,19.7,19.7,0,0,1-2.64.46c-.89.08-1.79.11-2.68.13a23.3,23.3,0,0,1-3-.11l-1-.12h0l-.34,0c.28,0,.57,0,.86-.08a18.56,18.56,0,0,0,2.56-.46,28.32,28.32,0,0,0,4.92-1.78c1.69-.77,3.33-1.62,4.94-2.54a48.11,48.11,0,0,0,4.66-2.95c.42-.3.83-.61,1.23-.92a10.22,10.22,0,0,0,1.12-.95,4.68,4.68,0,0,0,.68-.86A2.27,2.27,0,0,0,90.46,18.11ZM90.14,13a3.22,3.22,0,0,1,.17,1.31c0,.25,0,.49-.06.74a4.12,4.12,0,0,1-1.08,2,15,15,0,0,1-2.06,1.66,52.37,52.37,0,0,1-4.58,2.94q-2.37,1.36-4.85,2.52a30.23,30.23,0,0,1-4.85,1.84,20.39,20.39,0,0,1-2.82.56,12.28,12.28,0,0,1-1.35.11h-.41l0-.1c.43-.21.83-.48,1-.56.73-.47,1.47-.93,2.23-1.36s1.82-1,2.73-1.48c1.83-1,3.71-1.93,5.47-3s3.34-2.42,5-3.69c.9-.71,1.82-1.4,2.64-2.19a8.09,8.09,0,0,1,.61-.56c.2-.16.4-.31.59-.49.36-.34.56-.81,1.1-.85a.17.17,0,0,0,.1,0A1.29,1.29,0,0,1,90.14,13Zm-1.26-.88a1.45,1.45,0,0,0-.38.33c-.14.15-.26.31-.41.46s-.37.31-.56.46c-.37.3-.69.65-1,1s-.74.65-1.13,1c-1.59,1.27-3.2,2.53-4.84,3.72a46.54,46.54,0,0,1-5.23,3.08c-.89.47-1.77,1-2.65,1.44s-1.8,1-2.67,1.51c-.54.33-1,.7-1.59,1l-.38.2-.06-.11a30.66,30.66,0,0,0,2.25-2.31c1-1.06,1.92-2.12,2.82-3.23a29.12,29.12,0,0,1,2.78-3A36.81,36.81,0,0,1,79,15a7.78,7.78,0,0,1,2-1.09,10.38,10.38,0,0,1,2.13-.46.13.13,0,0,0,.13-.16A7.57,7.57,0,0,0,86,12.76a8.19,8.19,0,0,1,2.55-.61ZM68,23.74A12.83,12.83,0,0,1,69.17,21a22.16,22.16,0,0,1,1.57-2.6,27.65,27.65,0,0,1,2-2.35,10.83,10.83,0,0,1,4.92-3.31,5.55,5.55,0,0,1,2.77-.17c.46.12.9.29,1.35.44.21.07.42.12.63.17a8.35,8.35,0,0,0-3,1.09c-.59.37-1.14.81-1.7,1.24s-1.09.86-1.61,1.31a23,23,0,0,0-2.9,2.94Q71.78,21.45,70.35,23c-.82.92-1.63,1.87-2.54,2.71A6.81,6.81,0,0,1,68,23.74Zm16-13a14,14,0,0,0,1.52-1.14c.43-.38.84-.78,1.27-1.17a6.78,6.78,0,0,1,.81.7.25.25,0,0,0-.2.09c-.54.72-1.15,1.37-1.75,2a5.34,5.34,0,0,1-1,.87l-.31.19a4.21,4.21,0,0,1-1.23.1,6.43,6.43,0,0,1-1.57-.38A16.15,16.15,0,0,0,84,10.76Zm4.91.52a7.66,7.66,0,0,0-2.89.55l-.45.15.39-.4c.63-.69,1.26-1.37,1.82-2.11a.12.12,0,0,0,0-.09,4.12,4.12,0,0,1,.33.4A4.34,4.34,0,0,1,88.92,11.28Zm-2.5-3.07c-.38.33-.74.69-1.12,1a13.78,13.78,0,0,1-1.5,1.14,14.83,14.83,0,0,1-2.86,1.46c-.16,0-.32-.09-.48-.12a5.51,5.51,0,0,0-.9-.1l.3-.3c.41-.42.78-.87,1.18-1.3s.76-.85,1.11-1.31a8.52,8.52,0,0,1,1.1-1.29.21.21,0,0,0,.07-.14,4.89,4.89,0,0,1,.54,0A6,6,0,0,1,86.42,8.21Zm-5.13-.9a2,2,0,0,0,1.29,0l.17,0a11.38,11.38,0,0,0-.94,1.14c-.37.5-.77.94-1.18,1.4-.22.23-.41.47-.62.7s-.41.43-.61.64-.3.33-.46.48a7.64,7.64,0,0,0-1.57.3l-.53.18.81-1c.44-.55.87-1.1,1.28-1.67.15-.2.29-.41.44-.62.42-.47.86-.94,1.29-1.41a.22.22,0,0,0,.06-.13l.18-.18L81,7A1,1,0,0,0,81.29,7.31Zm-.86-1,.28.41v0c-.35.37-.75.7-1.07,1.09-.18.22-.35.44-.51.67-.39.43-.76.85-1.12,1.3s-.72.92-1,1.39c-.17.24-.32.48-.5.71s-.24.33-.36.49l-.13.15a10.78,10.78,0,0,0-1.47.85,14,14,0,0,0-2.44,2.17,26.8,26.8,0,0,0-2.11,2.54,21.68,21.68,0,0,0-1.62,2.7c-.17.33-.34.67-.5,1,.12-.38.24-.76.37-1.13A24.07,24.07,0,0,1,70,16.58c.78-1.34,1.69-2.6,2.58-3.86.45-.64.91-1.28,1.4-1.89s1-1.18,1.56-1.75,1.2-1.35,1.83-2S78.64,5.87,79.3,5.3a.19.19,0,0,0,.07-.17l.18.1A3.49,3.49,0,0,1,80.43,6.26Zm-3-1.19A3.32,3.32,0,0,1,79,5c-.61.53-1.21,1.06-1.77,1.63S76.14,7.78,75.6,8.36s-1.13,1.21-1.66,1.84-1,1.22-1.43,1.86c-.93,1.29-1.85,2.58-2.67,3.94a23,23,0,0,0-1.93,4.11A16,16,0,0,0,67,23.17a.28.28,0,0,0,0-.09,10,10,0,0,1,.17-2.67,16.42,16.42,0,0,1,2.09-5,17.86,17.86,0,0,0,1.35-2.74c.32-.9.51-1.84.89-2.72A8.78,8.78,0,0,1,75,6.1,9.05,9.05,0,0,1,77.43,5.07Zm-11,19.64-.19-.34a4.22,4.22,0,0,1-.54-1.3,4,4,0,0,1,0-1.25,7.94,7.94,0,0,1,.76-2.42c.12-.23.23-.47.35-.71a11.14,11.14,0,0,0-.58,4.58A10,10,0,0,0,66.39,24.71ZM77.16,3.13c.16.3.29.62.44.93l0,.06c-.13,0-.26,0-.39.09a10,10,0,0,0-4.86,2.9A8.85,8.85,0,0,0,70.77,9.5,25.29,25.29,0,0,0,69.91,12c0-.17.1-.34.14-.5a41.19,41.19,0,0,1,1.72-5.67A16.19,16.19,0,0,1,73.2,3a4.81,4.81,0,0,1,1-1.11,3.1,3.1,0,0,1,1.17-.53,5.8,5.8,0,0,1,.52.34A4,4,0,0,1,77.16,3.13ZM64.92,18.86a10.76,10.76,0,0,1,.5-1.85c.22-.62.48-1.23.74-1.84A13.39,13.39,0,0,1,67,13.58a5.63,5.63,0,0,0,.71-1.7,7.16,7.16,0,0,0,.11-2c0-.68-.08-1.35-.07-2s0-1.34,0-2a4.45,4.45,0,0,1,.85-2.68,5.86,5.86,0,0,1,1.1-1.07,8.67,8.67,0,0,1,1.6-1A4.14,4.14,0,0,1,72.38.79,9.86,9.86,0,0,0,71,2.31a7.74,7.74,0,0,0-1,2.2,39.9,39.9,0,0,0-1,5q-.23,1.28-.57,2.52A7.51,7.51,0,0,1,68,13.14c-.19.38-.42.73-.6,1.11s-.32.72-.51,1.07-.44.77-.67,1.15a12,12,0,0,0-.6,1.12c-.15.36-.24.74-.37,1.11A6.28,6.28,0,0,0,64.85,20v0A8.92,8.92,0,0,1,64.92,18.86Zm.46,5.51a8.52,8.52,0,0,1-.4-1.8c0-.16,0-.32,0-.47s0-.34.09-.5c.09-.4.15-.78.2-1.18a4.6,4.6,0,0,1,.28-1.15c.14-.36.27-.72.39-1.09a5.26,5.26,0,0,1,.52-1.13c.41-.73.86-1.43,1.2-2.2s.76-1.37,1-2.1a16.8,16.8,0,0,0,.63-2.44c.32-1.63.48-3.3.88-4.93a9.52,9.52,0,0,1,.94-2.53A9.16,9.16,0,0,1,72.94.75,5.51,5.51,0,0,1,74.56,1a2.86,2.86,0,0,1,.41.15,3.92,3.92,0,0,0-1.74,1.23,10.41,10.41,0,0,0-1.46,2.58,22.08,22.08,0,0,0-1.13,2.86c-.3,1-.56,2-.83,3.05s-.48,2-.82,2.94a5.7,5.7,0,0,1-.7,1.34c-.28.43-.55.87-.8,1.32-.52.91-1,1.84-1.46,2.79a8.58,8.58,0,0,0-.81,2.51,4.59,4.59,0,0,0,0,1.48,4.86,4.86,0,0,0,.63,1.48c.09.15.18.3.26.46L65.81,25A1,1,0,0,1,65.38,24.37Zm-41.83,17a.35.35,0,0,0,0-.11,3.61,3.61,0,0,0,.22-.39c.16-.33.29-.67.48-1a5.57,5.57,0,0,1,.6-.84c.47-.55,1-1.06,1.41-1.65s.89-1.23,1.37-1.82a24.35,24.35,0,0,1,3.17-3.33,30.84,30.84,0,0,1,3.68-2.64c1.29-.81,2.62-1.55,3.95-2.3s2.82-1.6,4.27-2.3,3-1.33,4.37-2.15A33.36,33.36,0,0,0,51,20.08c1.12-.89,2.2-1.82,3.28-2.75A44.93,44.93,0,0,1,51.08,21a24.39,24.39,0,0,1-3.16,2.67c-1.11.82-2.14,1.74-3.25,2.57s-2.33,1.49-3.5,2.25-2.3,1.55-3.44,2.34c-2.31,1.59-4.59,3.19-6.81,4.9-1.09.85-2.16,1.71-3.2,2.61-.53.45-1,.9-1.55,1.37A18.27,18.27,0,0,1,24.75,41l-.14.09-.94.29Zm9.64-3.85a58.5,58.5,0,0,1-7.38,3.16c.45-.39.89-.8,1.34-1.2,1-.93,2.1-1.82,3.19-2.68,2.22-1.75,4.51-3.39,6.83-5,1.15-.8,2.3-1.61,3.47-2.39s2.38-1.46,3.54-2.24,2.2-1.7,3.29-2.56S49.7,23,50.7,22a45.1,45.1,0,0,0,5.13-6.08l.55-.51-.27.49a31.79,31.79,0,0,1-2.49,3.69,75.72,75.72,0,0,1-5.94,6.85,69,69,0,0,1-6.77,6.13A45.82,45.82,0,0,1,33.19,37.5Zm16.47.63a37.88,37.88,0,0,1,7.3,0,59.22,59.22,0,0,1,7.14,1,52.71,52.71,0,0,1,7,1.8,26.75,26.75,0,0,1,3.29,1.35c.73.36,1.48.7,2.22,1h-.32A30.74,30.74,0,0,1,72.83,43c-.61-.06-1.22-.08-1.82-.14s-1.15-.15-1.72-.24-1.12-.19-1.68-.27-1.17-.13-1.75-.21c-1.22-.16-2.42-.4-3.63-.61s-2.33-.4-3.48-.63-2.34-.47-3.52-.62-2.37-.29-3.55-.47a65.19,65.19,0,0,0-7.52-.64A51.61,51.61,0,0,1,49.66,38.13Zm27.4,5.67c-.68,0-1.36.06-2,.11-1.38.1-2.74.34-4.11.5s-2.7.28-4,.37a36.33,36.33,0,0,1-4,.09,42.71,42.71,0,0,1-7.68-1.25,38.31,38.31,0,0,1-7.51-2.51A20.46,20.46,0,0,0,44,39.62c-.34-.08-.68-.14-1-.19l.35-.09a.17.17,0,0,0,.17.15A65.14,65.14,0,0,1,50.7,40c1.19.16,2.37.37,3.57.51s2.33.32,3.5.55q3.48.7,7,1.28c1.14.18,2.29.27,3.42.46a32.49,32.49,0,0,0,3.39.47c.66,0,1.32.09,2,.17s1.3.2,2,.25,1.25,0,1.88,0h.11l.21.1Z"/></g></g></svg>