<svg xmlns="http://www.w3.org/2000/svg" viewBox="0 0 98.52 164.68"><defs><style>.cls-1,.cls-2{fill:none;stroke:#6b6b6b;stroke-linecap:round;stroke-linejoin:round;}.cls-1{stroke-width:0.75px;}.cls-2{stroke-width:0.72px;}</style></defs><title>Asset 3</title><g id="Layer_2" data-name="Layer 2"><g id="BAO"><path class="cls-1" d="M59.69,50.93c-6.62.59-13.27-2-18.46-6.17s-9-9.77-12.1-15.68c-1.6-3.1-3-6.41-3.1-9.9s1.46-7.2,4.55-8.83a4.93,4.93,0,0,1,2.11-.63,5.37,5.37,0,0,1,4.64,3.13,21.22,21.22,0,0,1,1.59,5.68A41.86,41.86,0,0,0,49,38.27c3.5,3.8,7.86,7.2,9.39,12.13A48.41,48.41,0,0,1,35.5,19.07c-.53-2.48-.32-5.89,2.14-6.48,1.3-.3,2.63.41,4,.34,3-.14,4.58-3.92,7.48-4.67,2.09-.54,4.31.71,5.54,2.48a15.44,15.44,0,0,1,2.11,6.06A260.44,260.44,0,0,1,61,51c.23.52-.75,1-1,.46A163.51,163.51,0,0,1,51.69,26.6c-1-4-1.53-8.94,1.64-11.57a19.74,19.74,0,0,0,2.82-2.14,14.61,14.61,0,0,0,1.56-3.23,7.48,7.48,0,0,1,8.51-3.81,16.76,16.76,0,0,0,2.57.75c2,.24,3.88-1.06,5.9-1.11,2.45-.07,4.64,1.78,5.66,4a15.66,15.66,0,0,1,1,7.23,58.68,58.68,0,0,1-4.84,20.74c-2.58,5.91-7,12-13.45,12.6A342.8,342.8,0,0,0,85.08,9.67c.58-1.27,1.33-2.68,2.69-3,2-.49,3.62,1.82,4.15,3.86a18,18,0,0,1,.3,7.79,5.52,5.52,0,0,0-.12,2.55,9.88,9.88,0,0,0,1.09,1.88c1.1,1.86.83,4.2.31,6.29C89.92,43.51,75.05,54.28,60.19,53.16,62.35,57,67.67,57.05,72,56.68c-.68-1.7-3.45-1.39-4.45.14s-.75,3.53-.47,5.33c3.43,21.8,7.55,44.81-.44,65.38-3.58,9.24-9.63,18.28-8.4,28.12"/><path class="cls-1" d="M72.55,164.3c2.38-11.39-2.33-23.23-9.18-32.64s-15.79-17.08-23.52-25.78-14.47-19-15.43-30.66"/><path class="cls-1" d="M25,70.88A39.72,39.72,0,0,0,41.3,61.07a7.77,7.77,0,0,0,2.47-3.88,1.71,1.71,0,0,0-.7-1.94c-.83-.36-1.67.43-2.25,1.12-4.45,5.4-9.79,10-15.09,14.56A39.31,39.31,0,0,0,37.38,61,5.77,5.77,0,0,0,39,57.24a1.47,1.47,0,0,0-.33-.91,1.39,1.39,0,0,0-1.09-.39c-1.89,0-3,2-4.28,3.41-1,1.17-2.34,2.08-3.33,3.3-1.6,2-2.22,4.59-3.85,6.53a.78.78,0,0,1-.35.28c-.32.08-.61-.28-.6-.61a1.68,1.68,0,0,1,.44-.87,25.28,25.28,0,0,0,3.86-7.13,2.46,2.46,0,0,0,.18-1.28.88.88,0,0,0-.92-.74,1.48,1.48,0,0,0-.55.3,6.38,6.38,0,0,1-3.12,1.16c-1.38.12-2.92-.17-4,.64-.62.45-1,1.17-1.63,1.62a5.6,5.6,0,0,1-2.44.72,5.53,5.53,0,0,0-2.41.88,2.46,2.46,0,0,0-1,2.23,3.81,3.81,0,0,0,1.87,2.23l2.31,1.61a7.56,7.56,0,0,0,3.64,1.66c1.35.09,2.86-.86,2.87-2.21-2.06.22-4.06-.62-6-1.45l-6.66-2.9c-1.35-.59-3-1.17-4.22-.42a13.93,13.93,0,0,1-1.22.84A7.16,7.16,0,0,1,4.5,66c-1.77.35-2.94,2-3.71,3.66a1,1,0,0,0-.13.66c.09.34.49.48.83.56L7.64,72.5a21.23,21.23,0,0,0,6.87,1,10.71,10.71,0,0,0,4.69-1.54A39,39,0,0,0,3.69,69.17"/><path class="cls-1" d="M28.17,70.27A7.38,7.38,0,0,1,25.39,74,10.35,10.35,0,0,1,21,75.69a3.17,3.17,0,0,1-1.88-.13A1.29,1.29,0,0,1,18.45,74"/><path class="cls-1" d="M1.26,68a4.75,4.75,0,0,1-.32-5,1.52,1.52,0,0,1,.61-.67,1.82,1.82,0,0,1,.8-.12,24.64,24.64,0,0,1,5.48.71,3.21,3.21,0,0,0,2.44,0c.83-.53.91-1.68,1.08-2.64a4.67,4.67,0,0,1,1.27-2.71,2.54,2.54,0,0,1,2.8-.54c.71.37,1.27,1.17,2.06,1.09s1.15-1,1.68-1.57a2.7,2.7,0,0,1,4.53,2.77c-.67-.17-.48-1.19-.08-1.75a10,10,0,0,1,4.82-3.69,5.16,5.16,0,0,1,2.45-.35,2.6,2.6,0,0,1,2,1.36c.12.25.23.56.5.62a.76.76,0,0,0,.6-.25,13,13,0,0,1,7.17-2.75,2.24,2.24,0,0,1,1.69.41c.42.42.32,1.33-.27,1.42"/><path class="cls-1" d="M71.22,94.63c-.74-3.58-4.56-3.69-7.73-5.53s-6.64-4-7.48-7.57c-.44-1.84-.08-3.77-.31-5.65-.44-3.58-2.91-6.52-5.16-9.33s-4.5-6-4.35-9.65c2.29,2.24,5.34,3.7,8.15,5.24s5.58,3.73,6.31,6.85c.58,2.48-.24,5.07,0,7.6C61,81.3,68.39,86,71.22,91.86"/><polyline class="cls-2" points="52.96 153.41 7.76 153.41 7.76 78.08"/><polyline class="cls-2" points="7.76 57.73 7.76 0.36 98.16 0.36 98.16 153.41 77.19 153.41"/><path class="cls-1" d="M68.07,123.68c.45-3.82,4.54-5.92,7.14-8.75,3.52-3.84,4.41-9.32,6.33-14.16C83,97,85.21,93.52,87,89.84S90,82.13,89.6,78.08C88.13,84.65,80,88.48,77.22,94.61c-1.54,3.43-1.48,7.33-1.88,11.07s-3,11.32-6.1,13.48"/><path class="cls-1" d="M52.88,119.78a45.6,45.6,0,0,0-22.5-3.73,35.37,35.37,0,0,0-20.69,9.22c2.83-2.21,6.64-2.66,10.24-2.65s7.25.38,10.74-.5c2-.52,4-1.46,6.06-1.88,5.45-1.12,11.24,1.43,16.58-.12"/><path class="cls-1" d="M44.84,77.65c-.49,9.12.2,13.08,4.19,21.14,2.58,5.2,6.16,9.84,9.26,14.75a41.24,41.24,0,0,1,6.19,19c.4,6.91.41,14-1.54,20.64"/><path class="cls-1" d="M58.71,114c-2.87-1.16-5.78-2.46-8-4.64-2.35-2.34-3.72-5.55-6.14-7.82a.66.66,0,0,0-.53-.25c-.35.06-.38.54-.31.88a13.5,13.5,0,0,0,3.87,7,17.21,17.21,0,0,0,6.95,4.07,25.74,25.74,0,0,1,4.34,1.46c1.74-2.93,2-6.29,2.3-9.69a30,30,0,0,0,0-7.45,4.1,4.1,0,0,0-1-2.36.67.67,0,0,0-.37-.22c-.4-.06-.63.42-.73.81C57.76,101.71,60.09,108.14,58.71,114Z"/><path class="cls-1" d="M51.94,103.72A9.6,9.6,0,0,0,49,101.54c-3.3-2-6-4.79-8.72-7.51-1.22-1.22-2.53-2.63-2.52-4.35a1.68,1.68,0,0,1,1-1.69,1.57,1.57,0,0,1,1.48.56,5.9,5.9,0,0,1,.8,1.46c2.1,4.58,5.42,7.85,9.36,11.42a13.3,13.3,0,0,0,.44-6.12c-.25-3-.3-6-.34-9A9.11,9.11,0,0,1,50.87,83c.15-.44.58-.94,1-.73a.89.89,0,0,1,.38.57c.93,2.9.47,6,.37,9C52.49,95.87,53.08,99.93,51.94,103.72Z"/><path class="cls-1" d="M44.81,78,42,75.4a3.15,3.15,0,0,1-1.3-2,.65.65,0,0,1,.16-.49c.23-.21.6-.07.91-.12a1.83,1.83,0,0,0,.83-.52.87.87,0,0,1,.92-.24,3.37,3.37,0,0,0,.32.19.91.91,0,0,0,.63-.15,1.28,1.28,0,0,1,1.71.56.76.76,0,0,1,.95.39c.14.31.63.6.81.89a1.36,1.36,0,0,1,.24.63,1.15,1.15,0,0,1-.29.76c-.81,1.1-2.25,1.64-3,2.8"/><path class="cls-1" d="M44,72.25a11.2,11.2,0,0,0,.84,5.51,20.28,20.28,0,0,1,.81-3.06c.21-.73.39-1.47.56-2.21"/><path class="cls-1" d="M41.86,72.82c.11.25.22.49.31.74s.2.74.32,1.09a11.07,11.07,0,0,0,2.1,3.11"/></g></g></svg>