<svg xmlns="http://www.w3.org/2000/svg" viewBox="0 0 72.47 52.54"><defs><style>.cls-1{fill:#fde8f1;}.cls-2{fill:#6b6c6c;}</style></defs><title>Asset 7</title><g id="Layer_2" data-name="Layer 2"><g id="_1" data-name="1"><g id="_2" data-name=" 2"><path class="cls-1" d="M29.26,50.35c-3.23-2-2.35-7.59-5.49-9.77a9.3,9.3,0,0,0-3.24-1.15A36.74,36.74,0,0,1,2.4,29c.42-1.12,2.16-.5,3.23-1a2.16,2.16,0,0,0,1-2.28,10.63,10.63,0,0,0-.91-2.49,10.11,10.11,0,0,1-.59-5.44,5.28,5.28,0,0,1,2.45-3.91,4.78,4.78,0,0,1,2.35-.45c3.34.13,6.17,2.49,8.36,5s4.13,5.39,7,7.16a62.47,62.47,0,0,1,1.15-18.8c.31-1.79,1-3.79,2.75-4.37a3.58,3.58,0,0,1,3.24.85c2,1.65,2.43,4.44,2.76,7,.72,5.6,1.45,11.3.43,16.85,3.41-2,4.9-6.1,7.35-9.23s6.18-5.5,9.73-7.66a2.79,2.79,0,0,1,2-.59,1.87,1.87,0,0,1,1.2,2.07A5.42,5.42,0,0,1,54.83,14l-9.6,14.29c5.89-2.68,12.75-2.07,19.06-.65A12.24,12.24,0,0,1,69,29.48a4.58,4.58,0,0,1,2,4.41c-.42,2-2.51,3.22-4.44,4A35.92,35.92,0,0,1,55.47,40.3a2.15,2.15,0,0,1-1,3.08,6.23,6.23,0,0,1-3.62.37l-15.7-1.54a1.62,1.62,0,0,0-.44,0c-.42.13-.55.65-.6,1.09a17.66,17.66,0,0,1-.71,4.39,4,4,0,0,1-3.14,2.81Z"/><path class="cls-2" d="M7.34,35.15c3.87,2.25,7.73,4.55,12.12,5.6a34.46,34.46,0,0,0,3.59.7,11,11,0,0,0,.21,1.81A15.75,15.75,0,0,0,24.32,47a11,11,0,0,0,5.41,5.57c1.18.13,3-.29,5-3a13.59,13.59,0,0,0,1-3.17c.09-.53.18-1.07.23-1.61a9.61,9.61,0,0,1,.13-1.42.06.06,0,0,0,0-.06l1.57.28c2.19.41,4.38.78,6.57,1.16q2.7.48,5.38.79a12.41,12.41,0,0,0,3.75,0,3.5,3.5,0,0,0,3.16-3.8h1.24a25.49,25.49,0,0,0,4-.32,23.21,23.21,0,0,0,6.48-2.26c1.69-.76,3.64-1.9,4.06-3.86a7.64,7.64,0,0,0-1.14-5.86c-2.34-3.4-6.54-4.09-10.37-4.57A25,25,0,0,0,48.89,26l.25-.24A26.89,26.89,0,0,0,53.85,20a25,25,0,0,0,2.82-6.34c.39-1.51.66-3.53-.54-4.77-1.77-1.83-4.47-.65-6.22.53a26.07,26.07,0,0,0-5,4.73c-1.65,1.92-3.18,4-4.7,6a32.65,32.65,0,0,0-2.68,4.28,31.09,31.09,0,0,0,.2-10.14,35.33,35.33,0,0,0-1.86-7.08A18.93,18.93,0,0,0,33.13,2,4.36,4.36,0,0,0,27.9.3c-1.59.74-2.52,2.47-3.11,4a22.77,22.77,0,0,0-1.15,6.23,49,49,0,0,0,.16,7.66c.13,1.71.24,3.43.48,5.13-.34-.48-.68-.94-1-1.4a37.69,37.69,0,0,0-7.88-7.77A22.72,22.72,0,0,0,11.73,12a6.75,6.75,0,0,0-4.45-.75,6,6,0,0,0-3.63,3.29,12.18,12.18,0,0,0-1.17,5,11.54,11.54,0,0,0,.85,4.93,9.47,9.47,0,0,0,1.3,2.16,10.09,10.09,0,0,0-1.44.17,5.6,5.6,0,0,0-2.52,1.1,2,2,0,0,0-.38,2.54A5.17,5.17,0,0,0,2.05,32C3.8,33,5.55,34.11,7.34,35.15ZM33.39,43a1.13,1.13,0,0,0,.21.69c-.07.64-.07,1.3-.19,1.94a12.07,12.07,0,0,1-.84,3,5.23,5.23,0,0,1-1.74,1.82,8.74,8.74,0,0,1-4.37-4.55A14.37,14.37,0,0,1,25.63,43a7.08,7.08,0,0,1-.14-1.3H26a14.9,14.9,0,0,0,3.12-.56,6.38,6.38,0,0,1,1.15-.1c.38.23.78.46,1.18.66a21.4,21.4,0,0,0,2,.94A1.39,1.39,0,0,0,33.39,43ZM54,41.28a1.1,1.1,0,0,1,.22,1.27s-.08.14-.15.24l-.14.15h-.07a.19.19,0,0,1-.09.05l-.26.13-.35.1-.42.08a.67.67,0,0,1-.2,0h-.45A25.31,25.31,0,0,1,48.6,43c-2.13-.26-4.24-.71-6.35-1.08s-4.41-.72-6.56-1.25a14.5,14.5,0,0,1-3.28-1.31l.55-.14a1.47,1.47,0,0,0,.39.21A1.25,1.25,0,0,0,34.78,39a40.54,40.54,0,0,1,11.64-.23A16,16,0,0,1,52.17,40,6.62,6.62,0,0,1,54,41.28ZM28.22,34.11h0c0-.09.15-.1.09-.06l.14-.07.29-.08.35-.06h.24a10.85,10.85,0,0,1,1.62.09h.18l.3.07c.19,0,.38.1.57.17a4.51,4.51,0,0,1,1.12.5l.1.06.13.08.38.27.18.17.21.24a1.62,1.62,0,0,0,.1.18,1.05,1.05,0,0,0,.05.19.43.43,0,0,0,0,.16,1.23,1.23,0,0,1-.08.29.79.79,0,0,0-.08.16l-.25.13H33.8q-1.62.33-3.24.78l-.26.11c-.35-.36-.68-.74-1-1.14a5.17,5.17,0,0,1-1.13-2v-.21h0Zm8.46.22c.06-.12.12-.24.19-.36v.16A1.8,1.8,0,0,0,36.68,34.33Zm24.25-7c3,.38,6.66.89,8.36,3.7A4.74,4.74,0,0,1,70,33.19a3.33,3.33,0,0,1-.28,2.11c-.81,1.2-2.57,1.73-3.86,2.31a17.85,17.85,0,0,1-5.37,1.57,18.29,18.29,0,0,1-3,.16,8.83,8.83,0,0,0-1.26,0h-.71a.7.7,0,0,1-.19-.06h-.14a3.5,3.5,0,0,0-.46-.39,11.45,11.45,0,0,0-5.5-2.18,48.71,48.71,0,0,0-6.28-.59h-3.1c.43-.15.85-.3,1.28-.43a31.77,31.77,0,0,1,4.29-1c3-.52,6.12-.64,9.13-1.25a.51.51,0,0,0-.1-1c-3.07.33-6.17.5-9.21,1a33.69,33.69,0,0,0-4.4,1c-.64.2-1.28.43-1.92.67h0c3.34-2.7,7-5.42,11.07-6.88A23.59,23.59,0,0,1,61,27.31ZM40.48,24a29.93,29.93,0,0,1,2.25-3.22C44.12,19,45.49,17.11,47,15.39a20.46,20.46,0,0,1,4.6-4.16,4.16,4.16,0,0,1,2.27-.82,1.13,1.13,0,0,1,.52.24h0a1.42,1.42,0,0,1,.15.56,5.26,5.26,0,0,1-.06,1.12v.28a2.77,2.77,0,0,1-.1.43,16.29,16.29,0,0,1-.92,2.62A24.77,24.77,0,0,1,50,21.53a38.91,38.91,0,0,1-4.72,4.8C43.52,28,41.71,29.48,40,31.1l-.48.44c-.75.57-1.48,1.15-2.21,1.73.53-.9,1.11-1.77,1.69-2.64.9-1.33,1.8-2.66,2.82-3.9s2.12-2.43,3.23-3.6a24.31,24.31,0,0,0,3.15-3.5c.3-.46-.38-1.05-.76-.62-1.06,1.18-2.26,2.24-3.35,3.39s-2.2,2.38-3.24,3.63A47.57,47.57,0,0,0,38,30c-.79,1.18-1.56,2.36-2.24,3.61l-.21-.21a64.2,64.2,0,0,0,3.13-5.91C39.21,26.31,39.81,25.13,40.48,24ZM26.81,24a75.19,75.19,0,0,1-.76-7.54,36.82,36.82,0,0,1,.12-7.12A17,17,0,0,1,27.3,4.47l.1-.21L27.52,4c.09-.16.18-.32.28-.48l.31-.45h.05A1.07,1.07,0,0,1,28.3,3a3.17,3.17,0,0,1,.39-.34L29,2.47H29l.21-.06h.31a2.19,2.19,0,0,1,1.55.88,8.55,8.55,0,0,1,1.36,2.16,29.6,29.6,0,0,1,1.94,5.23,30.6,30.6,0,0,1,1.18,6.43,35.08,35.08,0,0,1-2.4,14,1.12,1.12,0,0,0,.1.91,8.36,8.36,0,0,0-1-.33l-.41-.09c0-2.66-.1-5.29-.29-8-.1-1.38-.14-2.76-.23-4.14a18,18,0,0,0-.73-3.78.5.5,0,0,0-.61-.38.51.51,0,0,0-.39.61h0c.19,1.31.43,2.59.51,3.92s.13,2.64.22,4c.18,2.53.28,5,.28,7.56a8.43,8.43,0,0,0-1.74,0,1.11,1.11,0,0,0-.2-.52v-.22a1.83,1.83,0,0,0-.07-.32,5.28,5.28,0,0,0-.28-.85c-.23-.59-.46-1.16-.65-1.76A32.1,32.1,0,0,1,26.81,24ZM5.25,22.72A10.68,10.68,0,0,1,5,18.15a7.09,7.09,0,0,1,1.45-3.6,4,4,0,0,1,.7-.66,1.73,1.73,0,0,1,.63-.33,2.84,2.84,0,0,1,1.36,0A10,10,0,0,1,12.27,15,30.75,30.75,0,0,1,15.8,17.5a37.71,37.71,0,0,1,6.49,7.1,22.5,22.5,0,0,1,2.48,4.24A9.73,9.73,0,0,1,25.49,31a.89.89,0,0,0,.06.39c-.83-1.11-1.66-2.21-2.52-3.29-1.27-1.59-2.74-3-3.56-4.91a.49.49,0,0,0-.66-.2.53.53,0,0,0-.26.42A4.73,4.73,0,0,0,19.74,26c.7.89,1.45,1.73,2.16,2.6,1.3,1.62,2.54,3.28,3.77,5a1.42,1.42,0,0,0,.16.45A3.2,3.2,0,0,0,26,35.15a.09.09,0,0,1,0,.07c-.48-.3-1-.6-1.45-.89C20.71,32,17,29.46,12.75,27.89a20.86,20.86,0,0,0-4.35-1.1,1,1,0,0,0-.44-.5A6.12,6.12,0,0,1,5.25,22.72ZM2.9,29.33A7,7,0,0,1,5.5,29a20,20,0,0,1,3,.23c4.39.76,8.15,3.2,11.9,5.46,1.9,1.15,3.82,2.26,5.69,3.45.45.29.89.59,1.33.89a10,10,0,0,1-2.32.18,1,1,0,0,0-1-.06c-.72-.06-1.44-.17-2.15-.3A28.21,28.21,0,0,1,15.66,37a60.53,60.53,0,0,1-5.78-3.1c-1.9-1.1-3.8-2.16-5.61-3.36-.49-.32-1.18-.72-1.62-1.06Z"/></g></g></g></svg>