<svg xmlns="http://www.w3.org/2000/svg" viewBox="0 0 85.81 65.19"><defs><style>.cls-1{fill:#6b6b6b;}</style></defs><title>Asset 13</title><g id="Layer_2" data-name="Layer 2"><g id="_4" data-name="4"><path class="cls-1" d="M72.5,59.35a2.26,2.26,0,0,0,1.34-.9,6.22,6.22,0,0,0,.43-.76c.13-.24.29-.48.39-.72a7.91,7.91,0,0,0,.4-1.5A10.2,10.2,0,0,0,75.23,54,17.46,17.46,0,0,0,75,50.78a16.16,16.16,0,0,0-2.66-6.12,34.35,34.35,0,0,0-4.18-5.07,35.08,35.08,0,0,0-6.37-5.43l.86.08c1.08.12,2.16.22,3.25.28a40.28,40.28,0,0,0,6.59-.15A25.31,25.31,0,0,0,78.76,33a12.8,12.8,0,0,0,5.34-3.47,8.09,8.09,0,0,0,1.44-2.56,3.67,3.67,0,0,0,0-2.82A4.77,4.77,0,0,0,81,21.51a10.72,10.72,0,0,0-2.45.4c-1,.25-2,.53-3,.84-2.17.66-4.33,1.33-6.52,2s-4.29,1.31-6.44,2a18.85,18.85,0,0,1-3.14.74l-.51.08c.67-.59,1.32-1.2,2-1.78a24.62,24.62,0,0,0,2.36-2.32c1.44-1.66,2.9-3.32,4.22-5.08a36.73,36.73,0,0,0,3.24-5,19.07,19.07,0,0,0,1.9-5.64c.28-1.64.81-4.49-1.15-5.34s-4.09.49-5.53,1.73A30.09,30.09,0,0,0,61.69,8.9a60.36,60.36,0,0,0-3.61,5.35,66.77,66.77,0,0,0-4.56,9c0-.11,0-.22,0-.34-.11-1.14-.29-2.28-.46-3.42a59.92,59.92,0,0,0-1.34-6.79,48.3,48.3,0,0,0-2-5.88A25.36,25.36,0,0,0,48.5,4.06a7.18,7.18,0,0,0-.93-1.39c-.28-.31-.48-.69-.78-1a10.14,10.14,0,0,0-1.15-.9,4.72,4.72,0,0,0-1-.58,2.64,2.64,0,0,0-2.47.23,4.07,4.07,0,0,0-1.37,2.05A9.52,9.52,0,0,0,40.22,5,16.26,16.26,0,0,0,41,10.81a36.43,36.43,0,0,0,2.24,5.68C44.08,18.34,45,20.17,45.9,22l.13.25a7.31,7.31,0,0,0-.59-.52c-.83-.69-1.75-1.26-2.63-1.89a23.2,23.2,0,0,1-2.33-2,18.21,18.21,0,0,0-4.38-3.27,10.62,10.62,0,0,0-4.86-1.1c-1.92,0-4,.52-5.1,2.28a6.79,6.79,0,0,0-.95,2.61,3.74,3.74,0,0,0,0,1.49,3.87,3.87,0,0,0,.71,1.4A11.43,11.43,0,0,0,27,22.39c.39.37.78.73,1.2,1.06a25.73,25.73,0,0,0,2.56,1.75A49.58,49.58,0,0,0,36.26,28c1.4.63,2.82,1.22,4.28,1.71h-.39c-2.16,0-4.32-.06-6.48,0a49.58,49.58,0,0,0-6.33.53,12.58,12.58,0,0,0-4.67,1.52,5.19,5.19,0,0,0-2.73,4.12,5.92,5.92,0,0,0,2.85,4.47,6.22,6.22,0,0,0,2.6,1,19.78,19.78,0,0,0,3.35.14,30,30,0,0,0,6.42-1.31L37,39.67c-.94.61-1.88,1.25-2.8,1.91-3.56,2.55-7,5.24-10.66,7.65S15.91,54,12,56.19,4.14,60.62.12,62.65c-.69.34,1.8.75,3.18,0,4-2.12,8-4.37,11.94-6.65S22.93,51.49,26.62,49s7.09-5.29,10.76-7.77q2.74-1.86,5.61-3.54l1.33-.77c-.53.58-1,1.17-1.57,1.75a105.89,105.89,0,0,0-8.81,10.8c-.63.93-1.23,1.88-1.79,2.84a23.17,23.17,0,0,0-1.42,3,10.43,10.43,0,0,0-.48,1.53,5.82,5.82,0,0,0-.17.83,6.74,6.74,0,0,0,0,.9,3.82,3.82,0,0,0,.25,1.68,2.39,2.39,0,0,0,1,1,2,2,0,0,0,.64.43,2.89,2.89,0,0,0,.88.13,5.63,5.63,0,0,0,1.69,0,10.29,10.29,0,0,0,3.61-1.69,25.4,25.4,0,0,0,5.13-4.91,44.31,44.31,0,0,0,4-5.71,65.6,65.6,0,0,0,3.21-6.38L51,41.86c-.09.56-.17,1.12-.25,1.69-.3,2.27-.57,4.56-.86,6.83a46,46,0,0,0-.46,6.42,17.52,17.52,0,0,0,1,6,4.27,4.27,0,0,0,1.3,1.9,2.6,2.6,0,0,0,2.5.3,5.64,5.64,0,0,0,2.59-2.09,14.85,14.85,0,0,0,1.62-2.67c1.68-3.58,1.72-7.67,1.54-11.54a43,43,0,0,0-.89-7.07c-.16-.74-.34-1.49-.55-2.23.4.68.78,1.37,1.15,2.06,1.08,2,2.06,4.1,3.14,6.12s2.13,4,3.25,5.91c.56,1,1.15,1.94,1.8,2.86A11.61,11.61,0,0,0,70,58.82a2.86,2.86,0,0,0,1.23.64A3.09,3.09,0,0,0,72.5,59.35ZM53,38.36c0-.53.12-1.06.14-1.59a4.34,4.34,0,0,0,0-.51,7.1,7.1,0,0,0,.92-.17A39.64,39.64,0,0,1,54.55,41c.06,1.69-.09,3.38-.15,5.07a.27.27,0,0,0,.54.07A41.65,41.65,0,0,0,55.26,41a36.66,36.66,0,0,0-.51-5l0-.08.48-.22a.49.49,0,0,0,.13.23,7.4,7.4,0,0,1,.94,1.28,12.38,12.38,0,0,1,1.15,3.13c.27,1.08.52,2.16.7,3.27a48.44,48.44,0,0,1,.57,6.49c.09,3.54-.17,7.31-1.94,10.47a9.8,9.8,0,0,1-1.7,2.34,3.66,3.66,0,0,1-1.21.84,2.09,2.09,0,0,1-.56.14h-.17a.76.76,0,0,0-.14,0,1.25,1.25,0,0,1-.61-.41,2.77,2.77,0,0,1-.48-.77,10,10,0,0,1-.67-2.27c-.8-4-.15-8,.39-12,.31-2.23.52-4.47.9-6.69C52.69,40.59,52.88,39.49,53,38.36Zm-4.26-3.45a4.29,4.29,0,0,0,.8.62.35.35,0,0,0-.16.18c-1.08,2.38-2.24,4.72-3.37,7.07-.17.35.37.54.55.22q1.89-3.45,3.51-7a.4.4,0,0,0,0-.15,5.24,5.24,0,0,0,1.08.35.54.54,0,0,0-.06.25,5.09,5.09,0,0,1-.2,1.4,29.24,29.24,0,0,1-1.09,3.06c-.46,1-.91,2.1-1.39,3.14a54,54,0,0,1-3.11,5.81,43.25,43.25,0,0,1-3.93,5.3,20.24,20.24,0,0,1-4.87,4.27,6.3,6.3,0,0,1-2.82,1c-.25,0-.49-.06-.74-.08a1.72,1.72,0,0,1-.48,0A3.44,3.44,0,0,1,32,60a.92.92,0,0,1-.34-.34,3.06,3.06,0,0,1-.13-1.36,5.06,5.06,0,0,1,.2-1.44c.14-.49.34-1,.53-1.43s.39-1,.62-1.46a28.92,28.92,0,0,1,1.63-2.73c.6-.93,1.23-1.85,1.88-2.74q2-2.68,4.19-5.17c1.55-1.72,3-3.49,4.61-5.2a24.32,24.32,0,0,1,2.43-2.33c.31-.27.63-.51.95-.76ZM42,31.2c1.05,0,2.07.08,3.11.16.73.06,1.45.09,2.17.09,0,.1,0,.2,0,.29l0,.38h-.05c-1.07.19-2.15.33-3.2.58s-2.06.56-3.1.78a36,36,0,0,1-6.2.76c-.4,0-.32.58,0,.65a4.71,4.71,0,0,0,1.5,0l1.59-.19c1-.12,2.1-.28,3.14-.49s2.1-.53,3.16-.79,2.13-.4,3.2-.58l.1,0c0,.13.08.25.13.38a19.93,19.93,0,0,0-2.33,1.43L44,35.35A35.74,35.74,0,0,1,40.43,37a62.32,62.32,0,0,1-6.71,2.14,23.72,23.72,0,0,1-6,1c-.51,0-1-.07-1.54-.12a5.13,5.13,0,0,1-1.29-.22,5.55,5.55,0,0,1-2.06-1.23,5.42,5.42,0,0,1-1.28-1.82,2.31,2.31,0,0,1,.19-2.06A5.55,5.55,0,0,1,25,32.29a21.23,21.23,0,0,1,5-.9c2-.18,4-.24,6-.25S40,31.2,42,31.2ZM45.63,24c1.1,1.24,2,2.66,3,3.94-.17.22-.32.46-.47.69a0,0,0,0,0,0,0c-1.34-1.05-2.67-2.1-4.08-3a22.54,22.54,0,0,0-2.17-1.29,13.06,13.06,0,0,0-2.25-1c-.34-.1-.65.35-.32.57a20.41,20.41,0,0,0,2.24,1.13,21.45,21.45,0,0,1,2.11,1.27c1.4.93,2.71,2,4,3a.25.25,0,0,0,.12.07q-.14.29-.24.57c-.26,0-.52,0-.78-.06-.54-.06-1.09-.1-1.63-.18A21.06,21.06,0,0,1,42,28.81a49.06,49.06,0,0,1-6-2.42A43.81,43.81,0,0,1,31,23.67a21.13,21.13,0,0,1-2.37-1.73c-.36-.31-.68-.65-1-1a3.68,3.68,0,0,1-.83-1,3,3,0,0,1,.05-2.28,4,4,0,0,1,1.35-1.95A4.74,4.74,0,0,1,30.61,15a8.32,8.32,0,0,1,2.23.07,10.12,10.12,0,0,1,4.07,1.68c1.52,1,2.73,2.43,4.15,3.6S44.33,22.48,45.63,24ZM52.1,24l.06.75,0,.38c0-.06,0,.22,0,.17v.25a4.24,4.24,0,0,0-1.42.47,25.1,25.1,0,0,0-.74-3.94,20.46,20.46,0,0,1-.59-2.17,6.2,6.2,0,0,0-.4-2c-.13-.22-.57-.25-.58.09a5.89,5.89,0,0,0,.11,1c0,.36.07.72.14,1.07a20.93,20.93,0,0,0,.57,2.06,27.61,27.61,0,0,1,.8,4.32l-.1.07c-1.11-1.84-2.08-3.77-3-5.71S45,17,44.14,15a30.18,30.18,0,0,1-2-5.36,13.05,13.05,0,0,1-.4-5.2,6.66,6.66,0,0,1,.68-2.12c.28-.52.66-.9,1.25-.81a4.07,4.07,0,0,1,1.63.9,3,3,0,0,1,.81.85c.27.4.59.75.84,1.16A17.31,17.31,0,0,1,48.17,7c.38.9.74,1.81,1.06,2.74a44.85,44.85,0,0,1,1.57,5.58c.41,1.93.7,3.88,1,5.84C51.91,22.07,52,23,52.1,24Zm4.55,3.52a10.3,10.3,0,0,0-.91-.83c1.09-1.5,2.16-3,3.3-4.5.63-.82,1.29-1.61,2-2.38.34-.38.69-.76,1-1.16a3.24,3.24,0,0,0,.72-1,.29.29,0,0,0-.5-.27c-1.32,1.45-2.65,2.9-3.86,4.46s-2.19,3-3.28,4.47a5.33,5.33,0,0,0-1.38-.61,62.66,62.66,0,0,1,5.95-11.61c1.09-1.68,2.26-3.33,3.51-4.9a24.38,24.38,0,0,1,4.11-4.38A5.71,5.71,0,0,1,69.57,3.6c.69-.14,1.52-.12,1.81.6a4.92,4.92,0,0,1,.07,2.61,24,24,0,0,1-.57,2.75,18.89,18.89,0,0,1-2.34,5,46.61,46.61,0,0,1-3.41,4.62c-.68.82-1.38,1.61-2.08,2.41s-1.28,1.49-2,2.17-1.59,1.37-2.38,2.07S57.37,27,56.65,27.53Zm-.39,2c.05.14.09.28.13.42l.08.23s0,.08,0,.11.06.29.08.43l.06.33A5.21,5.21,0,0,1,55.5,33.6a3.77,3.77,0,0,1-2.35,1.16,4.93,4.93,0,0,1-2.3-.18,3.36,3.36,0,0,1-1.66-1.46,3.09,3.09,0,0,1-.41-1.89.85.85,0,0,0,.14-.73,5.28,5.28,0,0,1,.93-1.71,5.09,5.09,0,0,1,2-1.64,2.78,2.78,0,0,1,2.45.34A4.69,4.69,0,0,1,56.26,29.55Zm8.09,3.37c-1-.09-2.07-.19-3.1-.33a11.51,11.51,0,0,1-1.43-.23c-.37-.1-.72-.24-1.08-.36a2,2,0,0,1-.44-.54c1.57-.3,3.16-.54,4.74-.84.83-.16,1.66-.35,2.49-.5a17.1,17.1,0,0,1,2.37-.21c.32,0,.28-.49,0-.53a14,14,0,0,0-4.89.49c-1.63.31-3.27.56-4.89.87v-.1l0,0v-.05a8.39,8.39,0,0,0-.18-.84c-.05-.17-.1-.34-.16-.51l.15,0c.26-.05.51-.13.77-.19.56-.12,1.13-.17,1.69-.27a31.38,31.38,0,0,0,3.45-.94c2.25-.74,4.52-1.42,6.8-2.07,2-.58,4.08-1.25,6.13-1.86.83-.24,1.66-.47,2.51-.67A7.94,7.94,0,0,1,81.38,23c1.31.07,2.93,1,3,2.45A3.38,3.38,0,0,1,84,26.68a6.6,6.6,0,0,1-.54,1.1,7.23,7.23,0,0,1-1.88,2,15.18,15.18,0,0,1-5.25,2.4,29.59,29.59,0,0,1-6,.89A43.48,43.48,0,0,1,64.35,32.92Zm7.54,25.2a1.68,1.68,0,0,1-.39.07,1.71,1.71,0,0,1-.93-.54,6.35,6.35,0,0,1-.89-1c-.32-.43-.64-.86-.94-1.3-1.21-1.79-2.21-3.71-3.25-5.6s-2-3.84-3-5.79-2-3.95-3.17-5.83c-.55-.89-1.13-1.76-1.7-2.64-.22-.32-.51-.59-.74-.91l-.12-.15a5,5,0,0,0,.42-.6l.12.11a1.2,1.2,0,0,0,.25.34.39.39,0,0,0,.1.16,36.45,36.45,0,0,0,3.92,3c.67.46,1.31.93,1.94,1.44s1.23,1.09,1.86,1.62c.27.23.63-.17.42-.43A17.51,17.51,0,0,0,62,36.81a36.25,36.25,0,0,1-3.91-3c.32.14.64.28.94.44a32.54,32.54,0,0,1,9,7.39,27.18,27.18,0,0,1,3.78,5,16.59,16.59,0,0,1,1.31,2.84,14.79,14.79,0,0,1,.58,3,8.84,8.84,0,0,1-.09,2.81,4.38,4.38,0,0,1-.4,1.32,3.51,3.51,0,0,1-.79,1.25A1.72,1.72,0,0,1,71.89,58.12Z"/></g></g></svg>