<svg xmlns="http://www.w3.org/2000/svg" viewBox="0 0 355.17 421.41"><defs><style>.cls-1{fill:none;stroke:#6b6b6b;stroke-linecap:round;stroke-linejoin:round;stroke-width:0.75px;}</style></defs><title>Asset 5</title><g id="Layer_2" data-name="Layer 2"><g id="_1" data-name="1"><polyline class="cls-1" points="231.92 411.64 32.09 411.64 32.09 224.27"/><path class="cls-1" d="M243.22,414.37c55.2-36.22,96.76-7,111.58,6.66"/><path class="cls-1" d="M248.15,405.78a23.72,23.72,0,0,1,7.23.25,2.23,2.23,0,0,1,1.13.4c1.16.91-.94,4-1.5,4.92a18.54,18.54,0,0,1-3.73,4.36c-2.58,2.22-8.89,4.83-12.19,3.19a4.76,4.76,0,0,1-1.36-.95,4.47,4.47,0,0,1-1.11-3.55,7.36,7.36,0,0,1,1.45-3.5c1.68-2.32,6.38-4.42,9.18-5Z"/><path class="cls-1" d="M305.77,394a15,15,0,0,0-3.92-7.25,16,16,0,0,0-8.09-4.42,8.72,8.72,0,0,0-5.46.49,3.58,3.58,0,0,0-2.09,3.86c.33,1.63,1.79,3.13,3.34,4.38a28.77,28.77,0,0,0,10.19,5c2.14.69,4.24,1,6.35,1.54a.37.37,0,0,0,.23,0,.19.19,0,0,0,0-.18A26.58,26.58,0,0,0,305.77,394Z"/><path class="cls-1" d="M306,397.26a56.31,56.31,0,0,0-18.49-13.63"/><path class="cls-1" d="M270.1,400.8a22,22,0,0,0-5.8-4.66"/><path class="cls-1" d="M285.85,407.8a12.56,12.56,0,0,0,2.2-4.77,13.89,13.89,0,0,0-.05-5.19c0-.19-.08-.39-.26-.44a.72.72,0,0,0-.35,0,26.22,26.22,0,0,0-8.62,3.66c-3,2.05-5.62,5.09-6.55,8.3-.69,2.36-.17,5,1.95,5.43a5.35,5.35,0,0,0,2.3-.14C279.82,413.91,283.52,411.07,285.85,407.8Z"/><path class="cls-1" d="M287.33,397.73a38.6,38.6,0,0,1-14.14,16.1"/><path class="cls-1" d="M316.13,410.66a12.67,12.67,0,0,0,2.2-4.76,13.89,13.89,0,0,0-.06-5.19c0-.19-.08-.39-.26-.44a.68.68,0,0,0-.34,0,26.13,26.13,0,0,0-8.62,3.66,16.36,16.36,0,0,0-6.56,8.3c-.68,2.36-.17,5,2,5.43a5.53,5.53,0,0,0,2.3-.14C310.09,416.78,313.8,413.94,316.13,410.66Z"/><path class="cls-1" d="M317.61,400.6a38.69,38.69,0,0,1-14.15,16.1"/><path class="cls-1" d="M314.56,392.2a44.39,44.39,0,0,1,3.31,8.26"/><path class="cls-1" d="M302.61,397.69a51.4,51.4,0,0,1-3.26,5.27"/><path class="cls-1" d="M283.19,397.65c-1.9-1.65-2.38-3-3.48-4"/><path class="cls-1" d="M270.36,401.05a26.67,26.67,0,0,0-6.9,7.9"/><path class="cls-1" d="M265.63,393.65a29.79,29.79,0,0,1,1.24,3.9.33.33,0,0,1,0,.32.38.38,0,0,1-.19.05,29.42,29.42,0,0,1-4.19-.3c-.12,0-.27,0-.32-.15s0-.21.09-.3A14.08,14.08,0,0,1,265.63,393.65Z"/><path class="cls-1" d="M263,397.11a13.23,13.23,0,0,1-7.29-.57,2.65,2.65,0,0,1-1.45-1,1.78,1.78,0,0,1,.51-2.14,2.91,2.91,0,0,1,2.26-.53,8.73,8.73,0,0,1,2.26.76,4.48,4.48,0,0,1-1.65-1.67c-.42-.73-.53-1.82.18-2.26a1.66,1.66,0,0,1,1.53,0,4.78,4.78,0,0,1,2,1.57,14.12,14.12,0,0,1-.77-1.89,2,2,0,0,1-.13-1.1,1.5,1.5,0,0,1,2.07-.76,3.82,3.82,0,0,1,1.6,1.89,21.18,21.18,0,0,1,1.65,4.55,2.45,2.45,0,0,1-.11,1.94Z"/><path class="cls-1" d="M280.06,390.36a24.71,24.71,0,0,1,0,3.36c0,.09,0,.2-.11.23a.29.29,0,0,1-.16,0,23.28,23.28,0,0,1-3.21-1.27c-.09,0-.2-.1-.21-.2s.07-.16.14-.21A11.46,11.46,0,0,1,280.06,390.36Z"/><path class="cls-1" d="M277.14,392.41a10.8,10.8,0,0,1-5.57-2.24,2.18,2.18,0,0,1-.88-1.16,1.47,1.47,0,0,1,.93-1.56,2.43,2.43,0,0,1,1.9.15,7.1,7.1,0,0,1,1.58,1.15,3.65,3.65,0,0,1-.88-1.71c-.15-.68,0-1.56.7-1.73a1.37,1.37,0,0,1,1.19.41,3.92,3.92,0,0,1,1.18,1.73,11.88,11.88,0,0,1-.13-1.68,1.58,1.58,0,0,1,.17-.89,1.21,1.21,0,0,1,1.8-.08,3.14,3.14,0,0,1,.79,1.87,17,17,0,0,1,.17,4,2,2,0,0,1-.57,1.49Z"/><path class="cls-1" d="M299.7,405.69a24.24,24.24,0,0,0,.27-3.35c0-.09,0-.2-.1-.24a.25.25,0,0,0-.15,0,24.69,24.69,0,0,0-3.3,1c-.1,0-.21.08-.23.19s.06.16.13.22A11.52,11.52,0,0,0,299.7,405.69Z"/><path class="cls-1" d="M297,403.42a10.72,10.72,0,0,0-5.73,1.8,2.1,2.1,0,0,0-1,1.09,1.48,1.48,0,0,0,.8,1.62,2.39,2.39,0,0,0,1.91,0,6.93,6.93,0,0,0,1.66-1,3.72,3.72,0,0,0-1,1.64c-.2.66-.09,1.55.56,1.78a1.41,1.41,0,0,0,1.23-.32,3.94,3.94,0,0,0,1.31-1.63,11.49,11.49,0,0,0-.27,1.66,1.62,1.62,0,0,0,.1.9,1.22,1.22,0,0,0,1.8.22,3.14,3.14,0,0,0,.93-1.8,17.5,17.5,0,0,0,.48-3.95,2,2,0,0,0-.45-1.53Z"/><path class="cls-1" d="M311.87,391a26.86,26.86,0,0,0,2.82,1.83c.08,0,.19.08.26,0a.29.29,0,0,0,.08-.13,23,23,0,0,0,.68-3.38c0-.11,0-.23,0-.29a.3.3,0,0,0-.26,0A11.81,11.81,0,0,0,311.87,391Z"/><path class="cls-1" d="M315.18,389.68a10.78,10.78,0,0,0,1.14-5.9,2.16,2.16,0,0,0-.5-1.36,1.47,1.47,0,0,0-1.81-.07,2.46,2.46,0,0,0-.91,1.68,7.14,7.14,0,0,0,.12,2,3.76,3.76,0,0,0-1-1.67c-.48-.49-1.32-.82-1.83-.35a1.38,1.38,0,0,0-.3,1.22,3.91,3.91,0,0,0,.81,1.93,12,12,0,0,0-1.33-1,1.7,1.7,0,0,0-.85-.34c-.69,0-1.16.8-1,1.48a3.14,3.14,0,0,0,1.14,1.67,17.21,17.21,0,0,0,3.25,2.3,2,2,0,0,0,1.55.33Z"/><path class="cls-1" d="M261,409.86a24.67,24.67,0,0,1,2.72-2c.08-.05.18-.1.26-.05a.24.24,0,0,1,.09.13,24.17,24.17,0,0,1,.85,3.35c0,.1,0,.22,0,.28a.29.29,0,0,1-.26,0A11.7,11.7,0,0,1,261,409.86Z"/><path class="cls-1" d="M264.41,411a10.72,10.72,0,0,1,1.44,5.83,2.1,2.1,0,0,1-.43,1.39,1.47,1.47,0,0,1-1.8.16,2.4,2.4,0,0,1-1-1.63,6.78,6.78,0,0,1,0-2,3.72,3.72,0,0,1-.88,1.72c-.46.51-1.28.88-1.81.44a1.35,1.35,0,0,1-.36-1.2,3.86,3.86,0,0,1,.71-2A13.38,13.38,0,0,1,259,414.9a1.66,1.66,0,0,1-.83.38c-.68.05-1.2-.74-1.12-1.42a3.19,3.19,0,0,1,1.06-1.74,17.19,17.19,0,0,1,3.12-2.45,2,2,0,0,1,1.54-.41Z"/><path class="cls-1" d="M319.6,313.36c-21.49,62.09,16.85,95.06,33.62,106"/><path class="cls-1" d="M312.52,320.21a23.5,23.5,0,0,0,2,6.92,2.43,2.43,0,0,0,.66,1c1.17.89,3.65-1.89,4.39-2.65a18.85,18.85,0,0,0,3.3-4.66c1.5-3,2.48-9.75.1-12.54a5,5,0,0,0-1.25-1.08A4.48,4.48,0,0,0,318,307a7.37,7.37,0,0,0-3,2.25c-1.84,2.19-2.72,7.24-2.57,10.07C312.46,319.61,312.48,319.91,312.52,320.21Z"/><path class="cls-1" d="M315.15,378.7a14.94,14.94,0,0,1-7.95-2A15.82,15.82,0,0,1,301,370a8.69,8.69,0,0,1-.86-5.39,3.55,3.55,0,0,1,3.22-2.95c1.65-.08,3.45,1,5,2.15a28.54,28.54,0,0,1,7.3,8.62c1.19,1.89,2,3.85,3,5.75a.3.3,0,0,1,.06.21c0,.07-.09.08-.15.09A28.31,28.31,0,0,1,315.15,378.7Z"/><path class="cls-1" d="M318.39,378.08a56.25,56.25,0,0,1-17.67-14.52"/><path class="cls-1" d="M313.07,342.61a22,22,0,0,1-5.92-4.46"/><path class="cls-1" d="M323.65,356.11a12.7,12.7,0,0,1-4.06,3.28,13.86,13.86,0,0,1-5,1.21c-.18,0-.39,0-.48-.14a.74.74,0,0,1-.06-.34,26.22,26.22,0,0,1,1.43-9.21c1.25-3.4,3.54-6.67,6.41-8.35,2.11-1.24,4.77-1.38,5.72.57a5.41,5.41,0,0,1,.43,2.25C328.08,348.79,326.24,353.06,323.65,356.11Z"/><path class="cls-1" d="M314.3,360a38.39,38.39,0,0,0,12.08-17.56"/><path class="cls-1" d="M333.79,384.62a12.53,12.53,0,0,1-4.05,3.28,13.91,13.91,0,0,1-5,1.21c-.19,0-.39,0-.49-.14a.74.74,0,0,1-.05-.34,26,26,0,0,1,1.43-9.21,16.3,16.3,0,0,1,6.41-8.35c2.11-1.23,4.76-1.38,5.72.57a5.41,5.41,0,0,1,.42,2.25C338.22,377.31,336.39,381.57,333.79,384.62Z"/><path class="cls-1" d="M324.44,388.5a38.51,38.51,0,0,0,12.09-17.57"/><path class="cls-1" d="M318,374.73a49.54,49.54,0,0,0,4.29-4.43"/><path class="cls-1" d="M313.21,356c-2-1.44-3.52-1.55-4.75-2.38"/><path class="cls-1" d="M313.36,342.8a26.59,26.59,0,0,1,5.94-8.58"/><path class="cls-1" d="M305.08,340a30.35,30.35,0,0,0,4.06.25c.11,0,.24,0,.29-.12a.31.31,0,0,0,0-.19,28.39,28.39,0,0,0-1.31-4c0-.12-.1-.26-.22-.28s-.2.08-.28.16A14.08,14.08,0,0,0,305.08,340Z"/><path class="cls-1" d="M307.76,336.65a13,13,0,0,0-2.32-6.9,2.57,2.57,0,0,0-1.34-1.14,1.77,1.77,0,0,0-2,1,2.94,2.94,0,0,0,0,2.31,8.59,8.59,0,0,0,1.29,2,4.53,4.53,0,0,0-2-1.19c-.81-.22-1.89-.06-2.15.73a1.69,1.69,0,0,0,.42,1.47,4.66,4.66,0,0,0,2,1.55,15.33,15.33,0,0,0-2-.28,2.1,2.1,0,0,0-1.09.14,1.49,1.49,0,0,0-.23,2.19,3.8,3.8,0,0,0,2.21,1.08,21,21,0,0,0,4.8.49,2.46,2.46,0,0,0,1.84-.58Z"/><path class="cls-1" d="M305.41,354.77a26.81,26.81,0,0,0,3.25-.81c.08,0,.18-.08.2-.17a.3.3,0,0,0-.05-.15,22.86,22.86,0,0,0-2-2.79c-.06-.08-.14-.17-.24-.15s-.14.1-.18.18A11.67,11.67,0,0,0,305.41,354.77Z"/><path class="cls-1" d="M306.68,351.45a10.67,10.67,0,0,0-3.52-4.83,2.15,2.15,0,0,0-1.33-.57,1.47,1.47,0,0,0-1.28,1.28,2.39,2.39,0,0,0,.61,1.8,7.12,7.12,0,0,0,1.49,1.24,3.58,3.58,0,0,0-1.87-.43c-.68,0-1.49.41-1.49,1.09a1.4,1.4,0,0,0,.68,1.06,4.09,4.09,0,0,0,2,.71,12.92,12.92,0,0,0-1.65.28,1.6,1.6,0,0,0-.82.38,1.23,1.23,0,0,0,.36,1.77,3.18,3.18,0,0,0,2,.3,17.51,17.51,0,0,0,3.87-.8,2,2,0,0,0,1.3-.91Z"/><path class="cls-1" d="M325,370a26.53,26.53,0,0,1-3.16,1.08.26.26,0,0,1-.26,0,.26.26,0,0,1,0-.15,23.19,23.19,0,0,1,.17-3.43c0-.1,0-.22.12-.26a.34.34,0,0,1,.25.06A11.71,11.71,0,0,1,325,370Z"/><path class="cls-1" d="M322.13,367.87a10.62,10.62,0,0,1,.34-6,2.18,2.18,0,0,1,.81-1.2,1.45,1.45,0,0,1,1.76.38,2.35,2.35,0,0,1,.47,1.84,7.23,7.23,0,0,1-.58,1.85,3.67,3.67,0,0,1,1.34-1.37c.58-.35,1.47-.47,1.85.11a1.38,1.38,0,0,1,0,1.25,4,4,0,0,1-1.25,1.67,10.38,10.38,0,0,1,1.53-.66,1.66,1.66,0,0,1,.9-.13,1.22,1.22,0,0,1,.65,1.68,3.12,3.12,0,0,1-1.52,1.34,17.5,17.5,0,0,1-3.68,1.42,2,2,0,0,1-1.59-.06Z"/><path class="cls-1" d="M319.59,331.66a26.37,26.37,0,0,0-1.24,3.11.27.27,0,0,0,0,.26.29.29,0,0,0,.14.05,23.1,23.1,0,0,0,3.43,0c.11,0,.23,0,.27-.1a.26.26,0,0,0-.05-.25A11.53,11.53,0,0,0,319.59,331.66Z"/><path class="cls-1" d="M321.55,334.63a10.64,10.64,0,0,0,6,0,2.15,2.15,0,0,0,1.24-.75,1.44,1.44,0,0,0-.29-1.77,2.4,2.4,0,0,0-1.81-.57,7.24,7.24,0,0,0-1.88.49,3.65,3.65,0,0,0,1.44-1.26c.38-.57.54-1.45,0-1.86a1.34,1.34,0,0,0-1.25-.05,3.93,3.93,0,0,0-1.73,1.16,11.6,11.6,0,0,0,.74-1.5,1.62,1.62,0,0,0,.17-.89,1.21,1.21,0,0,0-1.64-.73,3.15,3.15,0,0,0-1.42,1.44,17.68,17.68,0,0,0-1.61,3.61,2,2,0,0,0,0,1.59Z"/><polyline class="cls-1" points="123.73 14.49 319 14.49 319 203.79"/><path class="cls-1" d="M111.35,13.77C54.06,46.59,14.34,14.88.38.38"/><path class="cls-1" d="M105.91,22.05a24,24,0,0,1-7.21-.68,2.5,2.5,0,0,1-1.11-.47c-1.1-1,1.19-4,1.8-4.83a18.79,18.79,0,0,1,4-4.12c2.7-2.06,9.16-4.28,12.36-2.45a4.85,4.85,0,0,1,1.3,1,4.45,4.45,0,0,1,.89,3.6,7.4,7.4,0,0,1-1.65,3.41c-1.82,2.22-6.64,4-9.47,4.41Q106.36,22,105.91,22.05Z"/><path class="cls-1" d="M47.67,30.37a15,15,0,0,0,3.48,7.47A15.93,15.93,0,0,0,59,42.74a8.76,8.76,0,0,0,5.48-.16,3.57,3.57,0,0,0,2.31-3.73c-.23-1.64-1.59-3.23-3.06-4.57a28.75,28.75,0,0,0-9.87-5.6c-2.1-.82-4.18-1.21-6.25-1.92-.08,0-.16-.05-.22,0s-.06.11-.06.18A28.88,28.88,0,0,0,47.67,30.37Z"/><path class="cls-1" d="M47.68,27.06A56.56,56.56,0,0,0,65.31,41.79"/><path class="cls-1" d="M83.69,25.69a22.09,22.09,0,0,0,5.51,5"/><path class="cls-1" d="M68.39,17.76a12.68,12.68,0,0,0-2.48,4.62,13.92,13.92,0,0,0-.26,5.19c0,.18.06.39.23.45a.7.7,0,0,0,.35,0,26.18,26.18,0,0,0,8.82-3.13C78.17,23,81,20.14,82.1,17c.83-2.31.47-5-1.63-5.54a5.56,5.56,0,0,0-2.3,0C74.78,12,70.91,14.63,68.39,17.76Z"/><path class="cls-1" d="M66.31,27.71A38.7,38.7,0,0,1,81.4,12.5"/><path class="cls-1" d="M38.35,13.06a12.52,12.52,0,0,0-2.49,4.63,14.08,14.08,0,0,0-.26,5.18c0,.19.06.4.23.46a.83.83,0,0,0,.35,0A26.15,26.15,0,0,0,45,20.19c3.12-1.87,5.92-4.74,7-7.89.83-2.31.48-5-1.62-5.54a5.4,5.4,0,0,0-2.3,0C44.74,7.33,40.87,9.94,38.35,13.06Z"/><path class="cls-1" d="M36.26,23A38.64,38.64,0,0,1,51.35,7.81"/><path class="cls-1" d="M38.79,31.59A44.66,44.66,0,0,1,36,23.15"/><path class="cls-1" d="M51.06,26.83a50.39,50.39,0,0,1,3.57-5.06"/><path class="cls-1" d="M70.43,28.05c1.81,1.75,2.2,3.18,3.24,4.25"/><path class="cls-1" d="M83.45,25.43A26.44,26.44,0,0,0,90.81,18"/><path class="cls-1" d="M87.72,33.1a30,30,0,0,1-1-4c0-.11,0-.24.06-.31a.33.33,0,0,1,.19,0,29.06,29.06,0,0,1,4.16.55c.13,0,.27.05.31.17s0,.21-.1.3A14.06,14.06,0,0,1,87.72,33.1Z"/><path class="cls-1" d="M90.57,29.81a13.14,13.14,0,0,1,7.24,1,2.64,2.64,0,0,1,1.38,1.11A1.78,1.78,0,0,1,98.56,34a2.92,2.92,0,0,1-2.29.39,8.63,8.63,0,0,1-2.21-.9,4.57,4.57,0,0,1,1.55,1.77c.37.75.42,1.85-.32,2.25a1.7,1.7,0,0,1-1.53-.13,4.89,4.89,0,0,1-1.91-1.7,13.44,13.44,0,0,1,.66,1.94,2.1,2.1,0,0,1,.06,1.11,1.48,1.48,0,0,1-2.11.62,3.8,3.8,0,0,1-1.49-2,21.42,21.42,0,0,1-1.37-4.65,2.44,2.44,0,0,1,.23-1.92Z"/><path class="cls-1" d="M73.12,35.51a25.33,25.33,0,0,1,.19-3.35c0-.09,0-.2.13-.23a.3.3,0,0,1,.16,0,22.69,22.69,0,0,1,3.12,1.46c.09,0,.2.1.2.21s-.08.15-.15.2A11.56,11.56,0,0,1,73.12,35.51Z"/><path class="cls-1" d="M76.16,33.64a10.74,10.74,0,0,1,5.42,2.58,2.15,2.15,0,0,1,.81,1.21,1.46,1.46,0,0,1-1,1.49,2.42,2.42,0,0,1-1.89-.25A7.17,7.17,0,0,1,78,37.42a3.81,3.81,0,0,1,.77,1.77c.1.68-.13,1.55-.8,1.68a1.43,1.43,0,0,1-1.17-.48,4,4,0,0,1-1.07-1.8,11.78,11.78,0,0,1,0,1.68,1.65,1.65,0,0,1-.22.88,1.22,1.22,0,0,1-1.81,0A3.16,3.16,0,0,1,73,39.2a17.58,17.58,0,0,1,.08-4,2,2,0,0,1,.65-1.45Z"/><path class="cls-1" d="M54.44,19A27.14,27.14,0,0,0,54,22.35c0,.09,0,.2.08.25a.29.29,0,0,0,.16,0,22.71,22.71,0,0,0,3.35-.81c.1,0,.22-.06.24-.16s0-.17-.11-.24A11.75,11.75,0,0,0,54.44,19Z"/><path class="cls-1" d="M57.05,21.46A10.81,10.81,0,0,0,62.88,20a2.11,2.11,0,0,0,1-1,1.46,1.46,0,0,0-.7-1.67,2.41,2.41,0,0,0-1.9-.12,7.23,7.23,0,0,0-1.73.93,3.74,3.74,0,0,0,1.11-1.58c.24-.65.18-1.55-.45-1.81A1.4,1.4,0,0,0,59,15a4,4,0,0,0-1.41,1.55A13,13,0,0,0,58,14.88a1.76,1.76,0,0,0-.05-.91,1.22,1.22,0,0,0-1.78-.32,3.14,3.14,0,0,0-1,1.74,17.27,17.27,0,0,0-.71,3.91,2,2,0,0,0,.35,1.55Z"/><path class="cls-1" d="M41.4,32.93a24.33,24.33,0,0,0-2.7-2c-.08,0-.18-.09-.25,0s-.07.08-.09.13a22.36,22.36,0,0,0-.88,3.33c0,.1,0,.22,0,.29a.27.27,0,0,0,.26,0A11.43,11.43,0,0,0,41.4,32.93Z"/><path class="cls-1" d="M38,34.07a10.7,10.7,0,0,0-1.49,5.82,2.17,2.17,0,0,0,.41,1.39,1.45,1.45,0,0,0,1.8.17,2.36,2.36,0,0,0,1-1.61,6.78,6.78,0,0,0,0-2,3.77,3.77,0,0,0,.86,1.73c.46.51,1.27.89,1.81.46a1.41,1.41,0,0,0,.37-1.21,4,4,0,0,0-.69-2A13.35,13.35,0,0,0,43.38,38a1.69,1.69,0,0,0,.82.39c.69.06,1.21-.72,1.13-1.41a3.1,3.1,0,0,0-1-1.75,16.88,16.88,0,0,0-3.1-2.48,2,2,0,0,0-1.53-.43Z"/><path class="cls-1" d="M93.28,17.2A23.59,23.59,0,0,1,90.45,19c-.08.05-.19.09-.26,0a.18.18,0,0,1-.08-.13,23.29,23.29,0,0,1-.65-3.39c0-.1,0-.23.06-.29s.17,0,.26,0A11.53,11.53,0,0,1,93.28,17.2Z"/><path class="cls-1" d="M90,15.83a10.79,10.79,0,0,1-1.08-5.91,2.11,2.11,0,0,1,.51-1.36,1.46,1.46,0,0,1,1.81-.05,2.42,2.42,0,0,1,.89,1.68,7.19,7.19,0,0,1-.13,2,3.69,3.69,0,0,1,1-1.67c.49-.48,1.33-.8,1.83-.33a1.38,1.38,0,0,1,.29,1.23,4,4,0,0,1-.83,1.92,13.55,13.55,0,0,1,1.35-1,1.71,1.71,0,0,1,.84-.33,1.22,1.22,0,0,1,1,1.49,3.06,3.06,0,0,1-1.16,1.66,17.14,17.14,0,0,1-3.26,2.27,2,2,0,0,1-1.56.31Z"/><path class="cls-1" d="M29,110C54.2,49.3,17.92,14.07,1.85,2.1"/><path class="cls-1" d="M36.48,103.57a23.6,23.6,0,0,0-1.58-7,2.32,2.32,0,0,0-.6-1c-1.11-1-3.76,1.66-4.54,2.38a18.3,18.3,0,0,0-3.57,4.45c-1.69,2.93-3.08,9.58-.87,12.51A5,5,0,0,0,26.51,116a4.41,4.41,0,0,0,3.67.43,7.28,7.28,0,0,0,3.15-2.06c2-2.07,3.15-7.06,3.17-9.9C36.5,104.17,36.5,103.87,36.48,103.57Z"/><path class="cls-1" d="M37.39,45a14.9,14.9,0,0,1,7.81,2.5A15.85,15.85,0,0,1,51,54.63a8.71,8.71,0,0,1,.53,5.42,3.56,3.56,0,0,1-3.39,2.76c-1.66,0-3.39-1.17-4.9-2.46a28.55,28.55,0,0,1-6.77-9c-1.07-2-1.71-4-2.67-5.92a.32.32,0,0,1,0-.22c0-.07.1-.08.16-.08A28.51,28.51,0,0,1,37.39,45Z"/><path class="cls-1" d="M34.12,45.46A56.08,56.08,0,0,1,50.87,61"/><path class="cls-1" d="M37.29,81.18A22.09,22.09,0,0,1,42.92,86"/><path class="cls-1" d="M27.54,67.07a12.63,12.63,0,0,1,4.25-3,14.05,14.05,0,0,1,5.09-.91c.18,0,.39,0,.47.17a.68.68,0,0,1,0,.35,26.25,26.25,0,0,1-2,9.1c-1.46,3.32-3.94,6.44-6.91,8-2.18,1.1-4.84,1.09-5.67-.91a5.42,5.42,0,0,1-.29-2.27C22.68,74.1,24.77,70,27.54,67.07Z"/><path class="cls-1" d="M37.11,63.76A38.42,38.42,0,0,0,24,80.57"/><path class="cls-1" d="M19.14,38a12.43,12.43,0,0,1,4.25-3,13.79,13.79,0,0,1,5.09-.9c.18,0,.39,0,.47.17a.74.74,0,0,1,0,.34,26.3,26.3,0,0,1-2,9.11c-1.46,3.31-3.94,6.44-6.91,7.94-2.18,1.11-4.84,1.09-5.67-.91a5.25,5.25,0,0,1-.29-2.27C14.28,45,16.36,40.88,19.14,38Z"/><path class="cls-1" d="M28.7,34.69a38.44,38.44,0,0,0-13.12,16.8"/><path class="cls-1" d="M34.32,48.82A51.91,51.91,0,0,0,29.77,53"/><path class="cls-1" d="M38,67.79c2,1.56,3.42,1.77,4.6,2.66"/><path class="cls-1" d="M37,81a26.43,26.43,0,0,1-6.45,8.21"/><path class="cls-1" d="M45.11,84.22a32.12,32.12,0,0,0-4-.49c-.12,0-.25,0-.3.11a.3.3,0,0,0,0,.19,28.25,28.25,0,0,0,1.06,4c0,.12.09.26.21.28s.21-.06.28-.13A14.18,14.18,0,0,0,45.11,84.22Z"/><path class="cls-1" d="M42.22,87.45a13.09,13.09,0,0,0,1.9,7,2.59,2.59,0,0,0,1.27,1.22,1.77,1.77,0,0,0,2-.89,2.86,2.86,0,0,0,.1-2.31,8.44,8.44,0,0,0-1.16-2.07,4.53,4.53,0,0,0,1.94,1.31c.79.27,1.88.18,2.18-.6a1.7,1.7,0,0,0-.32-1.49A4.81,4.81,0,0,0,48.22,88a13.49,13.49,0,0,0,2,.4,2,2,0,0,0,1.1-.07,1.49,1.49,0,0,0,.36-2.17,3.85,3.85,0,0,0-2.14-1.22,21.89,21.89,0,0,0-4.76-.77,2.43,2.43,0,0,0-1.87.47Z"/><path class="cls-1" d="M45.66,69.51a24.89,24.89,0,0,0-3.29.61c-.08,0-.19.07-.2.16a.27.27,0,0,0,0,.15A23.58,23.58,0,0,0,44,73.33c.06.09.13.18.23.17s.15-.1.19-.17A11.68,11.68,0,0,0,45.66,69.51Z"/><path class="cls-1" d="M44.19,72.74a10.79,10.79,0,0,0,3.23,5,2.15,2.15,0,0,0,1.29.64,1.45,1.45,0,0,0,1.35-1.19,2.38,2.38,0,0,0-.49-1.83,7,7,0,0,0-1.42-1.34,3.73,3.73,0,0,0,1.84.55c.69,0,1.52-.32,1.56-1a1.4,1.4,0,0,0-.62-1.1A4,4,0,0,0,49,71.68a11.54,11.54,0,0,0,1.66-.18,1.62,1.62,0,0,0,.85-.33,1.22,1.22,0,0,0-.26-1.78,3.13,3.13,0,0,0-2-.43,17.25,17.25,0,0,0-3.91.57,2,2,0,0,0-1.35.83Z"/><path class="cls-1" d="M27,53.14a25.91,25.91,0,0,1,3.22-.88.24.24,0,0,1,.26.05.25.25,0,0,1,0,.15,23.11,23.11,0,0,1-.38,3.41c0,.1,0,.22-.13.25a.3.3,0,0,1-.25-.07A11.71,11.71,0,0,1,27,53.14Z"/><path class="cls-1" d="M29.77,55.41a10.79,10.79,0,0,1-.7,5.94,2.17,2.17,0,0,1-.89,1.14A1.44,1.44,0,0,1,26.45,62a2.38,2.38,0,0,1-.36-1.86,7.07,7.07,0,0,1,.7-1.82,3.75,3.75,0,0,1-1.42,1.29c-.61.32-1.5.38-1.84-.22a1.36,1.36,0,0,1,.08-1.25A4,4,0,0,1,25,56.56a10.9,10.9,0,0,1-1.57.57,1.73,1.73,0,0,1-.9.07,1.22,1.22,0,0,1-.55-1.72,3.13,3.13,0,0,1,1.59-1.24A17.24,17.24,0,0,1,27.3,53a2,2,0,0,1,1.58.16Z"/><path class="cls-1" d="M30.11,91.71a25.11,25.11,0,0,0,1.42-3c0-.09.06-.2,0-.26a.25.25,0,0,0-.15-.06A22.94,22.94,0,0,0,28,88.15c-.1,0-.23,0-.27.09a.27.27,0,0,0,0,.26A11.59,11.59,0,0,0,30.11,91.71Z"/><path class="cls-1" d="M28.34,88.63a10.74,10.74,0,0,0-6-.32,2.16,2.16,0,0,0-1.28.67,1.46,1.46,0,0,0,.18,1.79,2.36,2.36,0,0,0,1.78.67A7,7,0,0,0,25,91.07a3.73,3.73,0,0,0-1.52,1.17c-.41.55-.63,1.42-.1,1.86a1.37,1.37,0,0,0,1.25.13,4,4,0,0,0,1.79-1.06,11.49,11.49,0,0,0-.82,1.45,1.63,1.63,0,0,0-.23.88,1.23,1.23,0,0,0,1.6.83A3.07,3.07,0,0,0,28.43,95a18,18,0,0,0,1.83-3.51,2,2,0,0,0,.11-1.58Z"/></g></g></svg>