<svg xmlns="http://www.w3.org/2000/svg" viewBox="0 0 50.34 31.48"><defs><style>.cls-1{fill:#6b6b6b;}</style></defs><title>Asset 10</title><g id="Layer_2" data-name="Layer 2"><g id="BAO"><path class="cls-1" d="M22.19,14.87a5.43,5.43,0,0,0-1.26-.49,12.85,12.85,0,0,0-1.74-.33,19.43,19.43,0,0,0-2.11-.13,23,23,0,0,0-2.32.09,9.73,9.73,0,0,0-.43,1.71,6.12,6.12,0,0,0-.06,1.52,3.72,3.72,0,0,0,.35,1.28,2.66,2.66,0,0,0,.77,1,2.75,2.75,0,0,0,1.26.51,5.71,5.71,0,0,0,1.6,0,10,10,0,0,0,1.8-.4,13.72,13.72,0,0,0,1.85-.74,15.7,15.7,0,0,0,1.75-1,12,12,0,0,0,1.5-1.14,8.63,8.63,0,0,0,1-1,7,7,0,0,0,.5-.7,3.54,3.54,0,0,0,.24-.48,2,2,0,0,1,.18-.36,1.25,1.25,0,0,1,.31-.29,3,3,0,0,1,.66-.3l.57-.19.59-.15a2.67,2.67,0,0,1,.54-.07.86.86,0,0,1,.39,0c.13.06.18.13.16.2a.57.57,0,0,1-.19.25c-.1.09-.23.18-.37.29a2.35,2.35,0,0,0-.38.39c-.2.25-.46.62-.79,1.11l-1.15,1.73c-.43.66-.92,1.38-1.46,2.16S24.8,21,24.19,21.8s-1.27,1.61-2,2.41-1.38,1.56-2.1,2.27a18,18,0,0,1-2.95,2.36,17.12,17.12,0,0,1-3.05,1.54,15.4,15.4,0,0,1-3.09.83A20.08,20.08,0,0,1,8,31.48,9.65,9.65,0,0,1,4.76,31a7.52,7.52,0,0,1-2.65-1.54,6.47,6.47,0,0,1-1.7-2.49,7,7,0,0,1-.35-3.37A8.38,8.38,0,0,1,.9,20.81a10,10,0,0,1,1.65-2.28,12.35,12.35,0,0,1,2.26-1.84A17.23,17.23,0,0,1,7.47,15.3a20.5,20.5,0,0,1,2.83-1,23.8,23.8,0,0,1,2.82-.56,14.83,14.83,0,0,1,.82-1.89,20.79,20.79,0,0,1,1.17-2.05,23.22,23.22,0,0,1,1.51-2.08,21.48,21.48,0,0,1,1.85-2,24.36,24.36,0,0,1,3-2.5,21.59,21.59,0,0,1,3-1.75A17.74,17.74,0,0,1,27.44.46,12.64,12.64,0,0,1,30.08,0a9.39,9.39,0,0,1,2.29.13,5.83,5.83,0,0,1,1.78.64A2.92,2.92,0,0,1,35.32,2a3.61,3.61,0,0,1,.4,1.43,5.07,5.07,0,0,1-.15,1.54,8.93,8.93,0,0,1-.49,1.46,10.54,10.54,0,0,1-.59,1.21c-.2.35-.36.6-.48.77a7.39,7.39,0,0,1-1.34,1.42,7.06,7.06,0,0,1-1.78,1.08c-.38.16-.68.27-.91.34a1.86,1.86,0,0,1-.59.11.75.75,0,0,1-.39-.09,1.72,1.72,0,0,1-.33-.24.32.32,0,0,1-.09-.39,1.71,1.71,0,0,1,.31-.57,5.38,5.38,0,0,1,.58-.61,6.33,6.33,0,0,1,.71-.57,4.58,4.58,0,0,1,.71-.39,1.39,1.39,0,0,1,.58-.12,4.37,4.37,0,0,0,.61,0,1.57,1.57,0,0,0,.49-.08A1.5,1.5,0,0,0,33,8.05a2.76,2.76,0,0,0,.39-.38A5.23,5.23,0,0,0,33.85,7a8.84,8.84,0,0,0,.56-1,7.57,7.57,0,0,0,.46-1.24,4.21,4.21,0,0,0,.18-1.3,2.78,2.78,0,0,0-.28-1.2,2.32,2.32,0,0,0-.91-1A5,5,0,0,0,31.32.68a11.28,11.28,0,0,0-3.49.63,20,20,0,0,0-4.07,2,24.76,24.76,0,0,0-4.23,3.38,19,19,0,0,0-1.45,1.61,22,22,0,0,0-1.3,1.79c-.4.61-.75,1.22-1.07,1.83a17.81,17.81,0,0,0-.79,1.71c.81-.05,1.59-.07,2.33-.05s1.42.07,2.05.14A14.87,14.87,0,0,1,21,14a7.16,7.16,0,0,1,1.16.38,3.28,3.28,0,0,1,1.18.86.89.89,0,0,1,.26.64c0,.17-.11.23-.26.19a1.63,1.63,0,0,1-.58-.37.62.62,0,0,1-.17-.22.9.9,0,0,1-.08-.21.72.72,0,0,0-.09-.2A.53.53,0,0,0,22.19,14.87ZM14,20.18a3.87,3.87,0,0,1-1.37-2.47A7.71,7.71,0,0,1,13,14.23a17.23,17.23,0,0,0-2.52.5,19.92,19.92,0,0,0-2.65.93A16.77,16.77,0,0,0,5.26,17a12.1,12.1,0,0,0-2.21,1.79A9.41,9.41,0,0,0,1.41,21a7.08,7.08,0,0,0-.8,2.63,5.81,5.81,0,0,0,2.05,5.29,7.4,7.4,0,0,0,2.49,1.35A9.74,9.74,0,0,0,8,30.74a12.35,12.35,0,0,0,2.73-.28,14.63,14.63,0,0,0,2.84-1,17.43,17.43,0,0,0,2.85-1.65,18.91,18.91,0,0,0,2.78-2.39,35.76,35.76,0,0,0,2.52-2.8c.76-.94,1.42-1.8,2-2.57s1-1.41,1.35-1.92a10.3,10.3,0,0,1,.62-.88.4.4,0,0,0,.12-.18.11.11,0,0,0,0-.1.16.16,0,0,0-.12,0,.16.16,0,0,0-.11.05,20.76,20.76,0,0,1-1.72,1.27,19.82,19.82,0,0,1-2,1.18,15.92,15.92,0,0,1-2.12.94A10.35,10.35,0,0,1,17.6,21a5.78,5.78,0,0,1-2,0A3.57,3.57,0,0,1,14,20.18Z"/><path class="cls-1" d="M43.26,12.39a6,6,0,0,1,1.54.53,2.06,2.06,0,0,1,.8.73,1.48,1.48,0,0,1,.2.83,1.47,1.47,0,0,1-.34.55,8.33,8.33,0,0,1-.73.71c-.29.24-.6.48-.93.71a8.05,8.05,0,0,1-.91.56,9.76,9.76,0,0,1-1.48.63c-.39.11-.69.21-.9.29l-.31.12a2,2,0,0,0-.26.09l-.2.42a2.9,2.9,0,0,1-.26.46,1.79,1.79,0,0,1-.3.36.59.59,0,0,1-.35.16.48.48,0,0,0-.35.21,6,6,0,0,0-.36.53l-.29.43-.38.62c-.13.23-.26.46-.38.7a4.25,4.25,0,0,0-.28.7,1.61,1.61,0,0,0-.09.58.49.49,0,0,0,.2.39,1.78,1.78,0,0,0,1.3.09,8.77,8.77,0,0,0,2-.7A14.46,14.46,0,0,0,42.12,22a10,10,0,0,0,1.11-.85.6.6,0,0,0,.19-.22.86.86,0,0,0,.07-.21,1.18,1.18,0,0,1,.07-.2.57.57,0,0,1,.19-.2,2.46,2.46,0,0,1,.58-.38c.12,0,.19,0,.22.19s-.09.36-.31.59a8.63,8.63,0,0,1-.94.85c-.24.19-.59.44-1,.77a13.36,13.36,0,0,1-1.93,1.09q-.61.29-1.26.51a9.25,9.25,0,0,1-1.24.34,5.29,5.29,0,0,1-1.06.12,1.65,1.65,0,0,1-.74-.14.76.76,0,0,1-.36-.58,2.56,2.56,0,0,1,.09-1,7.79,7.79,0,0,1,.52-1.3,14.09,14.09,0,0,1,.91-1.56c0-.05,0-.08,0-.11a.08.08,0,0,0-.1,0,2.66,2.66,0,0,1-.25.26l-.47.43-.79.64c-.31.25-.71.54-1.18.87-.18.14-.41.3-.68.49s-.57.38-.89.58-.66.39-1,.57a9.21,9.21,0,0,1-1,.49,6.18,6.18,0,0,1-.94.29,1.8,1.8,0,0,1-.77,0,.78.78,0,0,1-.54-.38,1,1,0,0,1-.1-.64,3.25,3.25,0,0,1,.22-.79c.12-.27.24-.54.38-.79s.29-.49.43-.69.24-.36.32-.46l.3-.38a4.1,4.1,0,0,0,.31-.46,2.21,2.21,0,0,0,.21-.5,1.09,1.09,0,0,0,0-.54,1.2,1.2,0,0,1,0-.56,3.1,3.1,0,0,1,.25-.57,6.27,6.27,0,0,1,.38-.57l.41-.55q.4-.52.72-.36a1.74,1.74,0,0,1,.62.79.55.55,0,0,1,.07.25,1,1,0,0,1,0,.24.65.65,0,0,1-.06.21l-.07.16c0,.06-.12.18-.22.36l-.37.61-.45.74-.46.77c-.15.25-.28.48-.41.68s-.23.36-.29.46a4.39,4.39,0,0,0-.67,1.35c-.09.37-.05.61.12.73a.6.6,0,0,0,.39.05,2.42,2.42,0,0,0,.77-.22,10.17,10.17,0,0,0,1.18-.6c.46-.27,1-.63,1.66-1.09s1-.78,1.49-1.18.88-.79,1.25-1.18a13.26,13.26,0,0,0,1-1.11,6.48,6.48,0,0,0,.66-1l.21-.36a3,3,0,0,1,.22-.35.76.76,0,0,1,.22-.22.24.24,0,0,1,.26,0l.18.21a1.4,1.4,0,0,1,.21.34,1.67,1.67,0,0,1,.13.45,1.42,1.42,0,0,1,0,.54l.13,0,.14-.05a4.17,4.17,0,0,0,1-.25,9.56,9.56,0,0,0,1.39-.67A5.83,5.83,0,0,0,44,15.84,3.49,3.49,0,0,0,44.7,15a1,1,0,0,0,.13-.8,1.36,1.36,0,0,0-.43-.58,2,2,0,0,0-.64-.35,2.37,2.37,0,0,0-.56-.13l-.47,0-.47-.05a3.17,3.17,0,0,0-.42,0,.42.42,0,0,0-.26.08.72.72,0,0,1-.5.17l-.53-.08a.83.83,0,0,1-.42-.2,1.62,1.62,0,0,1-.26-.34,1.32,1.32,0,0,1-.12-.35,1.75,1.75,0,0,1,0-.25.16.16,0,0,1,.15-.17,1.48,1.48,0,0,1,.36,0l.39.09.28.07A13.55,13.55,0,0,1,43.26,12.39ZM39.06,11c.91-.23,1.44-.58,1.59-1.06a1.62,1.62,0,0,0-1.17-2.31,1.53,1.53,0,0,0-1.19.07,1.38,1.38,0,0,0-.74.85c-.14.41,0,.69.5.84a.47.47,0,0,0,.53-.15c.15-.21.12-.37-.1-.48s-.33-.19-.29-.24c.07-.27.34-.33.82-.17s.9.55.85,1.08-.44.91-1.17,1.18-1.13.58-1.23.93a1.5,1.5,0,0,0,0,1c.05.14.12.2.2.18s.1-.11.06-.29C37.71,11.65,38.15,11.18,39.06,11Z"/><path class="cls-1" d="M42.86,19.73c.15-.24.28-.45.37-.62a.69.69,0,0,0,0-.6,1,1,0,0,1,0-.5,1.9,1.9,0,0,1,.2-.47,4.32,4.32,0,0,1,.36-.49c.15-.17.3-.36.45-.56l.27-.28a.27.27,0,0,1,.27-.07.52.52,0,0,1,.29.23,3.15,3.15,0,0,1,.36.64,1.14,1.14,0,0,1,.12.49.83.83,0,0,1-.09.37,3.74,3.74,0,0,1-.25.41l-.41.61-.45.65c-.16.22-.28.4-.37.55l-.31.47c-.14.21-.28.43-.43.68s-.3.52-.45.79a6.34,6.34,0,0,0-.35.78,2,2,0,0,0-.14.67.48.48,0,0,0,.18.44.86.86,0,0,0,.55.13,4,4,0,0,0,.84-.13,7.79,7.79,0,0,0,1-.32c.37-.14.74-.3,1.12-.48a12.7,12.7,0,0,0,1.88-1.07A11.47,11.47,0,0,0,49,21.2a.62.62,0,0,0,.19-.22c0-.07.05-.14.07-.2a.8.8,0,0,1,.07-.2.52.52,0,0,1,.19-.21,2.69,2.69,0,0,1,.57-.38c.13,0,.2,0,.22.19s-.08.36-.31.6a9.78,9.78,0,0,1-.94.84c-.24.2-.59.46-1,.78a14.51,14.51,0,0,1-1.93,1.08c-.4.19-.82.36-1.24.51a9.3,9.3,0,0,1-1.2.35,5.17,5.17,0,0,1-1,.13,1.52,1.52,0,0,1-.73-.13,1.24,1.24,0,0,1-.55-.59,1.55,1.55,0,0,1,0-.9,6.17,6.17,0,0,1,.5-1.31A20.15,20.15,0,0,1,42.86,19.73Zm4.67-7.14c0,.07.1.18.19.31a4.51,4.51,0,0,1,.22.44,1.59,1.59,0,0,1,.11.49.91.91,0,0,1-.08.49,1.73,1.73,0,0,1-.77.84c-.27.11-.52,0-.76-.29a1.88,1.88,0,0,1-.26-.4.57.57,0,0,1,0-.34,1.15,1.15,0,0,1,.16-.4l.35-.56a.8.8,0,0,0,.18-.31l.06-.24a.28.28,0,0,1,.26-.22A.4.4,0,0,1,47.53,12.59Z"/></g></g></svg>