<svg xmlns="http://www.w3.org/2000/svg" viewBox="0 0 204.59 97.36"><defs><style>.cls-1{fill:#e8e8e8;}.cls-2{fill:#ba686b;}</style></defs><title>Asset 18</title><g id="Layer_2" data-name="Layer 2"><g id="BAO"><path class="cls-1" d="M29.72,8.28l-2.43,2.49c-.7.7-1.31,1.32-1.84,1.87L24,14.09l-1.18,1.22c-.38.39-.75.79-1.12,1.19l-1.25,1.37c-1.08,1.2-2.11,2.45-3.08,3.73s-1.86,2.55-2.68,3.81-1.56,2.49-2.22,3.69-1.24,2.31-1.73,3.32c-.14.29-.31.41-.52.37a.91.91,0,0,1-.55-.4,2,2,0,0,1-.31-.89,1.65,1.65,0,0,1,.24-1.08c.3-.57.6-1.12.9-1.66s.62-1.11,1-1.7l1.11-1.88c.4-.66.87-1.41,1.4-2.24s1.14-1.77,1.82-2.8,1.47-2.2,2.37-3.5a33.15,33.15,0,0,0,2.72-4.73,29.16,29.16,0,0,0,1.6-4.26A13.2,13.2,0,0,0,23,4.28a3.5,3.5,0,0,0-.53-2.09,2.46,2.46,0,0,0-1.37-.7,8.72,8.72,0,0,0-2.25-.15,14.26,14.26,0,0,0-2.75.42,12.57,12.57,0,0,0-2.8,1.08c-1.35.69-2.5,1.3-3.46,1.84A26.75,26.75,0,0,0,7.42,6.16,8.93,8.93,0,0,0,5.89,7.47a3.84,3.84,0,0,0-.78,1.29c-.14.42-.25.75-.33,1a4.05,4.05,0,0,1-.31.76,5.23,5.23,0,0,1-.56.82c-.24.3-.6.7-1.07,1.19s-.66.7-1,1a1.87,1.87,0,0,1-.79.51.55.55,0,0,1-.61-.23A3.22,3.22,0,0,1,0,12.54a2.07,2.07,0,0,1,0-.66,2.93,2.93,0,0,1,.2-.7,5.49,5.49,0,0,1,.33-.64A2.72,2.72,0,0,1,1,10c.28-.28.76-.7,1.44-1.28S4,7.52,5,6.8,7.24,5.3,8.61,4.5a43.57,43.57,0,0,1,4.54-2.31A27.06,27.06,0,0,1,16.42,1a15.91,15.91,0,0,1,2.93-.6,8.72,8.72,0,0,1,2.42.06,3.56,3.56,0,0,1,1.73.74A4.23,4.23,0,0,1,25,3.86a8.78,8.78,0,0,1-.31,3.65,23.69,23.69,0,0,1-1.86,4.54,57.76,57.76,0,0,1-3.17,5.25c-.08.11-.1.21-.05.27s.12.05.24-.08q1-1.24,2-2.31T24,13c.72-.73,1.5-1.52,2.34-2.35l2.86-2.85A37.09,37.09,0,0,1,33,4.43a21.54,21.54,0,0,1,3.59-2.28,9.47,9.47,0,0,1,3.11-1,3.65,3.65,0,0,1,2.39.48A3.41,3.41,0,0,1,43.66,4.1a9,9,0,0,1-.41,3.8,29.63,29.63,0,0,1-2.06,5c-.94,1.86-2,3.9-3.34,6.1q-1.22,2.1-2.32,4.11c-.74,1.35-1.4,2.65-2,3.9a36.87,36.87,0,0,0-1.43,3.57,13.61,13.61,0,0,0-.68,3.13,6.69,6.69,0,0,0,.24,2.61,4.11,4.11,0,0,0,1.4,2,4.21,4.21,0,0,0,1.46.78A8.53,8.53,0,0,0,36,39.4a9.53,9.53,0,0,0,1.6,0,.94.94,0,0,1,.19-.35,1.51,1.51,0,0,1,.34-.32,2.31,2.31,0,0,1,.61-.3A4.16,4.16,0,0,1,40,38.22a1.13,1.13,0,0,1,.63.14.41.41,0,0,1,.18.37.6.6,0,0,1-.19.38A5.64,5.64,0,0,1,39.3,40a3.84,3.84,0,0,1-1.66.32c-.33,0-.71,0-1.14,0a9.11,9.11,0,0,1-1.33-.2,8.63,8.63,0,0,1-1.39-.45,5.32,5.32,0,0,1-1.3-.79,5.85,5.85,0,0,1-1.79-2.28,8,8,0,0,1-.62-2.95,13.88,13.88,0,0,1,.39-3.45,27.48,27.48,0,0,1,1.21-3.83,44.6,44.6,0,0,1,1.89-4.1c.72-1.4,1.52-2.8,2.38-4.22q1.7-2.88,2.93-5.36a36.91,36.91,0,0,0,1.87-4.39,10.39,10.39,0,0,0,.64-3.22,2.27,2.27,0,0,0-.73-1.89,2.73,2.73,0,0,0-1.87-.52,6.94,6.94,0,0,0-2.56.68,16.65,16.65,0,0,0-3.08,1.9A31.37,31.37,0,0,0,29.72,8.28Z"/><path class="cls-1" d="M50,27.24c.07-.14.08-.22,0-.26s-.12,0-.2.07c-.37.36-.83.77-1.37,1.22s-1.12.9-1.74,1.34-1.25.86-1.9,1.26a13.28,13.28,0,0,1-1.88.95,5.92,5.92,0,0,1-1.66.45A1.66,1.66,0,0,1,40,32a1.87,1.87,0,0,1-.72-1,3,3,0,0,1,0-1.36,6.62,6.62,0,0,1,.61-1.55,10.9,10.9,0,0,1,1-1.59A13.27,13.27,0,0,1,42.32,25a12.09,12.09,0,0,1,1.49-1.24,13.75,13.75,0,0,1,3.45-1.83,10.56,10.56,0,0,1,3.24-.64,6.3,6.3,0,0,1,2.67.45,3.66,3.66,0,0,1,1.74,1.46.91.91,0,0,1,.19.78.67.67,0,0,1-.43.44.37.37,0,0,1-.51-.12,3.24,3.24,0,0,1-.39-.73,2.42,2.42,0,0,0-1.06-1.2A3.26,3.26,0,0,0,50.86,22a7.84,7.84,0,0,0-2.55.68,14.48,14.48,0,0,0-3.15,1.94,17.74,17.74,0,0,0-2.16,2,14.52,14.52,0,0,0-1.59,2,5.59,5.59,0,0,0-.78,1.74,1,1,0,0,0,.25,1.1,1.18,1.18,0,0,0,.95.14,6.25,6.25,0,0,0,1.42-.48,13.93,13.93,0,0,0,1.69-.93q.89-.55,1.74-1.17c.57-.41,1.1-.82,1.59-1.24s.91-.79,1.24-1.12c.48-.5.88-.93,1.17-1.29s.54-.67.71-.92a5,5,0,0,0,.37-.6l.14-.35a.72.72,0,0,1,.19-.31.28.28,0,0,1,.23-.07.73.73,0,0,1,.31.25,3,3,0,0,1,.48,1.22A2.59,2.59,0,0,1,53,25.91c0,.13-.1.28-.17.46s-.17.35-.26.52a2,2,0,0,1-.33.42.35.35,0,0,1-.34.14c-.07,0-.2.13-.38.44s-.43.72-.72,1.26-.63,1.19-1,1.94-.8,1.56-1.26,2.45a34.18,34.18,0,0,0,3.31-1.21c1-.41,1.82-.82,2.54-1.21A19.21,19.21,0,0,0,56.2,30l1.15-.82a.8.8,0,0,0,.27-.37l.15-.49c0-.16.11-.32.17-.48a1,1,0,0,1,.26-.37l.48-.38a1.36,1.36,0,0,1,.4-.24.34.34,0,0,1,.3,0,.51.51,0,0,1,.19.36,1,1,0,0,1-.12.46,4.33,4.33,0,0,1-.42.64,5.91,5.91,0,0,1-.64.72,10.13,10.13,0,0,1-.79.68l-1.11.76a19.34,19.34,0,0,1-1.87,1.13q-1.14.61-2.73,1.29a38.74,38.74,0,0,1-3.69,1.29c-.73,1.39-1.54,2.88-2.41,4.45S44,41.82,43,43.41A34.79,34.79,0,0,1,40.37,47a29.73,29.73,0,0,1-3,3.19,24.5,24.5,0,0,1-3.21,2.48A12.88,12.88,0,0,1,31,54.21a6.74,6.74,0,0,1-3,.26,4.82,4.82,0,0,1-2.59-1.26A4.29,4.29,0,0,1,24,50.53a6.76,6.76,0,0,1,.46-3.23,12.44,12.44,0,0,1,2-3.34,17.74,17.74,0,0,1,3.15-3,30.59,30.59,0,0,1,3.57-2.37,27.92,27.92,0,0,1,3.7-1.73,41.1,41.1,0,0,1,4.34-1.4q2.39-.63,5.5-1.36c.75-1.45,1.39-2.76,1.92-3.92S49.59,28,50,27.24Zm-8.53,15.7q1.5-2.31,2.72-4.37t2.15-3.89c-1.87.45-3.56.88-5.07,1.31s-2.91.9-4.2,1.41a27.58,27.58,0,0,0-3.63,1.71,32.94,32.94,0,0,0-3.38,2.2,15.14,15.14,0,0,0-3.27,3.56,12.52,12.52,0,0,0-1.09,2,7.49,7.49,0,0,0-.56,2,4.57,4.57,0,0,0,.07,1.74A2.42,2.42,0,0,0,26,51.92a3.75,3.75,0,0,0,2.22.94,6.32,6.32,0,0,0,2.62-.39A13,13,0,0,0,33.69,51a24.21,24.21,0,0,0,2.85-2.25A30.43,30.43,0,0,0,39.19,46,32.29,32.29,0,0,0,41.46,42.94Z"/><path class="cls-1" d="M68,23.75a8.19,8.19,0,0,1-1.29,2.83,14.66,14.66,0,0,1-2.28,2.57,5,5,0,0,0,1.62.45,6.29,6.29,0,0,0,1.68,0,6.39,6.39,0,0,0,1.63-.5,6.73,6.73,0,0,0,1.49-.92.92.92,0,0,0,.23-.28,1.22,1.22,0,0,0,.1-.24,1.15,1.15,0,0,1,.12-.25,1,1,0,0,1,.24-.27,2.54,2.54,0,0,1,.85-.51c.22-.07.35,0,.37.21s-.14.51-.52.85a13.35,13.35,0,0,1-1.43,1.11,7.25,7.25,0,0,1-3.17,1.3A6.59,6.59,0,0,1,64,29.49a18.73,18.73,0,0,1-1.59,1.28,11.21,11.21,0,0,1-1.92,1.15,6.22,6.22,0,0,1-2,.54A2,2,0,0,1,57,31.92a2.65,2.65,0,0,1-.69-1.26,4.17,4.17,0,0,1-.06-1.81A7.74,7.74,0,0,1,57,26.7a9.85,9.85,0,0,1,1.74-2.29A15.49,15.49,0,0,1,60.38,23a8.51,8.51,0,0,1,1.52-.86,4.71,4.71,0,0,1,1.24-1.41,5,5,0,0,1,1.51-.82,3.64,3.64,0,0,1,1.52-.15,2.2,2.2,0,0,1,1.25.55,2.41,2.41,0,0,1,.71,1.31A4.66,4.66,0,0,1,68,23.75ZM58.24,35a1.52,1.52,0,0,1,.63.25,1.43,1.43,0,0,1,.42.43,1.38,1.38,0,0,1,.2.53,1.16,1.16,0,0,1,0,.53A2.19,2.19,0,0,1,58.54,38,1.13,1.13,0,0,1,57.31,38a1.54,1.54,0,0,1-.52-.43.41.41,0,0,1,0-.39,1.66,1.66,0,0,1,.31-.5,6,6,0,0,0,.48-.74.81.81,0,0,0,0-.31,1,1,0,0,1,0-.3.3.3,0,0,1,.15-.21A.79.79,0,0,1,58.24,35Zm-.48-3.64a1.53,1.53,0,0,0,1.3.38,4.85,4.85,0,0,0,1.6-.5,9.06,9.06,0,0,0,1.58-1,16.46,16.46,0,0,0,1.28-1.09,4.71,4.71,0,0,1-1-.91,5.41,5.41,0,0,1-.75-1.15,5.59,5.59,0,0,1-.43-1.31,5.79,5.79,0,0,1-.1-1.37,6.91,6.91,0,0,0-1.37,1.15A10.47,10.47,0,0,0,58.78,27,10.27,10.27,0,0,0,58,28.4a8.11,8.11,0,0,0-.42,1.3,3.83,3.83,0,0,0-.1,1.06A1,1,0,0,0,57.76,31.4ZM66,22.09c.17.08.23.18.18.29s-.18.16-.4.16a5.42,5.42,0,0,0-1.9.37,9.52,9.52,0,0,0-2.22,1.25,4.2,4.2,0,0,0,0,1.37,4.94,4.94,0,0,0,.45,1.29A5.65,5.65,0,0,0,62.88,28a4.8,4.8,0,0,0,1,.89,10.87,10.87,0,0,0,1.9-2.57,11.73,11.73,0,0,0,1-2.67,3.18,3.18,0,0,0-.07-2,1.83,1.83,0,0,0-1-1,2.2,2.2,0,0,0-1.55,0A3.87,3.87,0,0,0,62.55,22a5,5,0,0,1,2-.24A4.51,4.51,0,0,1,66,22.09Z"/><path class="cls-1" d="M81,22.21l.18-.3a1.16,1.16,0,0,1,.2-.25,1,1,0,0,1,.33-.21,3,3,0,0,1,.58-.17c.49-.12.75-.08.79.11s-.09.52-.41,1a11,11,0,0,1-.81,1.09,8.25,8.25,0,0,1-.88.89,3.92,3.92,0,0,1-.85.6,1.28,1.28,0,0,1-.77.18q-.35,0-.27-.12a3.42,3.42,0,0,1,.37-.35,8.24,8.24,0,0,0,.65-.66,3.26,3.26,0,0,0,.6-1.11c.06-.22-.08-.44-.42-.64A2.39,2.39,0,0,0,78.88,22a6.78,6.78,0,0,0-2.44.89,12.47,12.47,0,0,0-2.92,2.34,10.59,10.59,0,0,0-1.65,2.13,6.4,6.4,0,0,0-.78,1.86,2.62,2.62,0,0,0,0,1.42,1.3,1.3,0,0,0,.68.84,3.29,3.29,0,0,0,1.58.29,9.39,9.39,0,0,0,2.11-.3,19.56,19.56,0,0,0,2.43-.75c.84-.31,1.67-.66,2.49-1s1.6-.8,2.35-1.22a21.81,21.81,0,0,0,2-1.26A.75.75,0,0,0,85,27a2,2,0,0,0,.14-.25l.14-.26a.82.82,0,0,1,.26-.28,1.93,1.93,0,0,1,.8-.47.27.27,0,0,1,.34.26c0,.23-.18.5-.56.84a17.91,17.91,0,0,1-1.44,1.08c-.57.37-1.22.77-2,1.18s-1.52.82-2.34,1.21-1.66.74-2.52,1.07a23.64,23.64,0,0,1-2.49.79,12.34,12.34,0,0,1-2.28.36,4.41,4.41,0,0,1-1.84-.23,2.63,2.63,0,0,1-1.47-1.18,3.07,3.07,0,0,1-.36-1.87A6.24,6.24,0,0,1,70.14,27,10.54,10.54,0,0,1,72,24.56,12.37,12.37,0,0,1,73.81,23a11.12,11.12,0,0,1,1.79-1,9.34,9.34,0,0,1,1.69-.53,8.72,8.72,0,0,1,1.55-.15,3.12,3.12,0,0,1,1.38.28A1.86,1.86,0,0,1,81,22.21Z"/><path class="cls-1" d="M119.42,2.59l.41-.36a2.63,2.63,0,0,1,.56-.38A1.16,1.16,0,0,1,121,1.7c.18,0,.32.13.42.37l3.38-.88C125.9.9,127,.66,128,.47A28.63,28.63,0,0,1,130.9.05a8.22,8.22,0,0,1,2.26.06,2.84,2.84,0,0,1,1.3.56,2.32,2.32,0,0,1,.67.91,2.54,2.54,0,0,1,.17,1.06,5.81,5.81,0,0,1-.12,1,4.92,4.92,0,0,1-.26.84,2.77,2.77,0,0,1-.22.44c-.15.19-.3.27-.45.23s-.19-.18-.15-.4a2,2,0,0,0-.26-1.55,3.16,3.16,0,0,0-1.34-1.06,7.41,7.41,0,0,0-2.15-.56,15,15,0,0,0-2.71-.07,20.28,20.28,0,0,0-3,.39,21.3,21.3,0,0,0-3,.85,2.21,2.21,0,0,1-.14.77,4.15,4.15,0,0,1-.5.94,6.55,6.55,0,0,1-.73.88,6.32,6.32,0,0,1-.83.75,4.76,4.76,0,0,1-.81.52,1.6,1.6,0,0,1-.68.2,3.12,3.12,0,0,0-1.74.73,17,17,0,0,0-2.23,2c-.81.85-1.67,1.85-2.59,3s-1.88,2.39-2.86,3.74a44.49,44.49,0,0,0-2.67,4.1q-1.26,2.17-2.33,4.31c-.72,1.42-1.35,2.78-1.91,4.1s-1,2.48-1.43,3.49c-.11.3-.28.43-.51.4a1,1,0,0,1-.64-.39,2.14,2.14,0,0,1-.46-.86,1.56,1.56,0,0,1,.07-1.06q.59-1.37,1.5-3.06t2.07-3.57q1.15-1.87,2.51-3.88c.91-1.33,1.86-2.67,2.86-4s1.83-2.39,2.78-3.56,1.89-2.29,2.81-3.35,1.84-2.06,2.72-3,1.7-1.75,2.46-2.46c-1,.27-1.89.54-2.77.84l-2.67.85c-.89.27-1.81.54-2.77.79a30.45,30.45,0,0,1-3.11.63c-1.11.17-2.33.31-3.66.4s-2.79.11-4.41.07A4.63,4.63,0,0,1,97.81,7a2.11,2.11,0,0,1-1-.6A4.85,4.85,0,0,1,96,5.34a.38.38,0,0,1,.13-.55,2.33,2.33,0,0,1,1-.25l1.77-.17a6.77,6.77,0,0,1,1.55,0,3.42,3.42,0,0,1,.88.26c.24.12.48.25.72.4a4,4,0,0,0,1.07.38,16,16,0,0,0,2.44.33,13.44,13.44,0,0,0,2.29,0,18.2,18.2,0,0,0,2.33-.38c.8-.18,1.65-.41,2.58-.68s1.93-.57,3-.91S118.05,3,119.42,2.59Z"/><path class="cls-1" d="M123.62,32.08a1.3,1.3,0,0,1-.73-1.08,3.9,3.9,0,0,1,.26-1.6,11.6,11.6,0,0,1,.92-1.89c.39-.66.81-1.32,1.26-2a4.66,4.66,0,0,0,.79-1.67.93.93,0,0,0-.21-.85.79.79,0,0,0-.67-.12,4.6,4.6,0,0,0-1.18.36,13,13,0,0,0-1.58.83,18.77,18.77,0,0,0-1.85,1.3c-.64.5-1.28,1.05-1.94,1.66s-1.26,1.22-1.85,1.82-1.09,1.18-1.55,1.72a13,13,0,0,0-1,1.33c-.14.21-.28.3-.43.28a.57.57,0,0,1-.38-.24,1.77,1.77,0,0,1-.27-.49.88.88,0,0,1-.07-.45,3.3,3.3,0,0,1,.31-.71l.7-1.27.85-1.5c.3-.52.58-1,.83-1.38l.65-1.08c.32-.54.72-1.19,1.19-2l1.52-2.51c.56-.91,1.12-1.84,1.69-2.78l1.66-2.73L124,12.7,125,10.93c.29-.46.45-.74.49-.82l.34-.61a2.81,2.81,0,0,0,.22-.51,2.29,2.29,0,0,0,.11-.52,3.71,3.71,0,0,0,0-.65,1.72,1.72,0,0,1,.07-.74,4.17,4.17,0,0,1,.33-.76,8.9,8.9,0,0,1,.49-.76l.54-.73c.36-.47.68-.63,1-.49a2.38,2.38,0,0,1,.83,1,.87.87,0,0,1,.07.65,1.9,1.9,0,0,1-.2.5c-.06.12-.2.35-.41.67l-.71,1.12c-.26.43-.54.87-.83,1.33l-.81,1.3L125,13.47l-1.65,2.76c-.57.95-1.13,1.9-1.69,2.85S120.55,21,120,21.83l-1.44,2.46-1.16,2c-.34.57-.6,1-.79,1.35a5.17,5.17,0,0,0-.3.52.18.18,0,0,0,0,.14s.06,0,.13,0l.43-.42.73-.64c.31-.26.68-.58,1.13-.94s1-.79,1.62-1.28,1.27-1,2-1.46a20.82,20.82,0,0,1,2-1.28,8.61,8.61,0,0,1,1.86-.81,2.74,2.74,0,0,1,1.54-.07c.56.16.87.45.93.86a2.72,2.72,0,0,1-.21,1.38,8.23,8.23,0,0,1-.83,1.57c-.35.54-.67,1-.94,1.39s-.72,1-1.11,1.51a16.87,16.87,0,0,0-1,1.44,3.71,3.71,0,0,0-.51,1.2.7.7,0,0,0,.35.81,1.26,1.26,0,0,0,.78.18,5.85,5.85,0,0,0,1.15-.16,10.51,10.51,0,0,0,1.39-.41c.49-.18,1-.39,1.48-.63a18.41,18.41,0,0,0,2.52-1.42A14.83,14.83,0,0,0,133.2,28a.94.94,0,0,0,.23-.29l.11-.27a1.39,1.39,0,0,1,.1-.26.81.81,0,0,1,.23-.28,2.84,2.84,0,0,1,.78-.5c.17-.06.27,0,.3.25s-.11.47-.42.79a14,14,0,0,1-1.24,1.12c-.32.26-.79.61-1.4,1A17.83,17.83,0,0,1,129.32,31a16.46,16.46,0,0,1-1.66.68,13.22,13.22,0,0,1-1.64.46,7.53,7.53,0,0,1-1.41.15A2.07,2.07,0,0,1,123.62,32.08Z"/><path class="cls-1" d="M131.19,35a1.48,1.48,0,0,1,.62.25,1.6,1.6,0,0,1,.43.43,1.56,1.56,0,0,1,.2.53,1.16,1.16,0,0,1-.05.53,2.18,2.18,0,0,1-.9,1.26,1.15,1.15,0,0,1-1.24-.09,1.65,1.65,0,0,1-.52-.43.44.44,0,0,1,0-.39,1.9,1.9,0,0,1,.31-.5,4.32,4.32,0,0,0,.48-.74.65.65,0,0,0,.05-.31,1.42,1.42,0,0,1,0-.3.34.34,0,0,1,.16-.21A.78.78,0,0,1,131.19,35ZM134,26a8.67,8.67,0,0,0,.5-.82,1,1,0,0,0,0-.8,1.24,1.24,0,0,1,0-.66,2.85,2.85,0,0,1,.27-.63,7.13,7.13,0,0,1,.48-.65c.2-.23.4-.48.6-.74a3.21,3.21,0,0,1,.36-.37.38.38,0,0,1,.35-.11.76.76,0,0,1,.4.31,5.5,5.5,0,0,1,.47.86,1.23,1.23,0,0,1,.16.65,1,1,0,0,1-.11.49c-.06.11-.17.29-.34.54s-.35.52-.55.81l-.6.87-.49.73c-.08.14-.22.35-.41.63s-.38.58-.58.91-.4.68-.59,1a9.17,9.17,0,0,0-.47,1,2.87,2.87,0,0,0-.18.88.63.63,0,0,0,.24.58,1.1,1.1,0,0,0,.73.18,5.39,5.39,0,0,0,1.11-.16,12.58,12.58,0,0,0,1.37-.44c.49-.19,1-.4,1.48-.64a17.67,17.67,0,0,0,2.51-1.42A15.68,15.68,0,0,0,142.18,28a.79.79,0,0,0,.25-.29,1.3,1.3,0,0,0,.1-.27,1.34,1.34,0,0,1,.09-.26.79.79,0,0,1,.25-.28,2.83,2.83,0,0,1,.77-.5c.17-.06.26,0,.29.25s-.11.47-.41.79a16,16,0,0,1-1.25,1.12c-.32.26-.79.61-1.39,1A18.2,18.2,0,0,1,138.32,31c-.54.25-1.09.48-1.65.68a13.9,13.9,0,0,1-1.6.47,6.64,6.64,0,0,1-1.38.17,2,2,0,0,1-1-.17,1.67,1.67,0,0,1-.74-.78,2,2,0,0,1,0-1.2,7.66,7.66,0,0,1,.65-1.74A27.1,27.1,0,0,1,134,26Zm6.22-9.5c.05.1.14.24.25.42a3.49,3.49,0,0,1,.29.58,2.89,2.89,0,0,1,.16.66,1.24,1.24,0,0,1-.12.65,2.24,2.24,0,0,1-1,1.11c-.36.15-.7,0-1-.38a2.81,2.81,0,0,1-.34-.53.81.81,0,0,1,0-.46,1.54,1.54,0,0,1,.22-.53c.11-.19.27-.44.46-.75a1.08,1.08,0,0,0,.24-.4c0-.07,0-.17.08-.33a.38.38,0,0,1,.34-.29A.56.56,0,0,1,140.19,16.49Z"/><path class="cls-1" d="M151,32.08a1.29,1.29,0,0,1-.7-1.13,4.23,4.23,0,0,1,.35-1.7,13,13,0,0,1,1-2c.42-.7.85-1.37,1.29-2a4.73,4.73,0,0,0,.82-1.65.86.86,0,0,0-.21-.86,1,1,0,0,0-.72-.09,4.74,4.74,0,0,0-1.19.37,13.34,13.34,0,0,0-1.59.81c-.59.34-1.23.75-1.91,1.22s-1.36,1-2,1.54-1.33,1.13-1.95,1.73a23.77,23.77,0,0,0-1.69,1.83,15.6,15.6,0,0,0-1.31,1.8c-.14.21-.28.3-.43.28a.64.64,0,0,1-.39-.24,1.37,1.37,0,0,1-.27-.49.86.86,0,0,1-.06-.45,3.3,3.3,0,0,1,.2-.45c.12-.24.26-.51.43-.82s.35-.65.56-1,.41-.7.59-1l.51-.87.33-.56a5.56,5.56,0,0,0,.56-1,1.44,1.44,0,0,0,.09-.95,1.15,1.15,0,0,1,0-.66,2.14,2.14,0,0,1,.27-.63,4.67,4.67,0,0,1,.48-.65l.6-.74a2.54,2.54,0,0,1,.35-.37.37.37,0,0,1,.34-.11.79.79,0,0,1,.39.31,4.69,4.69,0,0,1,.48.86.88.88,0,0,1,.07.65,1.81,1.81,0,0,1-.2.49l-.31.49c-.15.24-.33.52-.54.83l-.65,1c-.23.34-.45.67-.65,1s-.38.58-.53.83a5.57,5.57,0,0,0-.29.49c0,.08-.05.14,0,.17s.08,0,.15,0c.26-.26.78-.72,1.55-1.37s1.76-1.42,3-2.29c.66-.5,1.36-1,2.11-1.45A18.71,18.71,0,0,1,152,22a8.11,8.11,0,0,1,1.88-.65,1.73,1.73,0,0,1,1.33.13,1.67,1.67,0,0,1,.82,1.1,2.4,2.4,0,0,1-.17,1.28,5.87,5.87,0,0,1-.71,1.29l-.83,1.13c-.37.47-.75,1-1.17,1.52s-.78,1.06-1.08,1.55a4.58,4.58,0,0,0-.59,1.34.73.73,0,0,0,.32.87,1.26,1.26,0,0,0,.78.18,5.85,5.85,0,0,0,1.15-.16,10.51,10.51,0,0,0,1.39-.41c.49-.18,1-.39,1.48-.63a17.83,17.83,0,0,0,2.52-1.42A14.83,14.83,0,0,0,160.62,28a.81.81,0,0,0,.23-.29,2.57,2.57,0,0,0,.11-.27,1.39,1.39,0,0,1,.1-.26.81.81,0,0,1,.23-.28,2.84,2.84,0,0,1,.78-.5c.17-.06.27,0,.3.25s-.11.47-.42.79a14,14,0,0,1-1.24,1.12c-.32.26-.79.61-1.39,1A18,18,0,0,1,156.74,31a16.46,16.46,0,0,1-1.66.68,13.22,13.22,0,0,1-1.64.46,7.53,7.53,0,0,1-1.41.15A2.1,2.1,0,0,1,151,32.08Z"/><path class="cls-1" d="M168.54,32.08a1.29,1.29,0,0,1-.72-1.08,3.74,3.74,0,0,1,.26-1.6,11.5,11.5,0,0,1,.91-1.89c.4-.66.82-1.32,1.26-2a4.66,4.66,0,0,0,.79-1.67.9.9,0,0,0-.21-.85.76.76,0,0,0-.66-.12,4.66,4.66,0,0,0-1.19.36,13,13,0,0,0-1.58.83,18.77,18.77,0,0,0-1.85,1.3c-.64.5-1.28,1.05-1.93,1.66s-1.27,1.22-1.85,1.82-1.1,1.18-1.55,1.72a13.4,13.4,0,0,0-1,1.33c-.14.21-.28.3-.43.28a.59.59,0,0,1-.38-.24,1.77,1.77,0,0,1-.27-.49.77.77,0,0,1-.06-.45,2.48,2.48,0,0,1,.31-.71c.19-.37.43-.79.7-1.27l.85-1.5c.3-.52.57-1,.82-1.38l.65-1.08,1.19-2,1.53-2.51,1.68-2.78,1.66-2.73,1.45-2.4c.42-.71.77-1.3,1.06-1.77l.49-.82c.12-.23.23-.44.33-.61A2.87,2.87,0,0,0,171,9a2.28,2.28,0,0,0,.1-.52,2.94,2.94,0,0,0,0-.65,1.89,1.89,0,0,1,.07-.74,3.63,3.63,0,0,1,.34-.76,6.88,6.88,0,0,1,.48-.76c.19-.25.36-.49.55-.73.36-.47.67-.63,1-.49a2.32,2.32,0,0,1,.83,1,.87.87,0,0,1,.08.65,2.33,2.33,0,0,1-.2.5c-.07.12-.21.35-.42.67s-.44.7-.7,1.12-.54.87-.84,1.33l-.81,1.3-1.5,2.51-1.66,2.76-1.69,2.85L165,21.83l-1.45,2.46-1.16,2c-.33.57-.6,1-.79,1.35s-.29.5-.29.52-.06.11,0,.14.05,0,.12,0l.44-.42c.18-.16.42-.38.73-.64s.67-.58,1.12-.94,1-.79,1.62-1.28,1.27-1,2-1.46a22.14,22.14,0,0,1,2-1.28,8.61,8.61,0,0,1,1.86-.81,2.78,2.78,0,0,1,1.55-.07c.55.16.86.45.92.86a2.6,2.6,0,0,1-.2,1.38,8.3,8.3,0,0,1-.84,1.57c-.35.54-.66,1-.94,1.39s-.72,1-1.1,1.51a17.15,17.15,0,0,0-1,1.44,3.71,3.71,0,0,0-.51,1.2.71.71,0,0,0,.35.81,1.26,1.26,0,0,0,.78.18,5.94,5.94,0,0,0,1.16-.16,10,10,0,0,0,1.38-.41c.49-.18,1-.39,1.49-.63a18.25,18.25,0,0,0,2.51-1.42,16.59,16.59,0,0,0,1.5-1.13,1.12,1.12,0,0,0,.23-.29l.1-.27a2.77,2.77,0,0,1,.1-.26,1,1,0,0,1,.23-.28,2.84,2.84,0,0,1,.78-.5c.18-.06.28,0,.3.25s-.11.47-.41.79a14.32,14.32,0,0,1-1.25,1.12c-.32.26-.78.61-1.39,1A17.49,17.49,0,0,1,174.24,31a17.28,17.28,0,0,1-1.65.68,14.26,14.26,0,0,1-1.64.46,7.63,7.63,0,0,1-1.42.15A2.1,2.1,0,0,1,168.54,32.08Z"/><path class="cls-1" d="M107.68,64.56a6.63,6.63,0,0,1,1,2.94,8.86,8.86,0,0,1-.6,3.83,12.42,12.42,0,0,1-1.87,3.36,19.37,19.37,0,0,1-2.85,3,26,26,0,0,1-3.53,2.51,31.13,31.13,0,0,1-4,2,34.64,34.64,0,0,1-4.12,1.42,27.9,27.9,0,0,1-4,.78,18.9,18.9,0,0,1-3.58.08,9.74,9.74,0,0,1-2.92-.65,4.94,4.94,0,0,1-2.54-2,3.4,3.4,0,0,1-.33-2.51,7.38,7.38,0,0,1,1.44-2.81,19.59,19.59,0,0,1,2.79-2.85A30,30,0,0,1,86.33,71a33.81,33.81,0,0,1,4.11-2.18A73.54,73.54,0,0,1,98,66a50.86,50.86,0,0,1,6.75-1.66,10.26,10.26,0,0,0-2.75-2A20.08,20.08,0,0,0,98.52,61a23.06,23.06,0,0,0-3.6-.75,19.66,19.66,0,0,0-3.25-.15,1.81,1.81,0,0,1-1.11-.17.42.42,0,0,1-.13-.5,1.75,1.75,0,0,1,.45-.59c.22-.2.42-.37.58-.49a2.06,2.06,0,0,1,.72-.26c.31-.06.68-.12,1.1-.17l1.41-.14c.52,0,1.08-.12,1.68-.2a28,28,0,0,0,3.31-.69,28.75,28.75,0,0,0,3.44-1.12,27.48,27.48,0,0,0,3.3-1.53,18.24,18.24,0,0,0,2.85-1.87,11.41,11.41,0,0,0,2.09-2.15,6,6,0,0,0,1.06-2.39,3,3,0,0,0,0-1.19,2.55,2.55,0,0,0-.66-1.13,4.94,4.94,0,0,0-1.43-1,10.53,10.53,0,0,0-2.38-.73,25.35,25.35,0,0,0-3.5-.4c-1.36-.07-3-.06-4.78,0s-3.51.24-5.22.47-3.33.5-4.88.81-3,.65-4.34,1-2.52.72-3.56,1.07-1.91.68-2.6,1a6.29,6.29,0,0,0-1.41.77,4.12,4.12,0,0,0-.79.82c-.16.23-.32.45-.48.65a3.09,3.09,0,0,1-.7.61,7.36,7.36,0,0,1-1.42.64c-.65.24-1.2.43-1.64.58a2.36,2.36,0,0,1-1,.19c-.23,0-.35-.17-.36-.44a4.3,4.3,0,0,1,.33-1.31,2.21,2.21,0,0,1,.64-1,4.69,4.69,0,0,1,1-.63l1.37-.6c.68-.29,1.56-.63,2.65-1s2.38-.8,3.89-1.25,3.19-.85,5.07-1.24,3.94-.74,6.19-1S97,43,99.59,42.85a54.77,54.77,0,0,1,7.46.11,16.88,16.88,0,0,1,4.67,1A4.4,4.4,0,0,1,114,45.72a3.83,3.83,0,0,1,.41,2.46,7.06,7.06,0,0,1-1.5,3.26,14.14,14.14,0,0,1-3.54,3.13A25.92,25.92,0,0,1,104,57.18a36.57,36.57,0,0,1-7.2,1.72c-.15,0-.23.07-.23.13s.08.09.23.12a23.89,23.89,0,0,1,2.58.45,18.73,18.73,0,0,1,2.88.9A15.81,15.81,0,0,1,105,62a9.2,9.2,0,0,1,2.26,2c.35-.07.7-.13,1.06-.17l1.05-.09c.34,0,.65,0,.94,0s.53,0,.73,0c.71,0,1.27.09,1.67.14a1,1,0,0,1,.77.37c.11.17.06.31-.16.41a2.41,2.41,0,0,1-1,.16.82.82,0,0,1-.35-.06,1.41,1.41,0,0,1-.24-.13,1.61,1.61,0,0,0-.26-.15,2.18,2.18,0,0,0-.39-.1l-.68,0a8.42,8.42,0,0,0-.86,0l-1,.08C108.28,64.46,108,64.5,107.68,64.56Zm-7.49-19.79a1.73,1.73,0,0,1,.29,1.07,3,3,0,0,1-.62,1.48,6.62,6.62,0,0,1-.73.89,8.23,8.23,0,0,1-.84.75,5.42,5.42,0,0,1-.82.51,1.47,1.47,0,0,1-.69.2,3.2,3.2,0,0,0-1.73.73,15.92,15.92,0,0,0-2.23,2c-.81.85-1.67,1.85-2.6,3s-1.87,2.4-2.85,3.74a42.67,42.67,0,0,0-2.67,4.11q-1.26,2.17-2.33,4.3C81.65,69,81,70.35,80.45,71.67s-1,2.48-1.42,3.49c-.11.29-.28.42-.5.39a1,1,0,0,1-.64-.38,2.17,2.17,0,0,1-.47-.86,1.56,1.56,0,0,1,.07-1.06c.39-.92.89-1.94,1.5-3.07s1.3-2.32,2.07-3.57,1.6-2.53,2.51-3.87,1.86-2.67,2.86-4,2.16-2.81,3.29-4.17,2.21-2.65,3.28-3.84,2.09-2.27,3.07-3.25a32.85,32.85,0,0,1,2.63-2.42c.12-.1.25-.19.38-.28a1.71,1.71,0,0,1,.4-.21.72.72,0,0,1,.38,0A.5.5,0,0,1,100.19,44.77Zm-9.5,24.61a36.52,36.52,0,0,0-4,2.22,29,29,0,0,0-3.41,2.53,17.2,17.2,0,0,0-2.49,2.62,6.88,6.88,0,0,0-1.25,2.52,3,3,0,0,0,.27,2.19,4.07,4.07,0,0,0,2.08,1.66,7.36,7.36,0,0,0,2.7.55,15.18,15.18,0,0,0,3.28-.26,24.47,24.47,0,0,0,3.63-1,31.59,31.59,0,0,0,3.72-1.57,35.06,35.06,0,0,0,3.57-2,28.18,28.18,0,0,0,3.17-2.43,19.22,19.22,0,0,0,2.51-2.72A11,11,0,0,0,106,70.81a5.64,5.64,0,0,0-.91-5.94,46.53,46.53,0,0,0-7,1.61A56.82,56.82,0,0,0,90.69,69.38Z"/><path class="cls-1" d="M113.56,68.82c.21-.32.37-.59.5-.82a1,1,0,0,0,0-.8,1.18,1.18,0,0,1,0-.67,2.09,2.09,0,0,1,.27-.62,4.19,4.19,0,0,1,.48-.66l.6-.73a3.41,3.41,0,0,1,.35-.38.38.38,0,0,1,.36-.1.79.79,0,0,1,.39.31,4.54,4.54,0,0,1,.48.85,1.46,1.46,0,0,1,.16.66,1,1,0,0,1-.12.48,3.66,3.66,0,0,1-.33.55c-.17.24-.35.51-.55.81l-.6.87c-.21.29-.37.53-.49.73l-.41.62c-.19.28-.38.58-.58.92s-.4.68-.59,1a7.6,7.6,0,0,0-.47,1,3,3,0,0,0-.19.89.7.7,0,0,0,.24.58,1.26,1.26,0,0,0,.74.18,5.46,5.46,0,0,0,1.11-.17,10.61,10.61,0,0,0,1.36-.44,15.79,15.79,0,0,0,1.49-.63,19.36,19.36,0,0,0,2.51-1.42,15.4,15.4,0,0,0,1.48-1.14.66.66,0,0,0,.25-.29,2.13,2.13,0,0,0,.09-.27,1.72,1.72,0,0,1,.1-.26.77.77,0,0,1,.25-.28,2.93,2.93,0,0,1,.77-.5c.16,0,.26,0,.29.25a1.11,1.11,0,0,1-.42.79,13,13,0,0,1-1.25,1.12c-.31.27-.78.61-1.39,1a18.54,18.54,0,0,1-2.56,1.44c-.54.25-1.09.47-1.65.67a12.83,12.83,0,0,1-1.6.47,7.27,7.27,0,0,1-1.37.18,1.93,1.93,0,0,1-1-.18,1.65,1.65,0,0,1-.73-.78,1.94,1.94,0,0,1,0-1.19,8.34,8.34,0,0,1,.66-1.75A27.1,27.1,0,0,1,113.56,68.82Zm9-9.15a.48.48,0,0,1,0,.45,2.38,2.38,0,0,1-.24.45,4.13,4.13,0,0,1-.69.72c-.3.25-.61.48-.92.69a9.78,9.78,0,0,1-.88.53,2.6,2.6,0,0,1-.63.26.66.66,0,0,1-.42,0,.64.64,0,0,1-.27-.2.44.44,0,0,1-.1-.26.23.23,0,0,1,.11-.2,4.67,4.67,0,0,0,.7-.6,6.47,6.47,0,0,0,.64-.79,7.52,7.52,0,0,0,.54-.91,5.36,5.36,0,0,0,.38-1,.74.74,0,0,1,.37-.47.36.36,0,0,1,.44,0,3.31,3.31,0,0,1,.53.57A4.2,4.2,0,0,1,122.58,59.67Z"/><path class="cls-1" d="M132,65l.18-.3a.87.87,0,0,1,.19-.25,1.53,1.53,0,0,1,.34-.2,2.68,2.68,0,0,1,.58-.18c.48-.11.75-.07.79.11s-.1.52-.42,1a9.94,9.94,0,0,1-.81,1.09,9.39,9.39,0,0,1-.87.9,5.14,5.14,0,0,1-.85.6,1.37,1.37,0,0,1-.77.18c-.24,0-.33-.06-.27-.13a2.51,2.51,0,0,1,.36-.34,6,6,0,0,0,.66-.67,3.24,3.24,0,0,0,.6-1.11c.05-.22-.09-.43-.43-.63a2.29,2.29,0,0,0-1.4-.22,6.73,6.73,0,0,0-2.44.88,12.27,12.27,0,0,0-2.92,2.34,11.7,11.7,0,0,0-1.66,2.13,7.29,7.29,0,0,0-.78,1.86,2.87,2.87,0,0,0,0,1.43,1.39,1.39,0,0,0,.69.84,3.36,3.36,0,0,0,1.58.29,10.09,10.09,0,0,0,2.11-.3,22.78,22.78,0,0,0,2.42-.75c.85-.31,1.68-.66,2.5-1s1.6-.79,2.34-1.22a22.68,22.68,0,0,0,2-1.25,1.1,1.1,0,0,0,.24-.25l.14-.25c0-.09.08-.17.13-.26a.83.83,0,0,1,.26-.28,1.88,1.88,0,0,1,.8-.47.26.26,0,0,1,.34.26c0,.22-.17.5-.56.83a17.57,17.57,0,0,1-1.43,1.08c-.57.38-1.23.77-2,1.19s-1.52.81-2.34,1.2-1.65.75-2.51,1.07a21,21,0,0,1-2.5.79,13.21,13.21,0,0,1-2.27.37,4.53,4.53,0,0,1-1.84-.23,2.71,2.71,0,0,1-1.48-1.19,3.12,3.12,0,0,1-.35-1.87,6.08,6.08,0,0,1,.76-2.27A10.1,10.1,0,0,1,123,67.38a12.27,12.27,0,0,1,1.83-1.52,11,11,0,0,1,1.78-1,8.07,8.07,0,0,1,1.7-.53,8.68,8.68,0,0,1,1.55-.16,3.33,3.33,0,0,1,1.38.28A2,2,0,0,1,132,65Z"/><path class="cls-1" d="M143.83,74.91a1.31,1.31,0,0,1-.73-1.08,3.71,3.71,0,0,1,.26-1.6,10.77,10.77,0,0,1,.91-1.89q.6-1,1.26-2a4.47,4.47,0,0,0,.79-1.66.87.87,0,0,0-.21-.85.75.75,0,0,0-.66-.13,4.66,4.66,0,0,0-1.19.36,14,14,0,0,0-1.58.84,17.21,17.21,0,0,0-1.85,1.3c-.63.49-1.28,1-1.93,1.66s-1.27,1.22-1.85,1.82-1.1,1.17-1.55,1.71a14.69,14.69,0,0,0-1,1.33c-.14.21-.28.3-.42.28a.59.59,0,0,1-.39-.24,1.71,1.71,0,0,1-.27-.48.78.78,0,0,1-.06-.45,3,3,0,0,1,.31-.72l.7-1.27.85-1.49c.3-.52.57-1,.82-1.38l.66-1.09c.32-.54.72-1.19,1.18-2s1-1.6,1.53-2.52l1.68-2.77,1.67-2.73q.81-1.34,1.44-2.4c.42-.72.78-1.31,1.06-1.77s.45-.74.49-.82c.12-.24.24-.44.33-.62a2.87,2.87,0,0,0,.23-.51,1.78,1.78,0,0,0,.1-.52,2.85,2.85,0,0,0,0-.64,1.93,1.93,0,0,1,.08-.75,3.31,3.31,0,0,1,.33-.76,8.11,8.11,0,0,1,.49-.76q.27-.37.54-.72c.36-.47.68-.64,1-.49a2.27,2.27,0,0,1,.84,1,.84.84,0,0,1,.07.64,1.9,1.9,0,0,1-.2.5c-.07.13-.21.35-.41.68s-.45.7-.71,1.12l-.83,1.33-.81,1.3c-.48.77-1,1.61-1.51,2.5s-1.08,1.82-1.65,2.77-1.14,1.9-1.7,2.85l-1.62,2.74-1.44,2.46-1.17,2-.79,1.34c-.19.33-.29.51-.29.52a.21.21,0,0,0,0,.15s.05,0,.13,0l.43-.41.73-.65c.3-.26.68-.57,1.12-.93l1.62-1.29c.63-.48,1.28-1,2-1.46a21.85,21.85,0,0,1,2-1.27,8.61,8.61,0,0,1,1.86-.81,2.79,2.79,0,0,1,1.55-.08c.56.17.86.46.93.87a2.73,2.73,0,0,1-.21,1.38,8.87,8.87,0,0,1-.83,1.57c-.36.53-.67,1-.95,1.38s-.71,1-1.1,1.52a17.1,17.1,0,0,0-1,1.43,3.84,3.84,0,0,0-.51,1.21.7.7,0,0,0,.36.81,1.33,1.33,0,0,0,.78.17,5.12,5.12,0,0,0,1.15-.15,11.73,11.73,0,0,0,1.38-.42c.49-.18,1-.38,1.49-.62a19.36,19.36,0,0,0,2.51-1.42,13.87,13.87,0,0,0,1.5-1.14.76.76,0,0,0,.23-.29,2.33,2.33,0,0,0,.1-.27l.11-.26a.79.79,0,0,1,.23-.28,2.79,2.79,0,0,1,.78-.5c.17,0,.27,0,.3.25a1.11,1.11,0,0,1-.42.79,13,13,0,0,1-1.25,1.12c-.32.27-.78.61-1.39,1a18.36,18.36,0,0,1-2.58,1.44,15.35,15.35,0,0,1-1.65.67,12.07,12.07,0,0,1-1.64.46,7.61,7.61,0,0,1-1.41.16A2.17,2.17,0,0,1,143.83,74.91Z"/><path class="cls-1" d="M185.76,80.92a12.48,12.48,0,0,1-2.37,0,12.23,12.23,0,0,1-2.57-.5,19.72,19.72,0,0,1-2.92-1.15,34.63,34.63,0,0,1-3.43-1.94l-2.73-1.74c-.8-.52-1.5-.92-2.1-1.23a4.71,4.71,0,0,0-1.54-.52,1.15,1.15,0,0,0-1,.37q-.36.4-.6.63a.76.76,0,0,1-.5.22.87.87,0,0,1-.53-.27,4.61,4.61,0,0,1-.68-.87,1.47,1.47,0,0,1-.15-1.09,4.68,4.68,0,0,1,.44-1.34,6.24,6.24,0,0,1,.77-1.19,1.74,1.74,0,0,1,.83-.64c.22-.07.45-.14.67-.23a3.07,3.07,0,0,0,.75-.44,9,9,0,0,0,1-.94,17.67,17.67,0,0,0,1.35-1.71c.53-.74,1.15-1.67,1.87-2.79s1.55-2.5,2.52-4.14,1.69-3,2.29-4.09,1.07-2.11,1.41-2.91a14.38,14.38,0,0,0,.73-2,7.16,7.16,0,0,0,.24-1.41,5.57,5.57,0,0,0,0-1.1q-.07-.51-.12-1.08a1.53,1.53,0,0,1,.15-.65,5.53,5.53,0,0,1,.44-.82,7.11,7.11,0,0,1,.67-.85,8.13,8.13,0,0,1,.79-.77,3.57,3.57,0,0,1,.8-.53,1.49,1.49,0,0,1,.73-.17l.87.06a1.88,1.88,0,0,1,.58.12.37.37,0,0,1,.24.3,1.26,1.26,0,0,1-.15.62c-.13.28-.28.62-.47,1s-.43.9-.72,1.48-.64,1.27-1.06,2.07-.92,1.73-1.52,2.8-1.29,2.31-2.09,3.69-1.71,3-2.75,4.7-1.9,3.18-2.69,4.47L171,67.79c-.62,1-1.16,1.82-1.63,2.52l-1.23,1.79a10.61,10.61,0,0,1,1.36.57c.45.22,1,.49,1.52.83l2,1.16,2.67,1.56c1.32.78,2.46,1.43,3.42,2a28.75,28.75,0,0,0,2.58,1.31,9.49,9.49,0,0,0,2.1.69,6.61,6.61,0,0,0,2,.08,9.52,9.52,0,0,0,1.52-.24,7.82,7.82,0,0,0,1.21-.37,7.33,7.33,0,0,0,1.05-.52c.33-.2.68-.43,1-.7a1.12,1.12,0,0,0,.3-.34,4.13,4.13,0,0,0,.26-.47c.08-.16.17-.32.26-.48a1.45,1.45,0,0,1,.32-.37c.67-.55,1.1-.64,1.31-.25a.89.89,0,0,1,.15.65,1.44,1.44,0,0,1-.31.6,3.7,3.7,0,0,1-.65.56c-.26.18-.55.35-.85.52a22.84,22.84,0,0,1-2.43,1.24A11.89,11.89,0,0,1,185.76,80.92Z"/><path class="cls-1" d="M186,70.07q.17-.25.39-.54a6.74,6.74,0,0,0,.42-.62,4,4,0,0,0,.3-.67,1.8,1.8,0,0,0,.07-.73,1.92,1.92,0,0,1,.07-.75,4.49,4.49,0,0,1,.33-.76c.15-.25.32-.51.5-.76l.55-.72c.36-.48.68-.64,1-.49a2.21,2.21,0,0,1,.83,1,.68.68,0,0,1,.09.33,1.12,1.12,0,0,1,0,.32,1,1,0,0,1-.08.28,1.09,1.09,0,0,1-.09.21c-.06.08-.15.24-.29.48l-.5.82c-.2.31-.4.65-.62,1s-.42.7-.63,1l-.56.9c-.17.27-.3.48-.4.61a9.13,9.13,0,0,0-1,1.8c-.18.49-.17.82,0,1a1.05,1.05,0,0,0,.54.1,3,3,0,0,0,1-.23,11.19,11.19,0,0,0,1.56-.73,21.89,21.89,0,0,0,2.21-1.45,29.31,29.31,0,0,0,3.53-2.94A14.56,14.56,0,0,0,197.32,66c.15-.26.29-.52.42-.79s.26-.49.38-.68a1.13,1.13,0,0,1,.35-.41.36.36,0,0,1,.41.05,1.84,1.84,0,0,1,.31.34,2.48,2.48,0,0,1,.32.61,3.17,3.17,0,0,1,.17.78,1.76,1.76,0,0,1-.16.83l-.21.52a2.59,2.59,0,0,1-.25.5,1.89,1.89,0,0,1-.34.4,1,1,0,0,1-.51.24,1.22,1.22,0,0,0-.79.64c-.21.35-.43.75-.67,1.19l-1,2.06c-.52,1-1.2,2.4-2,4a31.9,31.9,0,0,0,3.23-1.18c.95-.42,1.78-.82,2.5-1.21a17,17,0,0,0,1.79-1.09c.49-.34.87-.61,1.15-.82a.72.72,0,0,0,.27-.36l.15-.49c.05-.17.11-.33.17-.48a.92.92,0,0,1,.26-.37l.48-.39a1.39,1.39,0,0,1,.41-.24.39.39,0,0,1,.32,0c.08,0,.13.17.16.37a.84.84,0,0,1-.12.45,4.37,4.37,0,0,1-.42.65,9.53,9.53,0,0,1-.63.72,8.34,8.34,0,0,1-.78.67l-1.12.76a20.24,20.24,0,0,1-1.84,1.1c-.76.41-1.66.84-2.7,1.28A36.5,36.5,0,0,1,193.34,77c-.34.66-.73,1.38-1.15,2.14s-.86,1.55-1.33,2.35-.93,1.61-1.41,2.41-1,1.59-1.43,2.35a34.79,34.79,0,0,1-2.63,3.63,30.63,30.63,0,0,1-3,3.19,23.69,23.69,0,0,1-3.2,2.47A13,13,0,0,1,176,97a7,7,0,0,1-3,.26A4.84,4.84,0,0,1,170.39,96a4.44,4.44,0,0,1-1.45-2.67,6.88,6.88,0,0,1,.34-3.23,11.46,11.46,0,0,1,1.86-3.35,16.13,16.13,0,0,1,3.1-3,28.66,28.66,0,0,1,3.62-2.37,29,29,0,0,1,3.82-1.74,46.69,46.69,0,0,1,4.48-1.41q2.44-.66,5.61-1.39c.81-1.51,1.58-3,2.29-4.32s1.33-2.6,1.84-3.68a.16.16,0,0,0,0-.15s-.06,0-.13.07l-.57.54c-.22.19-.47.41-.76.64s-.63.5-1,.78-.82.61-1.32,1l-.94.67c-.37.27-.78.55-1.21.85s-.89.57-1.36.86a14.27,14.27,0,0,1-1.39.72,6.65,6.65,0,0,1-1.27.41,1.91,1.91,0,0,1-1,0,1.13,1.13,0,0,1-.74-.58,1.69,1.69,0,0,1-.12-.91,4.2,4.2,0,0,1,.31-1.06,7.55,7.55,0,0,1,.54-1.06,10.29,10.29,0,0,1,.59-.91ZM174.74,84.14A12.2,12.2,0,0,0,173,85.77a14.93,14.93,0,0,0-1.43,1.92,12,12,0,0,0-1,2,7.67,7.67,0,0,0-.49,2,4.47,4.47,0,0,0,.14,1.73,2.55,2.55,0,0,0,.85,1.32,3.7,3.7,0,0,0,2.22,1,6.31,6.31,0,0,0,2.62-.4,12.53,12.53,0,0,0,2.83-1.46,24.31,24.31,0,0,0,2.85-2.26,30.3,30.3,0,0,0,2.65-2.77,31.15,31.15,0,0,0,2.27-3l1.23-2c.43-.69.86-1.39,1.28-2.1l1.25-2.13c.41-.71.79-1.4,1.15-2.06-1.75.4-3.38.81-4.91,1.23a44.67,44.67,0,0,0-4.32,1.39,32.45,32.45,0,0,0-3.87,1.74A29.51,29.51,0,0,0,174.74,84.14Z"/></g><g id="_2" data-name="2"><path class="cls-2" d="M58.51,60.53H58q-1-4.26-4.48-4.26a4.58,4.58,0,0,0-3.24,1.16A4.07,4.07,0,0,0,49,60.55a4.85,4.85,0,0,0,1,2.83,4.3,4.3,0,0,0,2.67,1.85c1.31.27,2,.54,2,.8s-.54.48-1.6.48A5.66,5.66,0,0,0,49.14,68a5.34,5.34,0,0,0-1.76,4.09,5.44,5.44,0,0,0,1.83,4.16,5.71,5.71,0,0,0,4,1.59,5.34,5.34,0,0,0,4.37-2,7.23,7.23,0,0,0,1.54-5H57.53a3.87,3.87,0,0,0-1.81.41,1.84,1.84,0,0,0-1,1.43h-.53q0-3.5,3.82-3.49H60.7a7.91,7.91,0,0,0,2.57-.29,2,2,0,0,0,1.27-1.4h.54a3.25,3.25,0,0,1-.7,2.06,3.78,3.78,0,0,1-3.19,1.28A8.91,8.91,0,0,1,59,77a7.44,7.44,0,0,1-5.74,2.32,8.43,8.43,0,0,1-5.45-1.76,6.61,6.61,0,0,1-2.45-5.4,6.12,6.12,0,0,1,1.48-4.26,5.93,5.93,0,0,1,3.82-2v-.07A7,7,0,0,1,48,63.9a5.25,5.25,0,0,1-1-3.34A5.15,5.15,0,0,1,49,56.31a6.7,6.7,0,0,1,4.36-1.47A8.5,8.5,0,0,1,58,55.94C58.08,57,58.24,58.52,58.51,60.53Z"/></g></g></svg>